<svg width="32" height="33" viewBox="0 0 32 33" fill="none" xmlns="http://www.w3.org/2000/svg">
<path d="M5.32812 0.625025C5.31875 0.64065 5.19063 0.656275 5.04375 0.656275C4.89063 0.656275 4.78125 0.668775 4.78125 0.687525C4.78125 0.70315 4.71875 0.718775 4.64375 0.718775C4.56563 0.718775 4.49375 0.731275 4.48438 0.750025C4.475 0.76565 4.425 0.781275 4.37188 0.781275C4.32188 0.781275 4.28125 0.793775 4.28125 0.812525C4.28125 0.82815 4.24063 0.843775 4.1875 0.843775C4.1375 0.843775 4.09375 0.856275 4.09375 0.875025C4.09375 0.89065 4.05313 0.906275 4 0.906275C3.95 0.906275 3.90625 0.918775 3.90625 0.937525C3.90625 0.95315 3.87813 0.968775 3.84375 0.968775C3.80937 0.968775 3.78125 0.981275 3.78125 1.00002C3.78125 1.01565 3.75313 1.03127 3.71875 1.03127C3.68437 1.03127 3.65625 1.04377 3.65625 1.06252C3.65625 1.07815 3.63438 1.09377 3.60938 1.09377C3.58125 1.09377 3.53125 1.1219 3.49375 1.15627C3.45625 1.19065 3.40625 1.21877 3.38438 1.21877C3.3625 1.21877 3.34375 1.23127 3.34375 1.25002C3.34375 1.26565 3.32188 1.28127 3.29688 1.28127C3.27187 1.28127 3.20625 1.3219 3.15 1.37502C3.09688 1.42502 3.04063 1.46877 3.025 1.46877C2.99063 1.46877 2.28125 2.17815 2.28125 2.21252C2.28125 2.22815 2.24063 2.2844 2.1875 2.33752C2.1375 2.39377 2.09375 2.45315 2.09375 2.46877C2.09375 2.48752 2.06563 2.53128 2.03125 2.56878C1.99687 2.60628 1.96875 2.65628 1.96875 2.67815C1.96875 2.70003 1.95625 2.71877 1.9375 2.71877C1.92188 2.71877 1.90625 2.7469 1.90625 2.78127C1.90625 2.81565 1.89375 2.84377 1.875 2.84377C1.85938 2.84377 1.84375 2.8719 1.84375 2.90627C1.84375 2.94065 1.83125 2.96877 1.8125 2.96877C1.79688 2.96877 1.78125 2.9969 1.78125 3.03127C1.78125 3.06565 1.76875 3.09377 1.75 3.09377C1.73438 3.09377 1.71875 3.1344 1.71875 3.18752C1.71875 3.23752 1.70625 3.28127 1.6875 3.28127C1.67188 3.28127 1.65625 3.3219 1.65625 3.37502C1.65625 3.42502 1.64375 3.46877 1.625 3.46877C1.60938 3.46877 1.59375 3.5094 1.59375 3.56252C1.59375 3.61252 1.58125 3.65627 1.5625 3.65627C1.54688 3.65627 1.53125 3.71253 1.53125 3.77815C1.53125 3.8469 1.51875 3.91252 1.5 3.9219C1.48438 3.93127 1.46875 4.0469 1.46875 4.17502C1.46875 4.3094 1.45625 4.40627 1.4375 4.40627C1.41563 4.40627 1.40625 6.54065 1.40625 10.75V17.0938H0.703125H0V18.1875V19.2813H0.734375H1.46875V19.6063C1.46875 19.7907 1.48125 19.9438 1.5 19.9532C1.51875 19.9625 1.53125 20.0844 1.53125 20.2188C1.53125 20.3532 1.54688 20.475 1.5625 20.4844C1.58125 20.4938 1.59375 20.6 1.59375 20.7188C1.59375 20.8375 1.60625 20.9438 1.625 20.9532C1.64062 20.9625 1.65625 21.0407 1.65625 21.1282C1.65625 21.2125 1.67188 21.2813 1.6875 21.2813C1.70625 21.2813 1.71875 21.3563 1.71875 21.45C1.71875 21.5438 1.73438 21.6313 1.75 21.6407C1.76875 21.65 1.78125 21.7157 1.78125 21.7844C1.78125 21.85 1.79688 21.9063 1.8125 21.9063C1.83125 21.9063 1.84375 21.9625 1.84375 22.0313C1.84375 22.1 1.85938 22.1563 1.875 22.1563C1.89375 22.1563 1.90625 22.2125 1.90625 22.2813C1.90625 22.35 1.92188 22.4063 1.9375 22.4063C1.95625 22.4063 1.96875 22.4469 1.96875 22.5C1.96875 22.55 1.98438 22.5938 2 22.5938C2.01875 22.5938 2.03125 22.6407 2.03125 22.7C2.03125 22.7594 2.04688 22.8188 2.0625 22.8282C2.08125 22.8375 2.09375 22.8813 2.09375 22.9219C2.09375 22.9625 2.10938 23.0063 2.125 23.0157C2.14375 23.025 2.15625 23.0625 2.15625 23.0969C2.15625 23.1282 2.17188 23.1563 2.1875 23.1563C2.20625 23.1563 2.21875 23.1969 2.21875 23.25C2.21875 23.3 2.23438 23.3438 2.25 23.3438C2.26875 23.3438 2.28125 23.3844 2.28125 23.4375C2.28125 23.4875 2.29688 23.5313 2.3125 23.5313C2.33125 23.5313 2.34375 23.5594 2.34375 23.5938C2.34375 23.6282 2.35938 23.6563 2.375 23.6563C2.39375 23.6563 2.40625 23.6844 2.40625 23.7188C2.40625 23.7532 2.42188 23.7813 2.4375 23.7813C2.45625 23.7813 2.46875 23.8157 2.46875 23.8563C2.46875 23.9 2.48438 23.9438 2.5 23.9532C2.51875 23.9625 2.53125 24 2.53125 24.0344C2.53125 24.0657 2.54688 24.0938 2.5625 24.0938C2.58125 24.0938 2.59375 24.1219 2.59375 24.1563C2.59375 24.1907 2.60938 24.2188 2.625 24.2188C2.64375 24.2188 2.65625 24.2469 2.65625 24.2813C2.65625 24.3157 2.67188 24.3438 2.6875 24.3438C2.70625 24.3438 2.71875 24.3719 2.71875 24.4063C2.71875 24.4407 2.73438 24.4688 2.75 24.4688C2.76875 24.4688 2.78125 24.4875 2.78125 24.5094C2.78125 24.5313 2.80937 24.5813 2.84375 24.6188C2.87813 24.6563 2.90625 24.7063 2.90625 24.7344C2.90625 24.7594 2.92188 24.7813 2.9375 24.7813C2.95625 24.7813 2.96875 24.8063 2.96875 24.8375C2.96875 24.8688 2.99687 24.9125 3.03125 24.9375C3.06563 24.9625 3.09375 25.0063 3.09375 25.0375C3.09375 25.0688 3.10938 25.0938 3.125 25.0938C3.14375 25.0938 3.15625 25.1125 3.15625 25.1313C3.15625 25.1532 3.2 25.2219 3.25 25.2813C3.3 25.3407 3.34375 25.4063 3.34375 25.4219C3.34375 25.4407 3.37187 25.475 3.40625 25.5C3.44063 25.525 3.46875 25.5657 3.46875 25.5875C3.46875 25.6094 3.525 25.6844 3.59375 25.75C3.6625 25.8157 3.71875 25.8844 3.71875 25.9063C3.71875 25.9469 4.80312 27.0313 4.84375 27.0313C4.8625 27.0313 4.93438 27.0875 5.00313 27.1563C5.075 27.225 5.15 27.2813 5.16875 27.2813C5.1875 27.2813 5.225 27.3094 5.25 27.3438C5.275 27.3782 5.31562 27.4063 5.34375 27.4063C5.37188 27.4063 5.4125 27.4344 5.4375 27.4688C5.4625 27.5032 5.50312 27.5313 5.53125 27.5313C5.55938 27.5313 5.6 27.5594 5.625 27.5938C5.65 27.6282 5.69375 27.6563 5.725 27.6563C5.75625 27.6563 5.78125 27.6688 5.78125 27.6875C5.78125 27.7032 5.80625 27.7188 5.8375 27.7188C5.86875 27.7188 5.9125 27.7469 5.9375 27.7813C5.9625 27.8157 6.00625 27.8438 6.0375 27.8438C6.06875 27.8438 6.09375 27.8563 6.09375 27.875C6.09375 27.8907 6.12187 27.9063 6.15625 27.9063C6.19063 27.9063 6.21875 27.9188 6.21875 27.9375C6.21875 27.9532 6.24687 27.9688 6.28125 27.9688C6.31563 27.9688 6.34375 27.9813 6.34375 28C6.34375 28.0157 6.37187 28.0313 6.40625 28.0313C6.44063 28.0313 6.46875 28.0438 6.46875 28.0625C6.46875 28.0782 6.49062 28.0938 6.51562 28.0938C6.54063 28.0938 6.59062 28.1094 6.625 28.125C6.65938 28.1438 6.71562 28.1719 6.75 28.1875C6.78438 28.2063 6.83437 28.2188 6.85938 28.2188C6.88438 28.2188 6.90625 28.2313 6.90625 28.25C6.90625 28.2657 6.92812 28.2813 6.95312 28.2813C7.00938 28.2813 6.98125 28.3688 6.9 28.4407C6.86875 28.4688 6.84375 28.5125 6.84375 28.5344C6.84375 28.5594 6.81563 28.6 6.78125 28.625C6.74687 28.65 6.71875 28.6907 6.71875 28.7188C6.71875 28.7469 6.69063 28.7875 6.65625 28.8125C6.62187 28.8375 6.59375 28.8782 6.59375 28.9063C6.59375 28.9344 6.56563 28.975 6.53125 29C6.49687 29.025 6.46875 29.0657 6.46875 29.0938C6.46875 29.1219 6.44063 29.1625 6.40625 29.1875C6.37187 29.2125 6.34375 29.2532 6.34375 29.2813C6.34375 29.3094 6.31563 29.35 6.28125 29.375C6.24687 29.4 6.21875 29.4407 6.21875 29.4688C6.21875 29.4969 6.19063 29.5375 6.15625 29.5625C6.12187 29.5875 6.09375 29.6219 6.09375 29.6407C6.09375 29.6563 6.05 29.7219 6 29.7813C5.95 29.8407 5.90625 29.9094 5.90625 29.9282C5.90625 29.95 5.89375 29.9688 5.88125 29.9688C5.86562 29.9688 5.83438 30.0063 5.80938 30.0532C5.78438 30.1032 5.74063 30.1688 5.7125 30.2C5.68125 30.2344 5.65625 30.2782 5.65625 30.2969C5.65625 30.3157 5.62813 30.35 5.59375 30.375C5.55937 30.4 5.53125 30.4407 5.53125 30.4688C5.53125 30.4969 5.50313 30.5375 5.46875 30.5625C5.43437 30.5875 5.40625 30.6282 5.40625 30.6563C5.40625 30.6844 5.37813 30.725 5.34375 30.75C5.30937 30.775 5.28125 30.8157 5.28125 30.8438C5.28125 30.8719 5.25313 30.9125 5.21875 30.9375C5.18437 30.9625 5.15625 31.0063 5.15625 31.0375C5.15625 31.0688 5.14375 31.0938 5.125 31.0938C5.07812 31.0938 5.0875 31.1844 5.1375 31.2375C5.1625 31.2625 5.20312 31.2813 5.225 31.2813C5.25 31.2813 5.2875 31.3094 5.3125 31.3438C5.3375 31.3782 5.37813 31.4063 5.40313 31.4063C5.425 31.4063 5.46875 31.4313 5.49688 31.4625C5.525 31.4907 5.58438 31.5344 5.63438 31.5594C5.68125 31.5844 5.71875 31.6157 5.71875 31.6313C5.71875 31.6438 5.7375 31.6563 5.75938 31.6563C5.77813 31.6563 5.84688 31.7 5.90625 31.75C5.96562 31.8 6.03438 31.8438 6.05625 31.8438C6.075 31.8438 6.09375 31.8563 6.09375 31.8688C6.09375 31.8844 6.13125 31.9157 6.18125 31.9407C6.22813 31.9657 6.2875 32.0094 6.31563 32.0375C6.34375 32.0688 6.3875 32.0938 6.40938 32.0938C6.43438 32.0938 6.475 32.1219 6.5 32.1563C6.525 32.1907 6.56562 32.2188 6.59375 32.2188C6.62188 32.2188 6.6625 32.2469 6.6875 32.2813C6.7125 32.3157 6.75625 32.3438 6.7875 32.3438C6.81875 32.3438 6.84375 32.3563 6.84375 32.375C6.84375 32.4407 6.95938 32.4032 7.00313 32.3188C7.02813 32.2719 7.07188 32.2063 7.10313 32.175C7.13125 32.1407 7.15625 32.0969 7.15625 32.0782C7.15625 32.0594 7.18437 32.025 7.21875 32C7.25313 31.975 7.28125 31.9344 7.28125 31.9063C7.28125 31.8782 7.30937 31.8375 7.34375 31.8125C7.37813 31.7875 7.40625 31.7469 7.40625 31.7188C7.40625 31.6907 7.43437 31.65 7.46875 31.625C7.50313 31.6 7.53125 31.5594 7.53125 31.5313C7.53125 31.5032 7.55937 31.4625 7.59375 31.4375C7.62813 31.4125 7.65625 31.3719 7.65625 31.3438C7.65625 31.3157 7.68437 31.275 7.71875 31.25C7.75313 31.225 7.78125 31.1844 7.78125 31.1563C7.78125 31.1282 7.80937 31.0875 7.84375 31.0625C7.87813 31.0375 7.90625 30.9969 7.90625 30.9719C7.90625 30.95 7.93125 30.9063 7.9625 30.8782C7.99063 30.85 8.03437 30.7907 8.05937 30.7407C8.08437 30.6938 8.11563 30.6563 8.13125 30.6563C8.14375 30.6563 8.15625 30.6375 8.15625 30.6157C8.15625 30.5969 8.2 30.5282 8.25 30.4688C8.3 30.4094 8.34375 30.3407 8.34375 30.3188C8.34375 30.3 8.35625 30.2813 8.36875 30.2813C8.38438 30.2813 8.41563 30.2438 8.44063 30.1969C8.46563 30.1469 8.50938 30.0875 8.5375 30.0594C8.56875 30.0313 8.59375 29.9875 8.59375 29.9657C8.59375 29.9407 8.62187 29.9 8.65625 29.875C8.69063 29.85 8.71875 29.8094 8.71875 29.7813C8.71875 29.7532 8.74687 29.7125 8.78125 29.6875C8.81563 29.6625 8.84375 29.6219 8.84375 29.5938C8.84375 29.5657 8.87187 29.525 8.90625 29.5C8.94063 29.475 8.96875 29.4344 8.96875 29.4063C8.96875 29.3782 8.99687 29.3375 9.03125 29.3125C9.06563 29.2875 9.09375 29.2469 9.09375 29.2188C9.09375 29.1907 9.12187 29.15 9.15625 29.125C9.19063 29.1 9.21875 29.0563 9.21875 29.025C9.21875 28.975 9.25 28.9688 9.45 28.9688C9.57812 28.9688 9.69375 28.9844 9.70312 29C9.7125 29.0188 9.81875 29.0313 9.94063 29.0313C10.0625 29.0313 10.1562 29.0438 10.1562 29.0625C10.1562 29.0813 10.3281 29.0938 10.6062 29.0938C10.875 29.0938 11.0656 29.1063 11.0781 29.125C11.1063 29.1688 20.8937 29.1688 20.9219 29.125C20.9344 29.1063 21.125 29.0938 21.3938 29.0938C21.6719 29.0938 21.8438 29.0813 21.8438 29.0625C21.8438 29.0438 21.9375 29.0313 22.0594 29.0313C22.1813 29.0313 22.2875 29.0157 22.2969 29C22.3063 28.9813 22.4219 28.9688 22.55 28.9688C22.75 28.9688 22.7812 28.975 22.7812 29.025C22.7812 29.0563 22.8094 29.1 22.8438 29.125C22.8781 29.15 22.9062 29.1907 22.9062 29.2188C22.9062 29.2469 22.9344 29.2875 22.9688 29.3125C23.0031 29.3375 23.0312 29.3782 23.0312 29.4063C23.0312 29.4344 23.0594 29.475 23.0938 29.5C23.1281 29.525 23.1562 29.5657 23.1562 29.5938C23.1562 29.6219 23.1844 29.6625 23.2188 29.6875C23.2531 29.7125 23.2812 29.7532 23.2812 29.7813C23.2812 29.8094 23.3094 29.85 23.3438 29.875C23.3781 29.9 23.4062 29.9407 23.4062 29.9657C23.4062 29.9875 23.4312 30.0313 23.4625 30.0594C23.4906 30.0875 23.5344 30.1469 23.5594 30.1969C23.5844 30.2438 23.6156 30.2813 23.6313 30.2813C23.6438 30.2813 23.6562 30.3 23.6562 30.3188C23.6562 30.3407 23.7 30.4094 23.75 30.4688C23.8 30.5282 23.8438 30.5969 23.8438 30.6157C23.8438 30.6375 23.8562 30.6563 23.8687 30.6563C23.8844 30.6563 23.9156 30.6938 23.9406 30.7407C23.9656 30.7907 24.0094 30.85 24.0375 30.8782C24.0688 30.9063 24.0938 30.95 24.0938 30.9719C24.0938 30.9969 24.1219 31.0375 24.1562 31.0625C24.1906 31.0875 24.2188 31.1282 24.2188 31.1563C24.2188 31.1844 24.2469 31.225 24.2812 31.25C24.3156 31.275 24.3438 31.3157 24.3438 31.3438C24.3438 31.3719 24.3719 31.4125 24.4062 31.4375C24.4406 31.4625 24.4688 31.5032 24.4688 31.5313C24.4688 31.5594 24.4969 31.6 24.5312 31.625C24.5656 31.65 24.5938 31.6907 24.5938 31.7188C24.5938 31.7469 24.6219 31.7875 24.6562 31.8125C24.6906 31.8375 24.7188 31.8782 24.7188 31.9063C24.7188 31.9344 24.7469 31.975 24.7812 32C24.8156 32.025 24.8438 32.0594 24.8438 32.0782C24.8438 32.0969 24.8687 32.1407 24.9 32.175C24.9281 32.2063 24.9719 32.2719 24.9969 32.3188C25.0406 32.4032 25.1562 32.4407 25.1562 32.375C25.1562 32.3563 25.1812 32.3438 25.2125 32.3438C25.2437 32.3438 25.2875 32.3157 25.3125 32.2813C25.3375 32.2469 25.3781 32.2188 25.4062 32.2188C25.4344 32.2188 25.475 32.1907 25.5 32.1563C25.525 32.1219 25.5656 32.0938 25.5906 32.0938C25.6125 32.0938 25.6563 32.0688 25.6844 32.0375C25.7125 32.0094 25.7719 31.9657 25.8219 31.9407C25.8687 31.9157 25.9062 31.8844 25.9062 31.8688C25.9062 31.8563 25.925 31.8438 25.9469 31.8438C25.9656 31.8438 26.0344 31.8 26.0938 31.75C26.1531 31.7 26.2219 31.6563 26.2437 31.6563C26.2625 31.6563 26.2812 31.6438 26.2812 31.6313C26.2812 31.6157 26.3187 31.5844 26.3687 31.5594C26.4156 31.5344 26.475 31.4907 26.5031 31.4625C26.5313 31.4313 26.575 31.4063 26.5969 31.4063C26.6219 31.4063 26.6625 31.3782 26.6875 31.3438C26.7125 31.3094 26.75 31.2813 26.775 31.2813C26.7969 31.2813 26.8375 31.2625 26.8625 31.2375C26.9125 31.1844 26.9219 31.0938 26.875 31.0938C26.8594 31.0938 26.8438 31.0688 26.8438 31.0375C26.8438 31.0063 26.8156 30.9625 26.7812 30.9375C26.7469 30.9125 26.7188 30.8719 26.7188 30.8438C26.7188 30.8157 26.6906 30.775 26.6562 30.75C26.6219 30.725 26.5938 30.6844 26.5938 30.6563C26.5938 30.6282 26.5656 30.5875 26.5312 30.5625C26.4969 30.5375 26.4688 30.4969 26.4688 30.4688C26.4688 30.4407 26.4406 30.4 26.4062 30.375C26.3719 30.35 26.3438 30.3157 26.3438 30.2969C26.3438 30.2782 26.3187 30.2344 26.2906 30.2C26.2594 30.1688 26.2156 30.1032 26.1906 30.0532C26.1656 30.0063 26.1344 29.9688 26.1187 29.9688C26.1062 29.9688 26.0938 29.95 26.0938 29.9282C26.0938 29.9094 26.05 29.8407 26 29.7813C25.95 29.7219 25.9062 29.6563 25.9062 29.6407C25.9062 29.6219 25.8781 29.5875 25.8438 29.5625C25.8094 29.5375 25.7812 29.4969 25.7812 29.4688C25.7812 29.4407 25.7531 29.4 25.7188 29.375C25.6844 29.35 25.6562 29.3094 25.6562 29.2813C25.6562 29.2532 25.6281 29.2125 25.5938 29.1875C25.5594 29.1625 25.5312 29.1219 25.5312 29.0938C25.5312 29.0657 25.5031 29.025 25.4688 29C25.4344 28.975 25.4062 28.9344 25.4062 28.9063C25.4062 28.8782 25.3781 28.8375 25.3438 28.8125C25.3094 28.7875 25.2812 28.7469 25.2812 28.7188C25.2812 28.6907 25.2531 28.65 25.2188 28.625C25.1844 28.6 25.1562 28.5594 25.1562 28.5344C25.1562 28.5125 25.1313 28.4688 25.1 28.4407C25.0188 28.3688 24.9906 28.2813 25.0469 28.2813C25.0719 28.2813 25.0938 28.2657 25.0938 28.25C25.0938 28.2313 25.1156 28.2188 25.1406 28.2188C25.1656 28.2188 25.2156 28.2063 25.25 28.1875C25.2844 28.1719 25.3406 28.1407 25.375 28.125C25.4094 28.1063 25.4594 28.0938 25.4844 28.0938C25.5094 28.0938 25.5312 28.0782 25.5312 28.0625C25.5312 28.0438 25.5594 28.0313 25.5938 28.0313C25.6281 28.0313 25.6562 28.0157 25.6562 28C25.6562 27.9813 25.6844 27.9688 25.7188 27.9688C25.7531 27.9688 25.7812 27.9532 25.7812 27.9375C25.7812 27.9188 25.8094 27.9063 25.8438 27.9063C25.8781 27.9063 25.9062 27.8907 25.9062 27.875C25.9062 27.8563 25.9312 27.8438 25.9625 27.8438C25.9937 27.8438 26.0375 27.8157 26.0625 27.7813C26.0875 27.7469 26.1313 27.7188 26.1625 27.7188C26.1938 27.7188 26.2188 27.7032 26.2188 27.6875C26.2188 27.6688 26.2437 27.6563 26.275 27.6563C26.3062 27.6563 26.35 27.6282 26.375 27.5938C26.4 27.5594 26.4406 27.5313 26.4688 27.5313C26.4969 27.5313 26.5375 27.5032 26.5625 27.4688C26.5875 27.4344 26.6281 27.4063 26.6562 27.4063C26.6844 27.4063 26.725 27.3782 26.75 27.3438C26.775 27.3094 26.8125 27.2813 26.8313 27.2813C26.85 27.2813 26.925 27.225 26.9969 27.1563C27.0656 27.0875 27.1375 27.0313 27.1562 27.0313C27.1969 27.0313 28.2812 25.9469 28.2812 25.9063C28.2812 25.8844 28.3375 25.8157 28.4062 25.75C28.475 25.6844 28.5312 25.6094 28.5312 25.5875C28.5312 25.5657 28.5594 25.525 28.5938 25.5C28.6281 25.475 28.6562 25.4407 28.6562 25.4219C28.6562 25.4063 28.7 25.3407 28.75 25.2813C28.8 25.2219 28.8438 25.1532 28.8438 25.1313C28.8438 25.1125 28.8594 25.0938 28.875 25.0938C28.8938 25.0938 28.9062 25.0688 28.9062 25.0375C28.9062 25.0063 28.9344 24.9625 28.9688 24.9375C29.0031 24.9125 29.0312 24.8688 29.0312 24.8375C29.0312 24.8063 29.0469 24.7813 29.0625 24.7813C29.0813 24.7813 29.0938 24.7594 29.0938 24.7344C29.0938 24.7063 29.1219 24.6563 29.1562 24.6188C29.1906 24.5813 29.2188 24.5313 29.2188 24.5094C29.2188 24.4875 29.2344 24.4688 29.25 24.4688C29.2688 24.4688 29.2812 24.4407 29.2812 24.4063C29.2812 24.3719 29.2969 24.3438 29.3125 24.3438C29.3313 24.3438 29.3438 24.3157 29.3438 24.2813C29.3438 24.2469 29.3594 24.2188 29.375 24.2188C29.3938 24.2188 29.4062 24.1907 29.4062 24.1563C29.4062 24.1219 29.4219 24.0938 29.4375 24.0938C29.4563 24.0938 29.4688 24.0657 29.4688 24.0344C29.4688 24 29.4844 23.9625 29.5 23.9532C29.5156 23.9438 29.5312 23.9 29.5312 23.8563C29.5312 23.8157 29.5469 23.7813 29.5625 23.7813C29.5813 23.7813 29.5938 23.7532 29.5938 23.7188C29.5938 23.6844 29.6094 23.6563 29.625 23.6563C29.6438 23.6563 29.6562 23.6282 29.6562 23.5938C29.6562 23.5594 29.6719 23.5313 29.6875 23.5313C29.7063 23.5313 29.7188 23.4875 29.7188 23.4375C29.7188 23.3844 29.7344 23.3438 29.75 23.3438C29.7688 23.3438 29.7812 23.3 29.7812 23.25C29.7812 23.1969 29.7969 23.1563 29.8125 23.1563C29.8313 23.1563 29.8438 23.1282 29.8438 23.0969C29.8438 23.0625 29.8594 23.025 29.875 23.0157C29.8938 23.0063 29.9062 22.9625 29.9062 22.9219C29.9062 22.8813 29.9219 22.8375 29.9375 22.8282C29.9563 22.8188 29.9688 22.7594 29.9688 22.7C29.9688 22.6407 29.9844 22.5938 30 22.5938C30.0188 22.5938 30.0312 22.55 30.0312 22.5C30.0312 22.4469 30.0469 22.4063 30.0625 22.4063C30.0813 22.4063 30.0938 22.35 30.0938 22.2813C30.0938 22.2125 30.1094 22.1563 30.125 22.1563C30.1438 22.1563 30.1562 22.1 30.1562 22.0313C30.1562 21.9625 30.1719 21.9063 30.1875 21.9063C30.2063 21.9063 30.2188 21.85 30.2188 21.7844C30.2188 21.7157 30.2312 21.65 30.25 21.6407C30.2656 21.6313 30.2812 21.5438 30.2812 21.45C30.2812 21.3563 30.2969 21.2813 30.3125 21.2813C30.3313 21.2813 30.3438 21.2125 30.3438 21.1282C30.3438 21.0407 30.3594 20.9625 30.375 20.9532C30.3938 20.9438 30.4062 20.8375 30.4062 20.7188C30.4062 20.6 30.4219 20.4938 30.4375 20.4844C30.4531 20.475 30.4688 20.3532 30.4688 20.2188C30.4688 20.0844 30.4844 19.9625 30.5 19.9532C30.5188 19.9438 30.5312 19.7907 30.5312 19.6063V19.2813H31.2656H32V18.1875V17.0938H17.8281H3.65625V10.7188C3.65625 6.49065 3.66563 4.34377 3.6875 4.34377C3.70625 4.34377 3.71875 4.30002 3.71875 4.25002C3.71875 4.1969 3.73438 4.15627 3.75 4.15627C3.76875 4.15627 3.78125 4.1219 3.78125 4.07815C3.78125 4.0344 3.80937 3.96877 3.84375 3.93127C3.87813 3.89377 3.90625 3.84377 3.90625 3.8219C3.90625 3.80002 3.92188 3.78127 3.9375 3.78127C3.95625 3.78127 3.96875 3.7594 3.96875 3.73128C3.96875 3.70315 4.00625 3.64377 4.05625 3.5969C4.10313 3.55002 4.15625 3.48752 4.175 3.45315C4.19375 3.4219 4.23438 3.38127 4.26562 3.36252C4.3 3.34377 4.3625 3.29065 4.40938 3.24065C4.45625 3.19378 4.51563 3.15627 4.54375 3.15627C4.57188 3.15627 4.59375 3.14065 4.59375 3.12502C4.59375 3.10627 4.6125 3.09377 4.63438 3.09377C4.65625 3.09377 4.70625 3.06565 4.74375 3.03127C4.78125 2.9969 4.84688 2.96877 4.89062 2.96877C4.93437 2.96877 4.96875 2.95315 4.96875 2.93752C4.96875 2.91877 5.00938 2.90627 5.05938 2.90627C5.1125 2.90627 5.1625 2.89065 5.17188 2.87502C5.18438 2.85627 5.35 2.84377 5.5625 2.84377C5.775 2.84377 5.94062 2.85627 5.95312 2.87502C5.9625 2.89065 6.0125 2.90627 6.06563 2.90627C6.11563 2.90627 6.15625 2.91877 6.15625 2.93752C6.15625 2.95315 6.19063 2.96877 6.23125 2.96877C6.275 2.96877 6.31875 2.98127 6.32812 3.00002C6.3375 3.01565 6.37188 3.03127 6.4 3.03127C6.43125 3.03127 6.475 3.0594 6.5 3.09377C6.525 3.12815 6.5625 3.15627 6.5875 3.15627C6.60938 3.15627 6.6625 3.19065 6.70312 3.23128C6.74687 3.27503 6.82188 3.33127 6.87188 3.36252C6.92188 3.39377 6.98125 3.45315 7.00625 3.4969C7.02812 3.54065 7.08437 3.61565 7.13125 3.66253C7.18125 3.70628 7.21875 3.76565 7.21875 3.79378C7.21875 3.8219 7.23438 3.84377 7.25 3.84377C7.26875 3.84377 7.28125 3.8719 7.28125 3.90627C7.28125 3.94065 7.29688 3.96877 7.3125 3.96877C7.33125 3.96877 7.34375 4.0094 7.34375 4.06252C7.34375 4.11252 7.35938 4.15627 7.375 4.15627C7.39375 4.15627 7.40625 4.17815 7.40625 4.20627C7.40625 4.26252 7.33438 4.34377 7.28438 4.34377C7.26563 4.34377 7.20625 4.3844 7.15 4.43752C7.09688 4.48752 7.04063 4.53127 7.025 4.53127C6.9875 4.53127 6.28125 5.24378 6.28125 5.2844C6.28125 5.30315 6.24063 5.3594 6.1875 5.40627C6.1375 5.45315 6.09375 5.5094 6.09375 5.52815C6.09375 5.55003 6.06563 5.59378 6.03125 5.63128C5.99687 5.66878 5.96875 5.71878 5.96875 5.74065C5.96875 5.76253 5.95625 5.78127 5.9375 5.78127C5.92188 5.78127 5.90625 5.8094 5.90625 5.84377C5.90625 5.87815 5.89375 5.90627 5.875 5.90627C5.85938 5.90627 5.84375 5.9344 5.84375 5.96877C5.84375 6.00315 5.83125 6.03127 5.8125 6.03127C5.79688 6.03127 5.78125 6.0594 5.78125 6.09377C5.78125 6.12815 5.76875 6.15627 5.75 6.15627C5.73438 6.15627 5.71875 6.1844 5.71875 6.21877C5.71875 6.25315 5.70625 6.28127 5.6875 6.28127C5.67188 6.28127 5.65625 6.3094 5.65625 6.34065C5.65625 6.37503 5.64375 6.41252 5.625 6.4219C5.60938 6.43127 5.59375 6.47503 5.59375 6.51878C5.59375 6.5594 5.58125 6.59377 5.5625 6.59377C5.54688 6.59377 5.53125 6.6344 5.53125 6.6844C5.53125 6.73753 5.51875 6.78752 5.5 6.7969C5.48438 6.80627 5.46875 6.86565 5.46875 6.92503C5.46875 6.9844 5.45625 7.03127 5.4375 7.03127C5.42188 7.03127 5.40625 7.10002 5.40625 7.18752C5.40625 7.2719 5.39375 7.34377 5.37813 7.34377C5.3625 7.34377 5.34063 7.48753 5.33125 7.66253C5.32188 7.84065 5.30625 8.06565 5.29375 8.16878C5.28125 8.2844 5.2875 8.36252 5.30938 8.3844C5.32813 8.40315 5.34375 8.52815 5.34375 8.6594C5.34375 8.79378 5.35938 8.91252 5.375 8.9219C5.39375 8.93127 5.40625 9.0094 5.40625 9.09377C5.40625 9.17815 5.42188 9.25627 5.4375 9.26565C5.45625 9.27502 5.46875 9.32503 5.46875 9.37815C5.46875 9.42815 5.48438 9.46877 5.5 9.46877C5.51875 9.46877 5.53125 9.5094 5.53125 9.56252C5.53125 9.61252 5.54688 9.65627 5.5625 9.65627C5.58125 9.65627 5.59375 9.6969 5.59375 9.75002C5.59375 9.80002 5.60938 9.84377 5.625 9.84377C5.64375 9.84377 5.65625 9.8719 5.65625 9.90627C5.65625 9.94065 5.67188 9.96877 5.6875 9.96877C5.70625 9.96877 5.71875 10.0094 5.71875 10.0625C5.71875 10.1125 5.73438 10.1563 5.75 10.1563C5.76875 10.1563 5.78125 10.1844 5.78125 10.2188C5.78125 10.2531 5.79688 10.2813 5.8125 10.2813C5.83125 10.2813 5.84375 10.3094 5.84375 10.3438C5.84375 10.3781 5.85938 10.4063 5.875 10.4063C5.89375 10.4063 5.90625 10.4344 5.90625 10.4688C5.90625 10.5031 5.92188 10.5313 5.9375 10.5313C5.95625 10.5313 5.96875 10.5594 5.96875 10.5938C5.96875 10.6281 5.98438 10.6563 6 10.6563C6.01875 10.6563 6.03125 10.6844 6.03125 10.7188C6.03125 10.7531 6.04688 10.7813 6.0625 10.7813C6.08125 10.7813 6.09375 10.8125 6.09375 10.85C6.09688 10.9657 6.16875 11.0313 6.29375 11.0313C6.35625 11.0313 6.40625 11.0156 6.40625 11C6.40625 10.9813 6.43437 10.9688 6.46875 10.9688C6.50313 10.9688 6.53125 10.9531 6.53125 10.9375C6.53125 10.9188 6.55937 10.9063 6.59375 10.9063C6.62813 10.9063 6.65625 10.8906 6.65625 10.875C6.65625 10.8563 6.67812 10.8438 6.70312 10.8438C6.72813 10.8438 6.78125 10.8282 6.82188 10.8063C6.96875 10.7313 7 10.7188 7.04688 10.7188C7.07188 10.7188 7.09375 10.7031 7.09375 10.6875C7.09375 10.6688 7.12187 10.6563 7.15625 10.6563C7.19063 10.6563 7.21875 10.6406 7.21875 10.625C7.21875 10.6063 7.24687 10.5938 7.28125 10.5938C7.31563 10.5938 7.34375 10.5781 7.34375 10.5625C7.34375 10.5438 7.37187 10.5313 7.40625 10.5313C7.44063 10.5313 7.46875 10.5156 7.46875 10.5C7.46875 10.4813 7.49687 10.4688 7.53125 10.4688C7.56563 10.4688 7.59375 10.4531 7.59375 10.4375C7.59375 10.4188 7.62813 10.4063 7.66875 10.4063C7.7125 10.4063 7.75625 10.3906 7.76562 10.375C7.775 10.3563 7.8125 10.3438 7.84688 10.3438C7.87813 10.3438 7.90625 10.3281 7.90625 10.3125C7.90625 10.2938 7.93437 10.2813 7.96875 10.2813C8.00313 10.2813 8.03125 10.2656 8.03125 10.25C8.03125 10.2313 8.05937 10.2188 8.09375 10.2188C8.12813 10.2188 8.15625 10.2031 8.15625 10.1875C8.15625 10.1688 8.18437 10.1563 8.21875 10.1563C8.25313 10.1563 8.28125 10.1406 8.28125 10.125C8.28125 10.1063 8.30937 10.0938 8.34375 10.0938C8.37813 10.0938 8.40625 10.0781 8.40625 10.0625C8.40625 10.0438 8.43437 10.0313 8.46875 10.0313C8.50313 10.0313 8.53125 10.0156 8.53125 10C8.53125 9.98127 8.56562 9.96877 8.60625 9.96877C8.65 9.96877 8.69375 9.95315 8.70312 9.93752C8.7125 9.91877 8.75 9.90627 8.78438 9.90627C8.81563 9.90627 8.84375 9.89065 8.84375 9.87502C8.84375 9.85627 8.87187 9.84377 8.90625 9.84377C8.94063 9.84377 8.96875 9.82815 8.96875 9.81252C8.96875 9.79377 8.99687 9.78127 9.03125 9.78127C9.06563 9.78127 9.09375 9.76565 9.09375 9.75002C9.09375 9.73127 9.12187 9.71877 9.15625 9.71877C9.19063 9.71877 9.21875 9.70315 9.21875 9.68752C9.21875 9.66877 9.24687 9.65627 9.28125 9.65627C9.31563 9.65627 9.34375 9.64065 9.34375 9.62502C9.34375 9.60627 9.37187 9.59377 9.40625 9.59377C9.44063 9.59377 9.46875 9.57815 9.46875 9.56252C9.46875 9.54377 9.50312 9.53127 9.54375 9.53127C9.5875 9.53127 9.63125 9.51565 9.64062 9.50002C9.65 9.48127 9.6875 9.46877 9.72188 9.46877C9.75313 9.46877 9.78125 9.45315 9.78125 9.43752C9.78125 9.41877 9.80937 9.40627 9.84375 9.40627C9.87813 9.40627 9.90625 9.39065 9.90625 9.37502C9.90625 9.35627 9.93437 9.34377 9.96875 9.34377C10.0031 9.34377 10.0312 9.32815 10.0312 9.31252C10.0312 9.29377 10.0594 9.28127 10.0938 9.28127C10.1281 9.28127 10.1562 9.26565 10.1562 9.25002C10.1562 9.23127 10.1844 9.21877 10.2188 9.21877C10.2531 9.21877 10.2812 9.20315 10.2812 9.18752C10.2812 9.16877 10.3094 9.15627 10.3438 9.15627C10.3781 9.15627 10.4062 9.14065 10.4062 9.12502C10.4062 9.10627 10.4406 9.09377 10.4812 9.09377C10.525 9.09377 10.5687 9.07815 10.5781 9.06252C10.5875 9.04377 10.625 9.03127 10.6594 9.03127C10.6906 9.03127 10.7188 9.01565 10.7188 9.00002C10.7188 8.98127 10.7469 8.96877 10.7812 8.96877C10.8156 8.96877 10.8438 8.95315 10.8438 8.93752C10.8438 8.91877 10.8719 8.90627 10.9062 8.90627C10.9406 8.90627 10.9688 8.89065 10.9688 8.87502C10.9688 8.85627 10.9969 8.84377 11.0312 8.84377C11.0656 8.84377 11.0938 8.82815 11.0938 8.81252C11.0938 8.79377 11.1219 8.78127 11.1562 8.78127C11.1906 8.78127 11.2188 8.76565 11.2188 8.75002C11.2188 8.73127 11.2469 8.71877 11.2812 8.71877C11.3156 8.71877 11.3438 8.70315 11.3438 8.68752C11.3438 8.66877 11.3781 8.65627 11.4187 8.65627C11.4625 8.65627 11.5062 8.64065 11.5156 8.62502C11.525 8.60627 11.5625 8.59377 11.5969 8.59377C11.6281 8.59377 11.6562 8.57815 11.6562 8.56252C11.6562 8.54377 11.6844 8.53127 11.7188 8.53127C11.7531 8.53127 11.7812 8.51565 11.7812 8.50002C11.7812 8.48127 11.8094 8.46877 11.8438 8.46877C11.8781 8.46877 11.9062 8.45315 11.9062 8.43752C11.9062 8.41877 11.9344 8.40627 11.9688 8.40627C12.0031 8.40627 12.0312 8.39065 12.0312 8.37502C12.0312 8.35627 12.0594 8.34377 12.0938 8.34377C12.1281 8.34377 12.1562 8.32815 12.1562 8.31252C12.1562 8.29377 12.1844 8.28127 12.2188 8.28127C12.2531 8.28127 12.2812 8.26565 12.2812 8.25002C12.2812 8.23127 12.3156 8.21877 12.3562 8.21877C12.4 8.21877 12.4437 8.20315 12.4531 8.18752C12.4625 8.16877 12.5 8.15627 12.5344 8.15627C12.5656 8.15627 12.5938 8.14065 12.5938 8.12502C12.5938 8.10627 12.6219 8.09377 12.6562 8.09377C12.6906 8.09377 12.7188 8.07815 12.7188 8.06252C12.7188 8.04377 12.7469 8.03127 12.7812 8.03127C12.8156 8.03127 12.8438 8.01565 12.8438 8.00002C12.8438 7.98127 12.8719 7.96877 12.9062 7.96877C12.9406 7.96877 12.9688 7.95315 12.9688 7.93752C12.9688 7.91877 12.9969 7.90627 13.0312 7.90627C13.0656 7.90627 13.0938 7.89065 13.0938 7.87502C13.0938 7.85627 13.1219 7.84377 13.1562 7.84377C13.1906 7.84377 13.2188 7.82815 13.2188 7.81252C13.2188 7.79377 13.2531 7.78127 13.2937 7.78127C13.3375 7.78127 13.3812 7.76565 13.3906 7.75002C13.4 7.73127 13.4375 7.71877 13.4719 7.71877C13.5031 7.71877 13.5312 7.70315 13.5312 7.68752C13.5312 7.66877 13.5594 7.65627 13.5938 7.65627C13.6281 7.65627 13.6562 7.64065 13.6562 7.62502C13.6562 7.60627 13.6844 7.59377 13.7188 7.59377C13.7531 7.59377 13.7812 7.57815 13.7812 7.56252C13.7812 7.54377 13.8094 7.53127 13.8438 7.53127C13.8781 7.53127 13.9062 7.51565 13.9062 7.50002C13.9062 7.48127 13.9344 7.46877 13.9688 7.46877C14.0031 7.46877 14.0312 7.45315 14.0312 7.43752C14.0312 7.41877 14.0594 7.40627 14.0938 7.40627C14.1281 7.40627 14.1562 7.39065 14.1562 7.37502C14.1562 7.35627 14.1906 7.34377 14.2312 7.34377C14.275 7.34377 14.3187 7.32815 14.3281 7.31252C14.3375 7.29377 14.3688 7.28127 14.3938 7.28127C14.4219 7.28127 14.4625 7.26253 14.4875 7.23753C14.5375 7.1844 14.5469 7.09377 14.5 7.09377C14.4844 7.09377 14.4688 7.06565 14.4688 7.03127C14.4688 6.9969 14.4563 6.96877 14.4375 6.96877C14.4219 6.96877 14.4062 6.94065 14.4062 6.90627C14.4062 6.8719 14.3938 6.84377 14.375 6.84377C14.3594 6.84377 14.3438 6.8094 14.3438 6.76878C14.3438 6.72503 14.3313 6.68127 14.3125 6.6719C14.2969 6.66252 14.2812 6.62503 14.2812 6.59065C14.2812 6.5594 14.2688 6.53127 14.25 6.53127C14.2344 6.53127 14.2188 6.50315 14.2188 6.46877C14.2188 6.4344 14.2063 6.40627 14.1875 6.40627C14.1719 6.40627 14.1562 6.37815 14.1562 6.34377C14.1562 6.3094 14.1438 6.28127 14.125 6.28127C14.1094 6.28127 14.0938 6.25315 14.0938 6.21877C14.0938 6.1844 14.0813 6.15627 14.0625 6.15627C14.0469 6.15627 14.0312 6.12815 14.0312 6.09377C14.0312 6.0594 14.0188 6.03127 14 6.03127C13.9844 6.03127 13.9688 6.00315 13.9688 5.96877C13.9688 5.9344 13.9563 5.90627 13.9375 5.90627C13.9219 5.90627 13.9062 5.88128 13.9062 5.85003C13.9062 5.81878 13.8781 5.77502 13.8438 5.75002C13.8094 5.72502 13.7812 5.68127 13.7812 5.65002C13.7812 5.61877 13.7688 5.59377 13.7563 5.59377C13.7406 5.59377 13.7094 5.55627 13.6844 5.5094C13.6594 5.46252 13.6031 5.38128 13.5563 5.33128C13.5063 5.28128 13.4688 5.22815 13.4688 5.21252C13.4688 5.17502 12.8156 4.53127 12.775 4.53127C12.7594 4.53127 12.7031 4.48752 12.6562 4.43752C12.6094 4.3844 12.55 4.34377 12.525 4.34377C12.5031 4.34377 12.4625 4.31565 12.4375 4.28127C12.4125 4.2469 12.3688 4.21877 12.3375 4.21877C12.3063 4.21877 12.2812 4.20315 12.2812 4.18752C12.2812 4.16877 12.2531 4.15627 12.2188 4.15627C12.1844 4.15627 12.1562 4.14065 12.1562 4.12502C12.1562 4.10627 12.1344 4.09377 12.1094 4.09377C12.0812 4.09377 12.0313 4.06565 11.9938 4.03127C11.9563 3.9969 11.8938 3.96877 11.8531 3.96877C11.8125 3.96877 11.7812 3.95315 11.7812 3.93752C11.7812 3.91877 11.7531 3.90627 11.7188 3.90627C11.6844 3.90627 11.6562 3.89065 11.6562 3.87502C11.6562 3.85627 11.6219 3.84377 11.5813 3.84377C11.5375 3.84377 11.4938 3.82815 11.4844 3.81252C11.475 3.79377 11.425 3.78127 11.3719 3.78127C11.3219 3.78127 11.2812 3.76565 11.2812 3.75002C11.2812 3.73127 11.2406 3.71877 11.1875 3.71877C11.1375 3.71877 11.0938 3.70315 11.0938 3.68752C11.0938 3.66877 11.025 3.65627 10.9375 3.65627C10.8531 3.65627 10.7812 3.64065 10.7812 3.62502C10.7812 3.60627 10.6875 3.59377 10.5625 3.59377C10.4375 3.59377 10.3438 3.58127 10.3438 3.56252C10.3438 3.54377 10.1906 3.53127 9.95 3.53127C9.525 3.53127 9.46875 3.51252 9.46875 3.36252C9.46875 3.31877 9.45625 3.28127 9.4375 3.28127C9.42188 3.28127 9.40625 3.2469 9.40625 3.20627C9.40625 3.16252 9.39375 3.11877 9.375 3.1094C9.35938 3.10002 9.34375 3.06253 9.34375 3.02815C9.34375 2.9969 9.33125 2.96877 9.3125 2.96877C9.29688 2.96877 9.28125 2.94065 9.28125 2.90627C9.28125 2.8719 9.26875 2.84377 9.25 2.84377C9.23438 2.84377 9.21875 2.81878 9.21875 2.78753C9.21875 2.75628 9.19063 2.71252 9.15625 2.68752C9.12187 2.66252 9.09375 2.61877 9.09375 2.58752C9.09375 2.55627 9.08125 2.53127 9.0625 2.53127C9.04688 2.53127 9.03125 2.5094 9.03125 2.48128C9.03125 2.45315 8.99063 2.39065 8.9375 2.34377C8.8875 2.2969 8.84375 2.24065 8.84375 2.21877C8.84375 2.20002 8.7875 2.12815 8.71875 2.06252C8.65 1.9969 8.59375 1.92815 8.59375 1.90627C8.59375 1.88752 8.57188 1.86252 8.54063 1.85315C8.5125 1.84065 8.39375 1.73752 8.275 1.61877C8.15625 1.50315 8.0375 1.40627 8.0125 1.40627C7.9875 1.40627 7.96875 1.39065 7.96875 1.37502C7.96875 1.35627 7.95 1.34377 7.92812 1.34377C7.90625 1.34377 7.85625 1.31565 7.81875 1.28127C7.78125 1.2469 7.73438 1.21877 7.7125 1.21877C7.6875 1.21877 7.65 1.19065 7.625 1.15627C7.6 1.1219 7.55625 1.09377 7.525 1.09377C7.49375 1.09377 7.46875 1.07815 7.46875 1.06252C7.46875 1.04377 7.44063 1.03127 7.40938 1.03127C7.375 1.03127 7.3375 1.01565 7.32812 1.00002C7.31875 0.981275 7.275 0.968775 7.23125 0.968775C7.19063 0.968775 7.15625 0.95315 7.15625 0.937525C7.15625 0.918775 7.12813 0.906275 7.09375 0.906275C7.05937 0.906275 7.03125 0.89065 7.03125 0.875025C7.03125 0.856275 6.99063 0.843775 6.9375 0.843775C6.8875 0.843775 6.84375 0.82815 6.84375 0.812525C6.84375 0.793775 6.7875 0.781275 6.71875 0.781275C6.65 0.781275 6.59375 0.76565 6.59375 0.750025C6.59375 0.731275 6.5375 0.718775 6.46875 0.718775C6.4 0.718775 6.34375 0.70315 6.34375 0.687525C6.34375 0.668775 6.21875 0.656275 6.03125 0.656275C5.84375 0.656275 5.71875 0.643775 5.71875 0.625025C5.71875 0.606275 5.6375 0.593775 5.53438 0.593775C5.43125 0.593775 5.3375 0.606275 5.32812 0.625025ZM10.3594 5.81252C10.3688 5.82815 10.4281 5.84377 10.4875 5.84377C10.5469 5.84377 10.5938 5.85627 10.5938 5.87502C10.5938 5.89065 10.6375 5.90627 10.6875 5.90627C10.7406 5.90627 10.7812 5.91877 10.7812 5.93752C10.7812 5.95315 10.8094 5.96877 10.8438 5.96877C10.8781 5.96877 10.9062 5.98127 10.9062 6.00002C10.9062 6.01565 10.9344 6.03127 10.9688 6.03127C11.0031 6.03127 11.0312 6.04377 11.0312 6.06252C11.0312 6.07815 11.0531 6.09377 11.0781 6.09377C11.125 6.09377 11.2812 6.22502 11.2812 6.26565C11.2812 6.27502 11.2531 6.28127 11.2188 6.28127C11.1844 6.28127 11.1562 6.29377 11.1562 6.31252C11.1562 6.32815 11.1281 6.34377 11.0938 6.34377C11.0594 6.34377 11.0312 6.35627 11.0312 6.37502C11.0312 6.39065 11.0031 6.40627 10.9688 6.40627C10.9344 6.40627 10.9062 6.41877 10.9062 6.43752C10.9062 6.45315 10.8781 6.46877 10.8438 6.46877C10.8094 6.46877 10.7812 6.48127 10.7812 6.50002C10.7812 6.51565 10.7469 6.53127 10.7063 6.53127C10.6625 6.53127 10.6188 6.54377 10.6094 6.56252C10.6 6.57815 10.5625 6.59377 10.5281 6.59377C10.4969 6.59377 10.4688 6.60627 10.4688 6.62502C10.4688 6.64065 10.4406 6.65627 10.4062 6.65627C10.3719 6.65627 10.3438 6.66877 10.3438 6.68752C10.3438 6.70315 10.3156 6.71877 10.2812 6.71877C10.2469 6.71877 10.2188 6.73127 10.2188 6.75002C10.2188 6.76565 10.1906 6.78127 10.1562 6.78127C10.1219 6.78127 10.0938 6.79377 10.0938 6.81252C10.0938 6.82815 10.0656 6.84377 10.0312 6.84377C9.99687 6.84377 9.96875 6.85627 9.96875 6.87502C9.96875 6.89065 9.94688 6.90627 9.92188 6.90627C9.89687 6.90627 9.84688 6.91877 9.8125 6.93752C9.77812 6.95315 9.72188 6.98127 9.6875 7.00002C9.65312 7.01565 9.60313 7.03127 9.57812 7.03127C9.55312 7.03127 9.53125 7.04377 9.53125 7.06252C9.53125 7.07815 9.50313 7.09377 9.46875 7.09377C9.43437 7.09377 9.40625 7.10627 9.40625 7.12502C9.40625 7.14065 9.37813 7.15627 9.34375 7.15627C9.30937 7.15627 9.28125 7.16877 9.28125 7.18752C9.28125 7.20315 9.25313 7.21877 9.21875 7.21877C9.18437 7.21877 9.15625 7.23127 9.15625 7.25002C9.15625 7.26565 9.12813 7.28127 9.09375 7.28127C9.05937 7.28127 9.03125 7.29377 9.03125 7.31252C9.03125 7.32815 9.00938 7.34377 8.98438 7.34377C8.9375 7.34377 8.90625 7.35627 8.75938 7.43127C8.71875 7.45315 8.66563 7.46877 8.64062 7.46877C8.61562 7.46877 8.59375 7.48127 8.59375 7.50002C8.59375 7.51565 8.56563 7.53127 8.53125 7.53127C8.49687 7.53127 8.46875 7.54377 8.46875 7.56252C8.46875 7.57815 8.44063 7.59377 8.40625 7.59377C8.37187 7.59377 8.34375 7.60627 8.34375 7.62502C8.34375 7.64065 8.31563 7.65627 8.28125 7.65627C8.24687 7.65627 8.21875 7.66877 8.21875 7.68752C8.21875 7.70315 8.19063 7.71877 8.15625 7.71877C8.12187 7.71877 8.09375 7.73127 8.09375 7.75002C8.09375 7.76565 8.07188 7.78127 8.04688 7.78127C8.02187 7.78127 7.96875 7.7969 7.92812 7.81878C7.78125 7.89378 7.75 7.90627 7.70312 7.90627C7.67812 7.90627 7.65625 7.91877 7.65625 7.93752C7.65625 7.95315 7.62813 7.96877 7.59375 7.96877C7.54062 7.96877 7.53125 7.9469 7.53125 7.84377C7.53125 7.77502 7.54688 7.71877 7.5625 7.71877C7.58125 7.71877 7.59375 7.67815 7.59375 7.62815C7.59375 7.57503 7.60938 7.52502 7.625 7.51565C7.64375 7.50627 7.65625 7.45627 7.65625 7.40627C7.65625 7.35627 7.67188 7.30627 7.6875 7.2969C7.70625 7.28752 7.71875 7.25003 7.71875 7.21565C7.71875 7.1844 7.73438 7.15627 7.75 7.15627C7.76875 7.15627 7.78125 7.12815 7.78125 7.09377C7.78125 7.0594 7.79688 7.03127 7.8125 7.03127C7.83125 7.03127 7.84375 7.0094 7.84375 6.9844C7.84375 6.9594 7.8875 6.89377 7.9375 6.83752C7.99063 6.7844 8.03125 6.72815 8.03125 6.71252C8.03125 6.6719 8.475 6.24065 8.57188 6.19065C8.61875 6.16565 8.65625 6.1344 8.65625 6.11877C8.65625 6.10627 8.68437 6.09377 8.71875 6.09377C8.75313 6.09377 8.78125 6.07815 8.78125 6.06252C8.78125 6.04377 8.80937 6.03127 8.84375 6.03127C8.87813 6.03127 8.90625 6.01565 8.90625 6.00002C8.90625 5.98127 8.93437 5.96877 8.96875 5.96877C9.00313 5.96877 9.03125 5.95315 9.03125 5.93752C9.03125 5.91877 9.075 5.90627 9.125 5.90627C9.17813 5.90627 9.21875 5.89065 9.21875 5.87502C9.21875 5.85627 9.2625 5.84377 9.3125 5.84377C9.36563 5.84377 9.40625 5.82815 9.40625 5.81252C9.40625 5.79377 9.58125 5.78127 9.87187 5.78127C10.15 5.78127 10.3469 5.79377 10.3594 5.81252ZM28.3438 19.3438C28.3438 19.3782 28.3313 19.4063 28.3125 19.4063C28.2937 19.4063 28.2812 19.5313 28.2812 19.7188C28.2812 19.9063 28.2688 20.0313 28.25 20.0313C28.2312 20.0313 28.2188 20.1344 28.2188 20.2782C28.2188 20.4157 28.2031 20.5375 28.1875 20.5469C28.1687 20.5563 28.1562 20.6438 28.1562 20.7375C28.1562 20.8313 28.1438 20.9063 28.125 20.9063C28.1094 20.9063 28.0938 20.975 28.0938 21.0625C28.0938 21.1469 28.0813 21.2188 28.0625 21.2188C28.0469 21.2188 28.0312 21.275 28.0312 21.3438C28.0312 21.4125 28.0188 21.4688 28 21.4688C27.9844 21.4688 27.9688 21.525 27.9688 21.5938C27.9688 21.6625 27.9563 21.7188 27.9375 21.7188C27.9219 21.7188 27.9062 21.7594 27.9062 21.8125C27.9062 21.8625 27.8938 21.9063 27.875 21.9063C27.8594 21.9063 27.8438 21.95 27.8438 22C27.8438 22.0532 27.8313 22.1219 27.8125 22.1563C27.7969 22.1907 27.7688 22.2469 27.75 22.2813C27.7344 22.3157 27.7188 22.3719 27.7188 22.4063C27.7188 22.4407 27.7063 22.4688 27.6875 22.4688C27.6719 22.4688 27.6562 22.5094 27.6562 22.5625C27.6562 22.6125 27.6438 22.6563 27.625 22.6563C27.6094 22.6563 27.5938 22.6844 27.5938 22.7188C27.5938 22.7532 27.5813 22.7813 27.5625 22.7813C27.5469 22.7813 27.5312 22.8094 27.5312 22.8438C27.5312 22.8782 27.5188 22.9063 27.5 22.9063C27.4844 22.9063 27.4688 22.9407 27.4688 22.9813C27.4688 23.025 27.4563 23.0688 27.4375 23.0782C27.4219 23.0875 27.4062 23.125 27.4062 23.1563C27.4062 23.1875 27.3969 23.2188 27.3844 23.225C27.3531 23.2375 27.2531 23.4032 27.2281 23.475C27.2187 23.5063 27.2 23.5313 27.1844 23.5313C27.1688 23.5313 27.1562 23.5594 27.1562 23.5938C27.1562 23.6282 27.1438 23.6563 27.125 23.6563C27.1094 23.6563 27.0938 23.6813 27.0938 23.7125C27.0938 23.7438 27.0656 23.7875 27.0312 23.8125C26.9969 23.8375 26.9688 23.8782 26.9688 23.9063C26.9688 23.9344 26.9406 23.975 26.9062 24C26.8719 24.025 26.8438 24.0657 26.8438 24.0875C26.8438 24.1125 26.8 24.1719 26.75 24.2188C26.7 24.2657 26.6562 24.3219 26.6562 24.3407C26.6562 24.3875 25.7 25.3438 25.6531 25.3438C25.6344 25.3438 25.5781 25.3844 25.5312 25.4375C25.4844 25.4907 25.425 25.5313 25.4 25.5313C25.3781 25.5313 25.3375 25.5594 25.3125 25.5938C25.2875 25.6282 25.2469 25.6563 25.2188 25.6563C25.1906 25.6563 25.15 25.6844 25.125 25.7188C25.1 25.7532 25.0562 25.7813 25.025 25.7813C24.9937 25.7813 24.9688 25.7938 24.9688 25.8094C24.9688 25.825 24.9437 25.8438 24.9156 25.8532C24.8406 25.8782 24.675 25.9782 24.6625 26.0063C24.6563 26.0219 24.625 26.0313 24.5906 26.0313C24.5594 26.0313 24.5312 26.0438 24.5312 26.0625C24.5312 26.0782 24.5031 26.0938 24.4688 26.0938C24.4344 26.0938 24.4062 26.1063 24.4062 26.125C24.4062 26.1407 24.3656 26.1563 24.3125 26.1563C24.2625 26.1563 24.2188 26.1688 24.2188 26.1875C24.2188 26.2032 24.1906 26.2188 24.1562 26.2188C24.1219 26.2188 24.0938 26.2313 24.0938 26.25C24.0938 26.2657 24.0656 26.2813 24.0312 26.2813C23.9969 26.2813 23.9688 26.2938 23.9688 26.3125C23.9688 26.3282 23.9281 26.3438 23.875 26.3438C23.825 26.3438 23.7812 26.3563 23.7812 26.375C23.7812 26.3907 23.7406 26.4063 23.6875 26.4063C23.6375 26.4063 23.5938 26.4188 23.5938 26.4375C23.5938 26.4532 23.5531 26.4688 23.5 26.4688C23.45 26.4688 23.4062 26.4813 23.4062 26.5C23.4062 26.5157 23.3594 26.5313 23.3 26.5313C23.2406 26.5313 23.1813 26.5438 23.1719 26.5625C23.1625 26.5782 23.1125 26.5938 23.0594 26.5938C23.0094 26.5938 22.9688 26.6063 22.9688 26.625C22.9688 26.6407 22.9063 26.6563 22.8313 26.6563C22.7531 26.6563 22.6813 26.6688 22.6719 26.6875C22.6625 26.7032 22.5906 26.7188 22.5156 26.7188C22.4406 26.7188 22.3688 26.7313 22.3594 26.75C22.35 26.7657 22.25 26.7813 22.1406 26.7813C22.0312 26.7813 21.9313 26.7969 21.9219 26.8125C21.9125 26.8313 21.8063 26.8438 21.6844 26.8438C21.5625 26.8438 21.4688 26.8563 21.4688 26.875C21.4688 26.8938 21.2563 26.9063 20.8938 26.9063C20.5406 26.9063 20.3094 26.9188 20.2969 26.9375C20.2687 26.9813 11.7313 26.9813 11.7031 26.9375C11.6906 26.9188 11.4594 26.9063 11.1062 26.9063C10.7437 26.9063 10.5312 26.8938 10.5312 26.875C10.5312 26.8563 10.4375 26.8438 10.3156 26.8438C10.1938 26.8438 10.0875 26.8282 10.0781 26.8125C10.0687 26.7938 9.96875 26.7813 9.85938 26.7813C9.75 26.7813 9.65 26.7688 9.64062 26.75C9.63125 26.7344 9.55938 26.7188 9.48438 26.7188C9.40937 26.7188 9.3375 26.7032 9.32812 26.6875C9.31875 26.6719 9.24687 26.6563 9.16875 26.6563C9.09375 26.6563 9.03125 26.6407 9.03125 26.625C9.03125 26.6063 8.99063 26.5938 8.94063 26.5938C8.8875 26.5938 8.8375 26.5782 8.82812 26.5625C8.81875 26.5438 8.75937 26.5313 8.7 26.5313C8.64062 26.5313 8.59375 26.5157 8.59375 26.5C8.59375 26.4813 8.55313 26.4688 8.5 26.4688C8.45 26.4688 8.40625 26.4532 8.40625 26.4375C8.40625 26.4188 8.36563 26.4063 8.3125 26.4063C8.2625 26.4063 8.21875 26.3907 8.21875 26.375C8.21875 26.3563 8.17813 26.3438 8.125 26.3438C8.075 26.3438 8.03125 26.3282 8.03125 26.3125C8.03125 26.2938 8.00313 26.2813 7.96875 26.2813C7.93437 26.2813 7.90625 26.2657 7.90625 26.25C7.90625 26.2313 7.87813 26.2188 7.84375 26.2188C7.80937 26.2188 7.78125 26.2032 7.78125 26.1875C7.78125 26.1688 7.74063 26.1563 7.6875 26.1563C7.6375 26.1563 7.59375 26.1407 7.59375 26.125C7.59375 26.1063 7.56563 26.0938 7.53125 26.0938C7.49687 26.0938 7.46875 26.0782 7.46875 26.0625C7.46875 26.0438 7.44063 26.0313 7.40625 26.0313C7.37187 26.0313 7.34375 26.0188 7.34375 26.0032C7.34375 25.9875 7.31875 25.9688 7.29063 25.9594C7.21563 25.9344 7.05 25.8344 7.0375 25.8032C7.03125 25.7907 7.00313 25.7813 6.97188 25.7813C6.94375 25.7813 6.9 25.7532 6.875 25.7188C6.85 25.6844 6.80938 25.6563 6.78125 25.6563C6.75312 25.6563 6.7125 25.6282 6.6875 25.5938C6.6625 25.5594 6.62187 25.5313 6.6 25.5313C6.575 25.5313 6.51562 25.4875 6.46875 25.4375C6.42188 25.3844 6.36563 25.3438 6.34688 25.3438C6.3 25.3438 5.34375 24.3875 5.34375 24.3407C5.34375 24.3219 5.3 24.2657 5.25 24.2188C5.19687 24.1719 5.15625 24.1125 5.15625 24.0875C5.15625 24.0657 5.12813 24.025 5.09375 24C5.05937 23.975 5.03125 23.9344 5.03125 23.9063C5.03125 23.8782 5.00313 23.8375 4.96875 23.8125C4.93437 23.7875 4.90625 23.7438 4.90625 23.7125C4.90625 23.6813 4.89375 23.6563 4.875 23.6563C4.85938 23.6563 4.84375 23.6282 4.84375 23.5938C4.84375 23.5594 4.83125 23.5313 4.81563 23.5313C4.8 23.5313 4.78125 23.5063 4.77187 23.475C4.74687 23.4032 4.64688 23.2375 4.61875 23.225C4.60313 23.2188 4.59375 23.1875 4.59375 23.1563C4.59375 23.125 4.58125 23.0875 4.5625 23.0782C4.54688 23.0688 4.53125 23.025 4.53125 22.9813C4.53125 22.9407 4.51875 22.9063 4.5 22.9063C4.48438 22.9063 4.46875 22.8782 4.46875 22.8438C4.46875 22.8094 4.45625 22.7813 4.4375 22.7813C4.42188 22.7813 4.40625 22.7532 4.40625 22.7188C4.40625 22.6844 4.39375 22.6563 4.375 22.6563C4.35938 22.6563 4.34375 22.6125 4.34375 22.5625C4.34375 22.5094 4.33125 22.4688 4.3125 22.4688C4.29688 22.4688 4.28125 22.4407 4.28125 22.4063C4.28125 22.3719 4.26875 22.3157 4.25 22.2813C4.23438 22.2469 4.20625 22.1907 4.1875 22.1563C4.17188 22.1219 4.15625 22.0532 4.15625 22C4.15625 21.95 4.14375 21.9063 4.125 21.9063C4.10938 21.9063 4.09375 21.8625 4.09375 21.8125C4.09375 21.7594 4.08125 21.7188 4.0625 21.7188C4.04688 21.7188 4.03125 21.6625 4.03125 21.5938C4.03125 21.525 4.01875 21.4688 4 21.4688C3.98438 21.4688 3.96875 21.4125 3.96875 21.3438C3.96875 21.275 3.95625 21.2188 3.9375 21.2188C3.92188 21.2188 3.90625 21.1469 3.90625 21.0625C3.90625 20.975 3.89375 20.9063 3.875 20.9063C3.85938 20.9063 3.84375 20.8313 3.84375 20.7375C3.84375 20.6438 3.83125 20.5563 3.8125 20.5469C3.79688 20.5375 3.78125 20.4157 3.78125 20.2782C3.78125 20.1344 3.76875 20.0313 3.75 20.0313C3.73125 20.0313 3.71875 19.9063 3.71875 19.7188C3.71875 19.5313 3.70625 19.4063 3.6875 19.4063C3.67188 19.4063 3.65625 19.3782 3.65625 19.3438C3.65625 19.2813 3.67812 19.2813 16 19.2813C28.3219 19.2813 28.3438 19.2813 28.3438 19.3438Z" fill="white"/>
</svg>
