<svg width="32" height="25" viewBox="0 0 32 25" fill="none" xmlns="http://www.w3.org/2000/svg">
<path d="M7.68735 0.304209C7.76123 0.304067 7.83511 0.303925 7.91122 0.30378C8.11492 0.303454 8.31861 0.303405 8.5223 0.303479C8.74253 0.303492 8.96276 0.303146 9.18299 0.302851C9.61397 0.302333 10.0449 0.30216 10.4759 0.302125C10.8265 0.302095 11.177 0.301966 11.5276 0.301769C12.5228 0.301218 13.5181 0.30093 14.5133 0.300977C14.5669 0.300979 14.6205 0.300982 14.6757 0.300984C14.7294 0.300987 14.783 0.300989 14.8383 0.300992C15.7074 0.301017 16.5765 0.30042 17.4457 0.299538C18.3394 0.298639 19.2331 0.298209 20.1268 0.298263C20.6281 0.298283 21.1293 0.298114 21.6305 0.297439C22.0573 0.296868 22.4842 0.296736 22.911 0.297158C23.1284 0.297362 23.3459 0.29737 23.5633 0.296824C25.2804 0.293304 26.7538 0.41691 28.125 1.56257C28.1667 1.59511 28.2083 1.62766 28.2512 1.6612C28.7764 2.08797 29.1472 2.63946 29.457 3.23444C29.4766 3.27081 29.4962 3.30718 29.5164 3.34465C30.0152 4.3521 29.9717 5.42256 29.9628 6.51737C29.9613 6.74592 29.9611 6.97447 29.9608 7.20302C29.9601 7.63419 29.958 8.06533 29.9555 8.49649C29.9527 8.98804 29.9513 9.47959 29.9501 9.97114C29.9475 10.9808 29.9429 11.9904 29.9375 13.0001C30.6181 13.0001 31.2987 13.0001 32 13.0001C32 16.0526 32 19.1051 32 22.2501C31.2163 22.2501 30.4325 22.2501 29.625 22.2501C29.625 23.0544 29.625 23.8588 29.625 24.6876C28.9856 24.6876 28.3462 24.6876 27.6875 24.6876C27.6875 23.8832 27.6875 23.0788 27.6875 22.2501C19.9738 22.2501 12.26 22.2501 4.3125 22.2501C4.3125 23.0544 4.3125 23.8588 4.3125 24.6876C3.67313 24.6876 3.03375 24.6876 2.375 24.6876C2.375 23.8832 2.375 23.0788 2.375 22.2501C1.59125 22.2501 0.8075 22.2501 0 22.2501C0 19.1976 0 16.1451 0 13.0001C0.680625 13.0001 1.36125 13.0001 2.0625 13.0001C2.06054 12.633 2.06054 12.633 2.05853 12.2586C2.05438 11.4474 2.05161 10.6361 2.04955 9.82488C2.04826 9.33334 2.04651 8.84182 2.04364 8.35029C2.04113 7.92142 2.03953 7.49255 2.03898 7.06368C2.03865 6.837 2.03791 6.61034 2.03607 6.38366C2.0191 4.20626 2.0191 4.20626 2.55078 3.22272C2.5831 3.16067 2.5831 3.16067 2.61607 3.09736C2.79401 2.76473 3.00149 2.47157 3.25 2.18757C3.28239 2.14632 3.31478 2.10507 3.34814 2.06257C4.17213 1.04353 5.49266 0.462617 6.77413 0.325515C7.07828 0.301407 7.38241 0.303776 7.68735 0.304209ZM4.6875 3.50983C3.87139 4.48071 3.91797 5.70602 3.92969 6.90241C3.93032 7.01557 3.93089 7.12873 3.9314 7.24189C3.93276 7.51545 3.9349 7.78901 3.9375 8.06257C3.96961 8.03776 4.00171 8.01296 4.03479 7.9874C5.21775 7.08477 6.41514 7.02399 7.84961 7.02936C8.00973 7.02919 8.16986 7.02895 8.32998 7.02864C8.66407 7.02827 8.99815 7.02877 9.33224 7.02997C9.71568 7.03133 10.0991 7.03089 10.4825 7.02952C10.855 7.02823 11.2275 7.02838 11.6 7.02911C11.7569 7.02928 11.9137 7.02908 12.0706 7.02849C13.4687 7.02441 14.5728 7.14177 15.6755 8.07917C15.8009 8.17836 15.9171 8.24765 16.0625 8.31257C16.1104 8.26604 16.1104 8.26604 16.1592 8.21857C17.0403 7.39522 18.0085 7.05456 19.198 7.0515C19.2677 7.05109 19.3375 7.05068 19.4094 7.05026C19.64 7.04903 19.8705 7.0483 20.1011 7.04767C20.1802 7.04742 20.2592 7.04716 20.3407 7.0469C20.7165 7.04573 21.0924 7.04482 21.4682 7.0443C21.8994 7.04369 22.3305 7.04205 22.7617 7.03952C23.1372 7.03739 23.5127 7.03666 23.8881 7.03641C24.0468 7.03611 24.2054 7.03539 24.364 7.03422C25.788 7.02441 26.9045 7.16788 28.0625 8.06257C28.0656 7.73259 28.0679 7.40263 28.0694 7.07265C28.07 6.96083 28.0708 6.84902 28.0719 6.7372C28.0838 5.49559 28.058 4.35132 27.1875 3.37507C27.1549 3.33664 27.1222 3.29821 27.0886 3.25861C26.5317 2.64747 25.7485 2.32956 24.9375 2.25007C24.6957 2.2409 24.4541 2.24109 24.2122 2.24129C24.1394 2.2411 24.0667 2.24092 23.9917 2.24073C23.7906 2.24028 23.5895 2.24011 23.3883 2.24006C23.1711 2.23995 22.9538 2.23947 22.7366 2.23905C22.2619 2.23821 21.7872 2.23783 21.3125 2.23755C21.0158 2.23738 20.719 2.23712 20.4223 2.23683C19.5999 2.23607 18.7775 2.23543 17.9551 2.23522C17.9025 2.2352 17.8499 2.23519 17.7957 2.23518C17.743 2.23516 17.6903 2.23515 17.636 2.23513C17.5292 2.23511 17.4223 2.23508 17.3155 2.23505C17.2361 2.23503 17.2361 2.23503 17.155 2.23501C16.2972 2.23476 15.4394 2.23367 14.5816 2.23222C13.6997 2.23073 12.8179 2.22995 11.936 2.22988C11.4413 2.22982 10.9467 2.22947 10.452 2.22833C10.0307 2.22736 9.60934 2.22705 9.18799 2.22756C8.97332 2.22781 8.75867 2.22776 8.544 2.22687C6.99725 2.22159 5.7964 2.3143 4.6875 3.50983ZM5 9.75007C4.34601 10.7769 4.625 11.6409 4.625 13.0001C8.06938 13.0001 11.5138 13.0001 15.0625 13.0001C15.1926 11.1395 15.1926 11.1395 14.4375 9.50007C13.8683 9.05019 13.3346 8.90907 12.617 8.91231C12.5497 8.91188 12.4825 8.91145 12.4132 8.91101C12.1923 8.90987 11.9714 8.91011 11.7505 8.91047C11.596 8.91018 11.4415 8.90985 11.287 8.90947C10.9637 8.90892 10.6404 8.90907 10.3171 8.90969C9.90402 8.91041 9.49096 8.90914 9.07788 8.90732C8.75895 8.90617 8.44003 8.90619 8.1211 8.90655C7.96886 8.90655 7.81661 8.90618 7.66437 8.9054C7.45096 8.90447 7.23761 8.90514 7.0242 8.90621C6.9621 8.9056 6.9 8.905 6.83602 8.90438C6.07975 8.91225 5.49522 9.17632 5 9.75007ZM17.3904 9.69855C16.7028 10.6843 16.9375 11.8108 16.9375 13.0001C20.3819 13.0001 23.8263 13.0001 27.375 13.0001C27.5311 11.0187 27.5311 11.0187 26.7195 9.44806C26.3385 9.11926 25.8994 8.93103 25.3963 8.92837C25.3381 8.92792 25.2798 8.92747 25.2198 8.92701C25.1563 8.92684 25.0929 8.92668 25.0275 8.9265C24.9602 8.92609 24.893 8.92568 24.8238 8.92526C24.6012 8.92403 24.3786 8.9233 24.156 8.92267C24.0799 8.92242 24.0037 8.92216 23.9253 8.9219C23.5221 8.9206 23.1189 8.9197 22.7157 8.91912C22.3001 8.91849 21.8846 8.91628 21.4691 8.91379C21.1488 8.91216 20.8285 8.91164 20.5083 8.91141C20.3551 8.91111 20.202 8.91038 20.0489 8.90922C19.834 8.90769 19.6191 8.90776 19.4042 8.90819C19.3416 8.90739 19.279 8.90659 19.2145 8.90577C18.5145 8.91087 17.8398 9.14101 17.3904 9.69855ZM1.875 14.9376C1.875 16.7113 1.875 18.4851 1.875 20.3126C11.1975 20.3126 20.52 20.3126 30.125 20.3126C30.125 18.5388 30.125 16.7651 30.125 14.9376C20.8025 14.9376 11.48 14.9376 1.875 14.9376Z" fill="white"/>
</svg>
