<svg xmlns="http://www.w3.org/2000/svg" width="24" height="24" fill="none">
  <path fill="#fff" d="M16.852.016c-.07.005-.139.02-.15.033-.015.012-.064.021-.113.021-.05 0-.089.01-.089.024 0 .011-.042.023-.094.023-.051 0-.093.01-.093.024 0 .011-.031.023-.07.023-.038 0-.071.01-.071.023s-.03.024-.07.024c-.038 0-.07.01-.07.023s-.031.024-.071.024c-.038 0-.07.01-.07.023s-.021.024-.045.024c-.026 0-.054.01-.06.023-.008.012-.04.024-.073.024-.031 0-.057.009-.057.023 0 .012-.02.023-.047.023-.025 0-.046.01-.046.024 0 .012-.022.023-.047.023s-.047.01-.047.024c0 .011-.021.023-.047.023s-.047.01-.047.024c0 .011-.021.023-.047.023s-.047.01-.047.023-.014.024-.03.024c-.017 0-.054.021-.082.047s-.066.047-.087.047c-.019 0-.035.01-.035.018 0 .012-.028.036-.063.054a.6.6 0 0 0-.11.073c-.026.023-.06.042-.073.042-.014 0-.04.021-.059.047s-.047.047-.06.047a.4.4 0 0 0-.118.089 3 3 0 0 1-.173.145 2.8 2.8 0 0 0-.422.422 3 3 0 0 1-.146.174.4.4 0 0 0-.089.117c0 .014-.02.042-.046.06-.026.02-.047.045-.047.06a.4.4 0 0 1-.07.105.4.4 0 0 0-.071.11c0 .016-.01.03-.023.03s-.024.017-.024.036c0 .02-.021.058-.047.086s-.047.066-.047.082c0 .017-.009.03-.023.03-.012 0-.024.022-.024.048 0 .025-.009.047-.023.047-.012 0-.023.02-.023.046s-.01.047-.024.047c-.012 0-.023.021-.023.047s-.01.047-.024.047c-.011 0-.023.021-.023.047s-.01.047-.024.047c-.011 0-.023.026-.023.056 0 .033-.01.066-.023.073s-.024.035-.024.06-.01.045-.023.045-.024.03-.024.07c0 .038-.01.07-.023.07s-.024.031-.024.071c0 .038-.009.07-.023.07-.012 0-.024.03-.024.07 0 .038-.009.071-.023.071-.012 0-.023.042-.023.094 0 .051-.01.094-.024.094-.012 0-.023.042-.023.091 0 .052-.01.1-.024.108-.011.007-.023.072-.023.143v.126H1.406v.764c0 .708.003.77.042.804a1 1 0 0 1 .099.12c.033.044.129.152.216.239a1 1 0 0 1 .159.18c0 .012.082.106.183.207s.208.22.239.264c.03.045.115.141.187.211.073.07.157.167.188.211.033.045.129.153.215.24.09.086.16.166.16.178 0 .014.096.119.21.239.118.12.212.225.212.239 0 .011.07.091.159.178.087.086.183.194.216.239.03.044.114.14.187.21.073.071.157.167.188.212.032.044.129.152.215.239.09.086.16.166.16.18 0 .012.082.106.182.206.101.101.209.22.24.265.03.045.114.14.187.211s.157.167.188.211c.032.045.128.152.215.24.09.086.16.166.16.18 0 .011.082.105.182.206.101.1.209.22.24.265.03.044.114.14.187.21.073.071.157.167.187.212.033.044.13.152.216.239.09.086.16.166.16.18 0 .012.081.106.182.207s.209.22.24.264c.03.045.114.14.187.211.072.07.157.167.187.211.033.045.13.152.216.24.089.086.16.166.16.177 0 .014.095.12.21.24.117.119.211.224.211.239 0 .011.07.09.16.178.086.086.182.194.215.239a1.3 1.3 0 0 0 .145.168l.09.085v3.365c0 2.218-.008 3.368-.024 3.378-.014.007-.023.082-.023.164s-.012.157-.024.164c-.014.007-.023.04-.023.07s-.012.063-.024.07c-.014.008-.023.04-.023.073 0 .03-.01.056-.024.056-.011 0-.023.015-.023.03 0 .017-.021.055-.047.083s-.047.06-.047.073c0 .03-.3.33-.33.33-.012 0-.045.021-.073.047s-.066.047-.082.047-.03.01-.03.023-.026.024-.057.024-.065.01-.072.023-.045.024-.085.024c-.037 0-.068.009-.068.023s-.065.023-.15.023-.159.012-.166.024c-.01.014-.509.023-1.42.023H4.969V24h9.89v-1.43h-1.403c-.912 0-1.412-.01-1.42-.023s-.083-.024-.165-.024-.157-.009-.164-.023c-.007-.012-.04-.023-.07-.023s-.064-.012-.07-.024c-.008-.014-.04-.023-.073-.023-.03 0-.056-.012-.056-.024 0-.014-.015-.023-.031-.023s-.054-.021-.082-.047-.06-.047-.073-.047c-.03 0-.33-.3-.33-.33 0-.012-.021-.045-.047-.073s-.047-.066-.047-.082-.01-.03-.023-.03-.024-.026-.024-.057c0-.033-.01-.065-.023-.072-.012-.008-.024-.04-.024-.07s-.011-.064-.023-.071-.024-.082-.024-.164-.009-.157-.023-.164c-.016-.01-.023-1.16-.023-3.378v-3.365l.089-.085c.049-.046.114-.124.145-.168s.138-.164.24-.265c.1-.1.182-.195.182-.206 0-.012.084-.106.187-.211.104-.103.188-.2.188-.211 0-.014.07-.094.16-.18.086-.087.182-.195.215-.24a3 3 0 0 1 .239-.265c.1-.1.183-.194.183-.206s.084-.105.187-.21c.103-.104.188-.2.188-.212 0-.014.07-.094.16-.18.086-.087.182-.195.215-.24.03-.044.115-.14.187-.21a2 2 0 0 0 .188-.211c.03-.045.138-.164.239-.265.1-.1.183-.195.183-.206a1 1 0 0 1 .159-.18c.087-.087.183-.195.216-.24.03-.044.114-.14.187-.21.073-.071.157-.167.188-.212a3 3 0 0 1 .239-.265c.1-.1.182-.194.182-.206 0-.014.02-.042.04-.063q.04-.041.05-.01c.004.015.028.029.054.029.023 0 .044.01.044.023s.021.024.047.024.047.009.047.023c0 .012.02.023.047.023.025 0 .046.01.046.024 0 .012.022.023.047.023s.047.01.047.024c0 .011.021.023.045.023.026 0 .054.01.06.024.008.011.04.023.073.023.03 0 .057.01.057.024 0 .011.032.023.07.023.04 0 .07.01.07.023s.033.024.07.024c.04 0 .07.01.07.023s.034.024.071.024c.04 0 .07.01.07.023s.043.024.094.024.094.009.094.023c0 .012.042.023.091.023.052 0 .101.01.108.024.007.012.07.023.14.023s.134.01.142.024c.009.014.269.023.705.023.443 0 .689-.01.689-.023 0-.014.066-.024.15-.024s.16-.011.166-.023c.007-.014.057-.024.108-.024s.092-.011.092-.023c0-.014.042-.023.093-.023.052 0 .094-.012.094-.024 0-.014.033-.023.07-.023.04 0 .07-.012.07-.024 0-.014.034-.023.071-.023.04 0 .07-.012.07-.024 0-.014.033-.023.07-.023.04 0 .071-.012.071-.024 0-.014.021-.023.044-.023.026 0 .054-.012.061-.023.008-.014.04-.024.073-.024.03 0 .056-.012.056-.023 0-.014.021-.024.047-.024s.047-.011.047-.023c0-.014.021-.024.047-.024s.047-.011.047-.023c0-.014.021-.023.047-.023s.047-.012.047-.024c0-.014.02-.023.047-.023.025 0 .046-.012.046-.024 0-.014.014-.023.03-.023.017 0 .055-.021.083-.047s.066-.047.087-.047c.018 0 .035-.012.035-.023 0-.014.014-.024.03-.024a.4.4 0 0 0 .11-.07.4.4 0 0 1 .106-.07c.014 0 .04-.022.058-.047.02-.026.047-.047.061-.047a.5.5 0 0 0 .148-.117.6.6 0 0 1 .143-.118c.028 0 .422-.393.422-.421a.6.6 0 0 1 .117-.143.5.5 0 0 0 .117-.148c0-.014.021-.042.047-.061s.047-.045.047-.059.019-.046.042-.072a.6.6 0 0 0 .073-.11c.019-.036.042-.064.054-.064.01 0 .018-.016.018-.035s.022-.058.047-.087.047-.065.047-.082c0-.016.012-.03.024-.03.014 0 .023-.021.023-.047s.012-.047.024-.047c.014 0 .023-.02.023-.047 0-.025.012-.047.023-.047.015 0 .024-.02.024-.046s.012-.047.023-.047c.014 0 .024-.021.024-.047s.011-.047.023-.047c.014 0 .024-.026.024-.056 0-.033.011-.066.023-.073.014-.007.023-.035.023-.06s.012-.045.024-.045c.014 0 .023-.033.023-.07 0-.04.012-.071.024-.071.014 0 .023-.033.023-.07 0-.04.012-.07.024-.07.014 0 .023-.034.023-.071 0-.04.012-.07.024-.07.014 0 .023-.042.023-.094s.012-.094.023-.094c.015 0 .024-.047.024-.103 0-.059.012-.112.023-.12.014-.006.024-.07.024-.14s.011-.134.023-.14c.014-.01.024-.266.024-.692 0-.427-.01-.682-.024-.692-.012-.007-.023-.077-.023-.152s-.01-.145-.024-.152c-.011-.007-.023-.056-.023-.108 0-.05-.01-.091-.024-.091-.011 0-.023-.043-.023-.094s-.01-.094-.023-.094-.024-.033-.024-.07c0-.04-.01-.07-.023-.07s-.024-.033-.024-.07c0-.04-.01-.071-.023-.071s-.024-.033-.024-.07c0-.04-.009-.07-.023-.07-.012 0-.023-.022-.023-.045 0-.026-.01-.054-.024-.061-.012-.007-.023-.04-.023-.073 0-.03-.01-.056-.024-.056-.012 0-.023-.021-.023-.047s-.01-.047-.024-.047c-.011 0-.023-.021-.023-.047s-.01-.047-.024-.047c-.011 0-.023-.02-.023-.047 0-.025-.01-.046-.023-.046s-.024-.022-.024-.047-.01-.047-.023-.047-.024-.014-.024-.03c0-.017-.02-.055-.047-.083-.025-.028-.047-.065-.047-.086s-.009-.036-.018-.036c-.012 0-.035-.028-.054-.065a1 1 0 0 0-.073-.108c-.023-.026-.042-.059-.042-.073s-.021-.04-.047-.058-.047-.047-.047-.061a.5.5 0 0 0-.117-.148.6.6 0 0 1-.117-.143c0-.028-.394-.422-.422-.422a.6.6 0 0 1-.143-.117.5.5 0 0 0-.148-.117c-.014 0-.042-.021-.06-.047-.02-.026-.045-.047-.06-.047a.4.4 0 0 1-.105-.07.4.4 0 0 0-.11-.07c-.016 0-.03-.012-.03-.024 0-.014-.017-.023-.035-.023-.021 0-.059-.021-.087-.047s-.066-.047-.082-.047c-.017 0-.03-.012-.03-.023 0-.015-.022-.024-.047-.024s-.047-.012-.047-.023c0-.014-.021-.024-.047-.024S19.922.48 19.922.47c0-.014-.021-.024-.047-.024s-.047-.011-.047-.023c0-.014-.021-.024-.047-.024s-.047-.011-.047-.023c0-.014-.025-.023-.056-.023-.033 0-.066-.012-.073-.024-.007-.014-.035-.023-.06-.023S19.5.294 19.5.282c0-.014-.03-.023-.07-.023-.038 0-.07-.012-.07-.024 0-.014-.031-.023-.07-.023-.038 0-.071-.012-.071-.023 0-.015-.03-.024-.07-.024-.038 0-.07-.012-.07-.023 0-.014-.043-.024-.095-.024-.051 0-.093-.012-.093-.023 0-.014-.04-.024-.09-.024s-.103-.014-.117-.028c-.02-.02-.241-.03-.867-.033-.46-.002-.895 0-.965.007Zm1.382 1.486c0 .012.054.021.118.021.065 0 .117.01.117.024 0 .012.042.023.093.023.052 0 .094.01.094.024 0 .011.033.023.07.023.04 0 .07.01.07.024 0 .011.034.023.071.023.04 0 .07.01.07.024 0 .011.022.023.047.023s.047.01.047.023.021.024.047.024.047.01.047.023.021.024.047.024.047.01.047.023.02.024.047.024c.025 0 .047.009.047.023 0 .012.02.023.046.023s.047.01.047.024c0 .012.019.023.042.023s.057.021.075.047c.02.026.05.047.07.047.022 0 .052.021.071.047s.05.047.066.047.07.04.117.089c.047.05.124.115.169.145a.9.9 0 0 1 .234.235c.03.044.096.121.145.168.05.047.09.101.09.118s.02.046.046.065.047.05.047.07c0 .022.021.052.047.07.026.02.047.052.047.076 0 .023.012.042.023.042.014 0 .024.021.024.047s.011.047.023.047c.014 0 .024.02.024.047 0 .025.011.046.023.046.014 0 .023.022.023.047s.012.047.024.047c.014 0 .023.021.023.047s.012.047.024.047c.014 0 .023.021.023.044 0 .026.012.054.024.061.014.007.023.04.023.073 0 .03.012.056.024.056.014 0 .023.03.023.07 0 .038.012.07.023.07.015 0 .024.043.024.095 0 .051.012.093.023.093.014 0 .024.052.024.118 0 .063.011.117.023.117.014 0 .024.194.024.539 0 .344-.01.539-.024.539-.012 0-.023.051-.023.117 0 .063-.01.117-.024.117-.011 0-.023.042-.023.094s-.01.094-.024.094c-.011 0-.023.03-.023.07 0 .038-.01.07-.023.07s-.024.026-.024.057-.01.065-.023.072-.024.035-.024.061c0 .024-.01.045-.023.045s-.024.02-.024.047c0 .025-.009.047-.023.047-.012 0-.023.02-.023.046s-.01.047-.024.047c-.012 0-.023.021-.023.047s-.01.047-.024.047c-.012 0-.023.021-.023.047s-.01.047-.024.047c-.011 0-.023.019-.023.042s-.021.056-.047.075-.047.05-.047.07-.021.052-.047.07c-.025.02-.047.048-.047.062s-.04.068-.089.117a3 3 0 0 0-.145.173.9.9 0 0 1-.234.235 1.3 1.3 0 0 0-.17.145c-.046.05-.1.089-.116.089-.017 0-.047.021-.066.047s-.05.047-.07.047-.052.02-.07.047c-.02.025-.052.046-.076.046-.023 0-.042.01-.042.024 0 .012-.02.023-.047.023-.025 0-.047.01-.047.024 0 .011-.02.023-.046.023s-.047.01-.047.024c0 .011-.021.023-.047.023s-.047.01-.047.024c0 .011-.021.023-.047.023s-.047.01-.047.023-.02.024-.044.024c-.026 0-.054.01-.061.023s-.04.024-.073.024c-.03 0-.056.01-.056.023s-.03.024-.07.024c-.038 0-.07.009-.07.023 0 .012-.043.023-.095.023-.051 0-.093.01-.093.024 0 .012-.052.023-.117.023-.064 0-.118.01-.118.024s-.1.023-.255.023c-.183 0-.26.01-.27.028-.011.024-.016.024-.028 0-.01-.018-.087-.028-.27-.028-.154 0-.255-.01-.255-.023 0-.014-.051-.024-.117-.024-.063 0-.117-.011-.117-.023 0-.014-.042-.024-.094-.024-.051 0-.094-.011-.094-.023 0-.014-.03-.023-.07-.023-.037 0-.07-.012-.07-.024 0-.014-.03-.023-.07-.023-.038 0-.07-.012-.07-.024 0-.014-.017-.023-.038-.023a.12.12 0 0 1-.07-.033c-.029-.028-.003-.063.177-.248.118-.12.211-.225.211-.24 0-.011.07-.09.16-.178.087-.086.183-.194.215-.239.03-.044.115-.14.188-.21.072-.07.157-.167.187-.212s.139-.164.24-.264c.1-.101.182-.195.182-.207 0-.014.07-.093.16-.18.086-.087.182-.195.215-.24a1 1 0 0 1 .099-.119c.04-.035.042-.096.042-.804v-.764h-2.063c-1.359 0-2.062-.007-2.062-.023 0-.014.012-.024.023-.024.014 0 .024-.042.024-.093 0-.052.011-.094.023-.094.014 0 .024-.033.024-.07 0-.04.011-.07.023-.07.014 0 .024-.026.024-.057 0-.033.011-.066.023-.073.014-.007.023-.035.023-.06s.012-.045.024-.045c.014 0 .023-.021.023-.047s.012-.047.024-.047c.014 0 .023-.02.023-.047 0-.025.012-.047.024-.047.014 0 .023-.02.023-.046s.012-.047.023-.047c.014 0 .024-.021.024-.047s.012-.047.023-.047c.014 0 .024-.019.024-.042s.02-.057.047-.075c.025-.019.046-.05.046-.07 0-.022.022-.052.047-.07.026-.02.047-.048.047-.062a.4.4 0 0 1 .09-.12c.046-.049.114-.126.147-.17a.9.9 0 0 1 .232-.235 3 3 0 0 0 .173-.145c.05-.05.104-.09.118-.09s.042-.02.06-.046c.02-.026.05-.047.07-.047.022 0 .052-.021.071-.047s.052-.047.075-.047c.024 0 .042-.011.042-.023 0-.014.022-.024.047-.024s.047-.011.047-.023c0-.014.021-.023.047-.023s.047-.012.047-.024c0-.014.021-.023.047-.023s.047-.012.047-.024c0-.014.02-.023.047-.023.025 0 .046-.012.046-.024 0-.014.021-.023.045-.023.026 0 .054-.012.06-.024.008-.014.04-.023.074-.023.03 0 .056-.012.056-.023 0-.014.033-.024.07-.024.04 0 .07-.012.07-.023 0-.014.043-.024.094-.024s.094-.011.094-.023c0-.014.054-.024.117-.024.066 0 .117-.009.117-.023 0-.012.115-.026.265-.028.399-.01.813.005.813.03m-1.828 4.17c0 .012-.01.023-.018.023-.012 0-.036.028-.054.064-.02.037-.101.133-.186.218s-.178.19-.21.234a2 2 0 0 1-.188.21 2 2 0 0 0-.188.212 3 3 0 0 1-.215.239 1 1 0 0 0-.16.178c0 .014-.093.12-.21.24a2 2 0 0 0-.211.238c0 .012-.07.092-.16.178a3 3 0 0 0-.215.24c-.03.044-.118.14-.19.21-.07.073-.15.16-.171.195l-.042.063H5.84l-.043-.063a2 2 0 0 0-.17-.195 2 2 0 0 1-.19-.21 3 3 0 0 0-.216-.24 1 1 0 0 1-.16-.18 1.4 1.4 0 0 0-.187-.211 1.6 1.6 0 0 1-.188-.211 1.4 1.4 0 0 0-.182-.206 3 3 0 0 1-.24-.265 2 2 0 0 0-.187-.211 2 2 0 0 1-.187-.211 3 3 0 0 0-.211-.234 1.3 1.3 0 0 1-.185-.218c-.02-.036-.043-.064-.054-.064-.01 0-.02-.011-.02-.023 0-.017 2.18-.024 6.493-.024s6.492.007 6.492.024Zm-3.75 4.21a.6.6 0 0 1-.094.102.4.4 0 0 0-.093.115c0 .012-.082.106-.183.207s-.209.22-.24.264c-.03.045-.114.14-.187.211a2 2 0 0 0-.187.211c-.03.045-.115.14-.188.211a2 2 0 0 0-.187.211c-.03.045-.138.164-.24.265-.1.1-.182.194-.182.206 0 .014-.07.094-.16.18a3 3 0 0 0-.215.24c-.03.044-.115.14-.188.21a2 2 0 0 0-.187.212 2 2 0 0 1-.136.159l-.077.077-.103-.11a.6.6 0 0 1-.106-.131 1 1 0 0 0-.16-.178 3 3 0 0 1-.215-.24 3 3 0 0 0-.215-.238 1 1 0 0 1-.16-.18c0-.013-.084-.109-.187-.212a1.6 1.6 0 0 1-.188-.21 1.4 1.4 0 0 0-.183-.207c-.1-.1-.208-.22-.239-.265a2 2 0 0 0-.187-.21 2 2 0 0 1-.188-.212 3 3 0 0 0-.215-.239 1 1 0 0 1-.16-.18.6.6 0 0 0-.117-.14 1 1 0 0 1-.117-.132c0-.007 1.235-.012 2.742-.012 1.51 0 2.742.007 2.742.014Z"/>
</svg>
