<svg width="33" height="33" viewBox="0 0 33 33" fill="none" xmlns="http://www.w3.org/2000/svg">
<path d="M16.2281 0.51875C16.1875 0.528125 16.1562 0.55 16.1562 0.565625C16.1562 0.58125 16.1281 0.59375 16.0938 0.59375C16.0594 0.59375 16.0312 0.60625 16.0312 0.625C16.0312 0.640625 16.0031 0.65625 15.9688 0.65625C15.9344 0.65625 15.9062 0.66875 15.9062 0.6875C15.9062 0.703125 15.8781 0.71875 15.8438 0.71875C15.8094 0.71875 15.7812 0.73125 15.7812 0.75C15.7812 0.765625 15.7531 0.78125 15.7219 0.78125C15.6875 0.78125 15.65 0.79375 15.6406 0.8125C15.6313 0.828125 15.5875 0.84375 15.5437 0.84375C15.5031 0.84375 15.4688 0.85625 15.4688 0.875C15.4688 0.890625 15.4406 0.90625 15.4062 0.90625C15.3719 0.90625 15.3438 0.91875 15.3438 0.9375C15.3438 0.953125 15.3156 0.96875 15.2812 0.96875C15.2469 0.96875 15.2188 0.98125 15.2188 1C15.2188 1.01562 15.1906 1.03125 15.1562 1.03125C15.1219 1.03125 15.0938 1.04375 15.0938 1.0625C15.0938 1.07812 15.0656 1.09375 15.0344 1.09375C15 1.09375 14.9625 1.10625 14.9531 1.125C14.9438 1.14062 14.9 1.15625 14.8562 1.15625C14.8156 1.15625 14.7812 1.16875 14.7812 1.1875C14.7812 1.20312 14.7531 1.21875 14.7188 1.21875C14.6844 1.21875 14.6562 1.23125 14.6562 1.25C14.6562 1.26562 14.6281 1.28125 14.5938 1.28125C14.5594 1.28125 14.5312 1.29375 14.5312 1.3125C14.5312 1.32812 14.5031 1.34375 14.4688 1.34375C14.4344 1.34375 14.4062 1.35625 14.4062 1.375C14.4062 1.39062 14.3781 1.40625 14.3469 1.40625C14.3125 1.40625 14.275 1.41875 14.2656 1.4375C14.2563 1.45312 14.2125 1.46875 14.1687 1.46875C14.1281 1.46875 14.0938 1.48125 14.0938 1.5C14.0938 1.51562 14.0656 1.53125 14.0312 1.53125C13.9969 1.53125 13.9688 1.54375 13.9688 1.5625C13.9688 1.57812 13.9406 1.59375 13.9062 1.59375C13.8719 1.59375 13.8438 1.60625 13.8438 1.625C13.8438 1.64062 13.8156 1.65625 13.7812 1.65625C13.7469 1.65625 13.7188 1.66875 13.7188 1.6875C13.7188 1.70312 13.6969 1.71875 13.6719 1.71875C13.6469 1.71875 13.5969 1.73125 13.5625 1.75C13.5281 1.76562 13.4719 1.79375 13.4375 1.8125C13.4031 1.82812 13.3531 1.84375 13.3281 1.84375C13.3031 1.84375 13.2812 1.85625 13.2812 1.875C13.2812 1.89062 13.2531 1.90625 13.2188 1.90625C13.1844 1.90625 13.1562 1.91875 13.1562 1.9375C13.1562 1.95312 13.1281 1.96875 13.0938 1.96875C13.0594 1.96875 13.0312 1.98125 13.0312 2C13.0312 2.01562 13.0094 2.03125 12.9844 2.03125C12.9594 2.03125 12.9094 2.04375 12.875 2.0625C12.8406 2.07812 12.7844 2.10625 12.75 2.125C12.7156 2.14062 12.6656 2.15625 12.6406 2.15625C12.6156 2.15625 12.5938 2.16875 12.5938 2.1875C12.5938 2.20312 12.5656 2.21875 12.5312 2.21875C12.4969 2.21875 12.4688 2.23125 12.4688 2.25C12.4688 2.26562 12.4406 2.28125 12.4062 2.28125C12.3719 2.28125 12.3438 2.29375 12.3438 2.3125C12.3438 2.32812 12.3219 2.34375 12.2969 2.34375C12.2719 2.34375 12.2219 2.35625 12.1875 2.375C12.1531 2.39062 12.0969 2.41875 12.0625 2.4375C12.0281 2.45312 11.9781 2.46875 11.9531 2.46875C11.9281 2.46875 11.9062 2.48125 11.9062 2.5C11.9062 2.51562 11.8781 2.53125 11.8438 2.53125C11.8094 2.53125 11.7812 2.54375 11.7812 2.5625C11.7812 2.57812 11.7531 2.59375 11.7188 2.59375C11.6844 2.59375 11.6562 2.60625 11.6562 2.625C11.6562 2.64062 11.6344 2.65625 11.6094 2.65625C11.5625 2.65625 11.5313 2.66875 11.3844 2.74375C11.3438 2.76562 11.2906 2.78125 11.2656 2.78125C11.2406 2.78125 11.2188 2.79375 11.2188 2.8125C11.2188 2.82812 11.1906 2.84375 11.1562 2.84375C11.1219 2.84375 11.0938 2.85625 11.0938 2.875C11.0938 2.89062 11.0656 2.90625 11.0312 2.90625C10.9969 2.90625 10.9688 2.91875 10.9688 2.9375C10.9688 2.95312 10.9469 2.96875 10.9219 2.96875C10.8969 2.96875 10.8469 2.98125 10.8125 3C10.7781 3.01562 10.7219 3.04375 10.6875 3.0625C10.6531 3.07812 10.6031 3.09375 10.5781 3.09375C10.5531 3.09375 10.5312 3.10625 10.5312 3.125C10.5312 3.14062 10.5031 3.15625 10.4688 3.15625C10.4344 3.15625 10.4062 3.16875 10.4062 3.1875C10.4062 3.20312 10.3781 3.21875 10.3438 3.21875C10.3094 3.21875 10.2812 3.23125 10.2812 3.25C10.2812 3.26562 10.2594 3.28125 10.2344 3.28125C10.2094 3.28125 10.1594 3.29375 10.125 3.3125C10.0906 3.32812 10.0344 3.35625 10 3.375C9.96562 3.39062 9.91562 3.40625 9.89062 3.40625C9.86563 3.40625 9.84375 3.41875 9.84375 3.4375C9.84375 3.45312 9.81563 3.46875 9.78125 3.46875C9.74687 3.46875 9.71875 3.48125 9.71875 3.5C9.71875 3.51562 9.69063 3.53125 9.65625 3.53125C9.62187 3.53125 9.59375 3.54375 9.59375 3.5625C9.59375 3.57812 9.56563 3.59375 9.53125 3.59375C9.49687 3.59375 9.46875 3.60625 9.46875 3.625C9.46875 3.64062 9.43437 3.65625 9.39375 3.65625C9.35 3.65625 9.30625 3.66875 9.29688 3.6875C9.2875 3.70312 9.25 3.71875 9.21562 3.71875C9.18437 3.71875 9.15625 3.73125 9.15625 3.75C9.15625 3.76562 9.12813 3.78125 9.09375 3.78125C9.05937 3.78125 9.03125 3.79375 9.03125 3.8125C9.03125 3.82812 9.00313 3.84375 8.96875 3.84375C8.93437 3.84375 8.90625 3.85625 8.90625 3.875C8.90625 3.89062 8.87813 3.90625 8.84375 3.90625C8.80937 3.90625 8.78125 3.91875 8.78125 3.9375C8.78125 3.95312 8.74687 3.96875 8.70625 3.96875C8.6625 3.96875 8.61875 3.98125 8.60938 4C8.6 4.01562 8.5625 4.03125 8.52812 4.03125C8.49687 4.03125 8.46875 4.04375 8.46875 4.0625C8.46875 4.07812 8.44063 4.09375 8.40625 4.09375C8.37187 4.09375 8.34375 4.10625 8.34375 4.125C8.34375 4.14062 8.31563 4.15625 8.28125 4.15625C8.24687 4.15625 8.21875 4.16875 8.21875 4.1875C8.21875 4.20312 8.19063 4.21875 8.15625 4.21875C8.12187 4.21875 8.09375 4.23125 8.09375 4.25C8.09375 4.26562 8.05938 4.28125 8.01875 4.28125C7.975 4.28125 7.93125 4.29375 7.92188 4.3125C7.9125 4.32812 7.875 4.34375 7.84063 4.34375C7.80938 4.34375 7.78125 4.35625 7.78125 4.375C7.78125 4.39062 7.75313 4.40625 7.71875 4.40625C7.68437 4.40625 7.65625 4.41875 7.65625 4.4375C7.65625 4.45312 7.62813 4.46875 7.59375 4.46875C7.55937 4.46875 7.53125 4.48125 7.53125 4.5C7.53125 4.51562 7.50313 4.53125 7.46875 4.53125C7.43437 4.53125 7.40625 4.54375 7.40625 4.5625C7.40625 4.57812 7.37188 4.59375 7.33125 4.59375C7.2875 4.59375 7.24375 4.60625 7.23438 4.625C7.225 4.64062 7.1875 4.65625 7.15313 4.65625C7.12188 4.65625 7.09375 4.66875 7.09375 4.6875C7.09375 4.70312 7.06563 4.71875 7.03125 4.71875C6.99687 4.71875 6.96875 4.73125 6.96875 4.75C6.96875 4.76562 6.94063 4.78125 6.90625 4.78125C6.87187 4.78125 6.84375 4.79375 6.84375 4.8125C6.84375 4.82812 6.81563 4.84375 6.78125 4.84375C6.74687 4.84375 6.71875 4.85625 6.71875 4.875C6.71875 4.89062 6.68438 4.90625 6.64375 4.90625C6.6 4.90625 6.55625 4.91875 6.54688 4.9375C6.5375 4.95312 6.5 4.96875 6.46563 4.96875C6.43438 4.96875 6.40625 4.98125 6.40625 5C6.40625 5.01562 6.37813 5.03125 6.34375 5.03125C6.30937 5.03125 6.28125 5.04375 6.28125 5.0625C6.28125 5.07812 6.25313 5.09375 6.21875 5.09375C6.18437 5.09375 6.15625 5.10625 6.15625 5.125C6.15625 5.14062 6.12813 5.15625 6.09375 5.15625C6.05937 5.15625 6.03125 5.16875 6.03125 5.1875C6.03125 5.20312 5.99688 5.21875 5.95625 5.21875C5.9125 5.21875 5.86875 5.23125 5.85938 5.25C5.85 5.26562 5.8125 5.28125 5.77813 5.28125C5.74688 5.28125 5.71875 5.29375 5.71875 5.3125C5.71875 5.32812 5.69063 5.34375 5.65625 5.34375C5.62187 5.34375 5.59375 5.35625 5.59375 5.375C5.59375 5.39062 5.56563 5.40625 5.53125 5.40625C5.49687 5.40625 5.46875 5.41875 5.46875 5.4375C5.46875 5.45312 5.44063 5.46875 5.40625 5.46875C5.37187 5.46875 5.34375 5.48125 5.34375 5.5C5.34375 5.51562 5.30938 5.53125 5.26875 5.53125C5.225 5.53125 5.18125 5.54375 5.17188 5.5625C5.1625 5.57812 5.125 5.59375 5.09063 5.59375C5.05938 5.59375 5.03125 5.60625 5.03125 5.625C5.03125 5.64062 5.00313 5.65625 4.96875 5.65625C4.93437 5.65625 4.90625 5.66875 4.90625 5.6875C4.90625 5.70312 4.87813 5.71875 4.84375 5.71875C4.80937 5.71875 4.78125 5.73125 4.78125 5.75C4.78125 5.76562 4.75313 5.78125 4.71875 5.78125C4.68437 5.78125 4.65625 5.79375 4.65625 5.8125C4.65625 5.82812 4.62188 5.84375 4.58125 5.84375C4.5375 5.84375 4.49375 5.85625 4.48438 5.875C4.475 5.89062 4.4375 5.90625 4.40313 5.90625C4.37188 5.90625 4.34375 5.91875 4.34375 5.9375C4.34375 5.95312 4.31562 5.96875 4.28125 5.96875C4.24688 5.96875 4.21875 5.98125 4.21875 6C4.21875 6.01562 4.19062 6.03125 4.15625 6.03125C4.12188 6.03125 4.09375 6.04375 4.09375 6.0625C4.09375 6.07812 4.06562 6.09375 4.03125 6.09375C3.99688 6.09375 3.96875 6.10625 3.96875 6.125C3.96875 6.14062 3.93438 6.15625 3.89375 6.15625C3.85 6.15625 3.80625 6.16875 3.79688 6.1875C3.7875 6.20312 3.75 6.21875 3.71563 6.21875C3.68438 6.21875 3.65625 6.23125 3.65625 6.25C3.65625 6.26562 3.62812 6.28125 3.59375 6.28125C3.55938 6.28125 3.53125 6.29375 3.53125 6.3125C3.53125 6.32812 3.50312 6.34375 3.46875 6.34375C3.43438 6.34375 3.40625 6.35625 3.40625 6.375C3.40625 6.39062 3.37812 6.40625 3.34375 6.40625C3.30938 6.40625 3.28125 6.41875 3.28125 6.4375C3.28125 6.45312 3.24688 6.46875 3.20625 6.46875C3.1625 6.46875 3.11875 6.48125 3.10938 6.5C3.1 6.51562 3.0625 6.53125 3.02813 6.53125C2.99688 6.53125 2.96875 6.54375 2.96875 6.5625C2.96875 6.57812 2.94062 6.59375 2.90625 6.59375C2.87188 6.59375 2.84375 6.60625 2.84375 6.625C2.84375 6.64062 2.81562 6.65625 2.78125 6.65625C2.74688 6.65625 2.71875 6.66875 2.71875 6.6875C2.71875 6.70312 2.69062 6.71875 2.65625 6.71875C2.62188 6.71875 2.59375 6.73125 2.59375 6.75C2.59375 6.76562 2.55938 6.78125 2.51875 6.78125C2.475 6.78125 2.43125 6.79375 2.42188 6.8125C2.4125 6.82812 2.375 6.84375 2.34063 6.84375C2.30938 6.84375 2.28125 6.85625 2.28125 6.875C2.28125 6.89062 2.25312 6.90625 2.21875 6.90625C2.18438 6.90625 2.15625 6.91875 2.15625 6.9375C2.15625 6.95312 2.12812 6.96875 2.09375 6.96875C2.05938 6.96875 2.03125 6.98125 2.03125 7C2.03125 7.01562 2.00312 7.03125 1.96875 7.03125C1.93438 7.03125 1.90625 7.04375 1.90625 7.0625C1.90625 7.07812 1.87188 7.09375 1.83125 7.09375C1.7875 7.09375 1.74375 7.10625 1.73438 7.125C1.725 7.14062 1.6875 7.15625 1.65313 7.15625C1.62188 7.15625 1.59375 7.16875 1.59375 7.1875C1.59375 7.20312 1.56562 7.21875 1.53125 7.21875C1.49687 7.21875 1.46875 7.23125 1.46875 7.25C1.46875 7.26562 1.44063 7.28125 1.40625 7.28125C1.37187 7.28125 1.34375 7.29375 1.34375 7.3125C1.34375 7.32812 1.31563 7.34375 1.28125 7.34375C1.24687 7.34375 1.21875 7.35625 1.21875 7.375C1.21875 7.39062 1.18437 7.40625 1.14375 7.40625C1.1 7.40625 1.05625 7.41875 1.04688 7.4375C1.0375 7.45312 1 7.46875 0.965625 7.46875C0.934375 7.46875 0.90625 7.48125 0.90625 7.5C0.90625 7.51562 0.878125 7.53125 0.84375 7.53125C0.809375 7.53125 0.78125 7.54375 0.78125 7.5625C0.78125 7.57812 0.753125 7.59375 0.71875 7.59375C0.684375 7.59375 0.65625 7.60625 0.65625 7.625C0.65625 7.64062 0.628125 7.65625 0.596875 7.65625C0.565625 7.65625 0.528125 7.67812 0.51875 7.70625C0.509375 7.73437 0.5 13.3219 0.5 20.1281V32.5H32.5V20.1281C32.5 13.3219 32.4906 7.73437 32.4813 7.70625C32.4719 7.67812 32.4344 7.65625 32.4031 7.65625C32.3719 7.65625 32.3438 7.64062 32.3438 7.625C32.3438 7.60625 32.3156 7.59375 32.2812 7.59375C32.2469 7.59375 32.2188 7.57812 32.2188 7.5625C32.2188 7.54375 32.1906 7.53125 32.1562 7.53125C32.1219 7.53125 32.0938 7.51562 32.0938 7.5C32.0938 7.48125 32.0656 7.46875 32.0344 7.46875C32 7.46875 31.9625 7.45312 31.9531 7.4375C31.9438 7.41875 31.9 7.40625 31.8563 7.40625C31.8156 7.40625 31.7812 7.39062 31.7812 7.375C31.7812 7.35625 31.7531 7.34375 31.7188 7.34375C31.6844 7.34375 31.6562 7.32812 31.6562 7.3125C31.6562 7.29375 31.6281 7.28125 31.5938 7.28125C31.5594 7.28125 31.5312 7.26562 31.5312 7.25C31.5312 7.23125 31.5031 7.21875 31.4688 7.21875C31.4344 7.21875 31.4062 7.20312 31.4062 7.1875C31.4062 7.16875 31.3781 7.15625 31.3469 7.15625C31.3125 7.15625 31.275 7.14062 31.2656 7.125C31.2563 7.10625 31.2125 7.09375 31.1688 7.09375C31.1281 7.09375 31.0938 7.07812 31.0938 7.0625C31.0938 7.04375 31.0656 7.03125 31.0312 7.03125C30.9969 7.03125 30.9688 7.01562 30.9688 7C30.9688 6.98125 30.9406 6.96875 30.9062 6.96875C30.8719 6.96875 30.8438 6.95312 30.8438 6.9375C30.8438 6.91875 30.8156 6.90625 30.7812 6.90625C30.7469 6.90625 30.7188 6.89062 30.7188 6.875C30.7188 6.85625 30.6906 6.84375 30.6594 6.84375C30.625 6.84375 30.5875 6.82812 30.5781 6.8125C30.5688 6.79375 30.525 6.78125 30.4813 6.78125C30.4406 6.78125 30.4062 6.76562 30.4062 6.75C30.4062 6.73125 30.3781 6.71875 30.3438 6.71875C30.3094 6.71875 30.2812 6.70312 30.2812 6.6875C30.2812 6.66875 30.2531 6.65625 30.2188 6.65625C30.1844 6.65625 30.1562 6.64062 30.1562 6.625C30.1562 6.60625 30.1281 6.59375 30.0938 6.59375C30.0594 6.59375 30.0312 6.57812 30.0312 6.5625C30.0312 6.54375 30.0031 6.53125 29.9719 6.53125C29.9375 6.53125 29.9 6.51562 29.8906 6.5C29.8813 6.48125 29.8375 6.46875 29.7938 6.46875C29.7531 6.46875 29.7188 6.45312 29.7188 6.4375C29.7188 6.41875 29.6906 6.40625 29.6562 6.40625C29.6219 6.40625 29.5938 6.39062 29.5938 6.375C29.5938 6.35625 29.5656 6.34375 29.5312 6.34375C29.4969 6.34375 29.4688 6.32812 29.4688 6.3125C29.4688 6.29375 29.4406 6.28125 29.4062 6.28125C29.3719 6.28125 29.3438 6.26562 29.3438 6.25C29.3438 6.23125 29.3156 6.21875 29.2844 6.21875C29.25 6.21875 29.2125 6.20312 29.2031 6.1875C29.1938 6.16875 29.15 6.15625 29.1063 6.15625C29.0656 6.15625 29.0312 6.14062 29.0312 6.125C29.0312 6.10625 29.0031 6.09375 28.9688 6.09375C28.9344 6.09375 28.9062 6.07812 28.9062 6.0625C28.9062 6.04375 28.8781 6.03125 28.8438 6.03125C28.8094 6.03125 28.7812 6.01562 28.7812 6C28.7812 5.98125 28.7531 5.96875 28.7188 5.96875C28.6844 5.96875 28.6562 5.95312 28.6562 5.9375C28.6562 5.91875 28.6281 5.90625 28.5969 5.90625C28.5625 5.90625 28.525 5.89062 28.5156 5.875C28.5063 5.85625 28.4625 5.84375 28.4188 5.84375C28.3781 5.84375 28.3438 5.82812 28.3438 5.8125C28.3438 5.79375 28.3156 5.78125 28.2812 5.78125C28.2469 5.78125 28.2188 5.76562 28.2188 5.75C28.2188 5.73125 28.1906 5.71875 28.1562 5.71875C28.1219 5.71875 28.0938 5.70312 28.0938 5.6875C28.0938 5.66875 28.0656 5.65625 28.0312 5.65625C27.9969 5.65625 27.9688 5.64062 27.9688 5.625C27.9688 5.60625 27.9406 5.59375 27.9094 5.59375C27.875 5.59375 27.8375 5.57812 27.8281 5.5625C27.8188 5.54375 27.775 5.53125 27.7313 5.53125C27.6906 5.53125 27.6562 5.51562 27.6562 5.5C27.6562 5.48125 27.6281 5.46875 27.5938 5.46875C27.5594 5.46875 27.5312 5.45312 27.5312 5.4375C27.5312 5.41875 27.5031 5.40625 27.4688 5.40625C27.4344 5.40625 27.4062 5.39062 27.4062 5.375C27.4062 5.35625 27.3781 5.34375 27.3438 5.34375C27.3094 5.34375 27.2812 5.32812 27.2812 5.3125C27.2812 5.29375 27.2531 5.28125 27.2219 5.28125C27.1875 5.28125 27.15 5.26562 27.1406 5.25C27.1313 5.23125 27.0875 5.21875 27.0438 5.21875C27.0031 5.21875 26.9688 5.20312 26.9688 5.1875C26.9688 5.16875 26.9406 5.15625 26.9062 5.15625C26.8719 5.15625 26.8438 5.14062 26.8438 5.125C26.8438 5.10625 26.8156 5.09375 26.7812 5.09375C26.7469 5.09375 26.7188 5.07812 26.7188 5.0625C26.7188 5.04375 26.6906 5.03125 26.6562 5.03125C26.6219 5.03125 26.5938 5.01562 26.5938 5C26.5938 4.98125 26.5656 4.96875 26.5344 4.96875C26.5 4.96875 26.4625 4.95312 26.4531 4.9375C26.4438 4.91875 26.4 4.90625 26.3563 4.90625C26.3156 4.90625 26.2812 4.89062 26.2812 4.875C26.2812 4.85625 26.2531 4.84375 26.2188 4.84375C26.1844 4.84375 26.1562 4.82812 26.1562 4.8125C26.1562 4.79375 26.1281 4.78125 26.0938 4.78125C26.0594 4.78125 26.0312 4.76562 26.0312 4.75C26.0312 4.73125 26.0031 4.71875 25.9688 4.71875C25.9344 4.71875 25.9062 4.70312 25.9062 4.6875C25.9062 4.66875 25.8781 4.65625 25.8469 4.65625C25.8125 4.65625 25.775 4.64062 25.7656 4.625C25.7563 4.60625 25.7125 4.59375 25.6688 4.59375C25.6281 4.59375 25.5938 4.57812 25.5938 4.5625C25.5938 4.54375 25.5656 4.53125 25.5312 4.53125C25.4969 4.53125 25.4688 4.51562 25.4688 4.5C25.4688 4.48125 25.4406 4.46875 25.4062 4.46875C25.3719 4.46875 25.3438 4.45312 25.3438 4.4375C25.3438 4.41875 25.3156 4.40625 25.2812 4.40625C25.2469 4.40625 25.2188 4.39062 25.2188 4.375C25.2188 4.35625 25.1906 4.34375 25.1594 4.34375C25.125 4.34375 25.0875 4.32812 25.0781 4.3125C25.0688 4.29375 25.025 4.28125 24.9813 4.28125C24.9406 4.28125 24.9062 4.26562 24.9062 4.25C24.9062 4.23125 24.8781 4.21875 24.8438 4.21875C24.8094 4.21875 24.7812 4.20312 24.7812 4.1875C24.7812 4.16875 24.7531 4.15625 24.7188 4.15625C24.6844 4.15625 24.6562 4.14062 24.6562 4.125C24.6562 4.10625 24.6281 4.09375 24.5938 4.09375C24.5594 4.09375 24.5312 4.07812 24.5312 4.0625C24.5312 4.04375 24.5031 4.03125 24.4719 4.03125C24.4375 4.03125 24.4 4.01562 24.3906 4C24.3813 3.98125 24.3375 3.96875 24.2938 3.96875C24.2531 3.96875 24.2188 3.95312 24.2188 3.9375C24.2188 3.91875 24.1906 3.90625 24.1562 3.90625C24.1219 3.90625 24.0938 3.89062 24.0938 3.875C24.0938 3.85625 24.0656 3.84375 24.0312 3.84375C23.9969 3.84375 23.9688 3.82812 23.9688 3.8125C23.9688 3.79375 23.9406 3.78125 23.9062 3.78125C23.8719 3.78125 23.8438 3.76562 23.8438 3.75C23.8438 3.73125 23.8156 3.71875 23.7844 3.71875C23.75 3.71875 23.7125 3.70312 23.7031 3.6875C23.6938 3.66875 23.65 3.65625 23.6063 3.65625C23.5656 3.65625 23.5312 3.64062 23.5312 3.625C23.5312 3.60625 23.5031 3.59375 23.4688 3.59375C23.4344 3.59375 23.4062 3.57812 23.4062 3.5625C23.4062 3.54375 23.3781 3.53125 23.3438 3.53125C23.3094 3.53125 23.2812 3.51562 23.2812 3.5C23.2812 3.48125 23.2531 3.46875 23.2188 3.46875C23.1844 3.46875 23.1562 3.45312 23.1562 3.4375C23.1562 3.41875 23.1344 3.40625 23.1094 3.40625C23.0844 3.40625 23.0344 3.39062 23 3.375C22.9656 3.35625 22.9094 3.32812 22.875 3.3125C22.8406 3.29375 22.7906 3.28125 22.7656 3.28125C22.7406 3.28125 22.7188 3.26562 22.7188 3.25C22.7188 3.23125 22.6906 3.21875 22.6562 3.21875C22.6219 3.21875 22.5938 3.20312 22.5938 3.1875C22.5938 3.16875 22.5656 3.15625 22.5312 3.15625C22.4969 3.15625 22.4688 3.14062 22.4688 3.125C22.4688 3.10625 22.4469 3.09375 22.4219 3.09375C22.375 3.09375 22.3438 3.08125 22.1969 3.00625C22.1562 2.98438 22.1031 2.96875 22.0781 2.96875C22.0531 2.96875 22.0312 2.95312 22.0312 2.9375C22.0312 2.91875 22.0031 2.90625 21.9688 2.90625C21.9344 2.90625 21.9062 2.89062 21.9062 2.875C21.9062 2.85625 21.8781 2.84375 21.8438 2.84375C21.8094 2.84375 21.7812 2.82812 21.7812 2.8125C21.7812 2.79375 21.7594 2.78125 21.7344 2.78125C21.7094 2.78125 21.6562 2.76562 21.6156 2.74375C21.4688 2.66875 21.4375 2.65625 21.3906 2.65625C21.3656 2.65625 21.3438 2.64062 21.3438 2.625C21.3438 2.60625 21.3156 2.59375 21.2812 2.59375C21.2469 2.59375 21.2188 2.57812 21.2188 2.5625C21.2188 2.54375 21.1906 2.53125 21.1562 2.53125C21.1219 2.53125 21.0938 2.51562 21.0938 2.5C21.0938 2.48125 21.0719 2.46875 21.0469 2.46875C21.0219 2.46875 20.9719 2.45312 20.9375 2.4375C20.9031 2.41875 20.8469 2.39062 20.8125 2.375C20.7781 2.35625 20.7281 2.34375 20.7031 2.34375C20.6781 2.34375 20.6562 2.32812 20.6562 2.3125C20.6562 2.29375 20.6281 2.28125 20.5938 2.28125C20.5594 2.28125 20.5312 2.26562 20.5312 2.25C20.5312 2.23125 20.5031 2.21875 20.4688 2.21875C20.4344 2.21875 20.4062 2.20312 20.4062 2.1875C20.4062 2.16875 20.3844 2.15625 20.3594 2.15625C20.3344 2.15625 20.2844 2.14062 20.25 2.125C20.2156 2.10625 20.1594 2.07812 20.125 2.0625C20.0906 2.04375 20.0406 2.03125 20.0156 2.03125C19.9906 2.03125 19.9688 2.01562 19.9688 2C19.9688 1.98125 19.9406 1.96875 19.9062 1.96875C19.8719 1.96875 19.8438 1.95312 19.8438 1.9375C19.8438 1.91875 19.8156 1.90625 19.7812 1.90625C19.7469 1.90625 19.7188 1.89062 19.7188 1.875C19.7188 1.85625 19.6969 1.84375 19.6719 1.84375C19.6469 1.84375 19.5969 1.82812 19.5625 1.8125C19.5281 1.79375 19.4719 1.76562 19.4375 1.75C19.4031 1.73125 19.3531 1.71875 19.3281 1.71875C19.3031 1.71875 19.2812 1.70312 19.2812 1.6875C19.2812 1.66875 19.2531 1.65625 19.2188 1.65625C19.1844 1.65625 19.1562 1.64062 19.1562 1.625C19.1562 1.60625 19.1281 1.59375 19.0938 1.59375C19.0594 1.59375 19.0312 1.57812 19.0312 1.5625C19.0312 1.54375 19.0031 1.53125 18.9688 1.53125C18.9344 1.53125 18.9062 1.51562 18.9062 1.5C18.9062 1.48125 18.8719 1.46875 18.8313 1.46875C18.7875 1.46875 18.7437 1.45312 18.7344 1.4375C18.725 1.41875 18.6875 1.40625 18.6531 1.40625C18.6219 1.40625 18.5938 1.39062 18.5938 1.375C18.5938 1.35625 18.5656 1.34375 18.5312 1.34375C18.4969 1.34375 18.4688 1.32812 18.4688 1.3125C18.4688 1.29375 18.4406 1.28125 18.4062 1.28125C18.3719 1.28125 18.3438 1.26562 18.3438 1.25C18.3438 1.23125 18.3156 1.21875 18.2812 1.21875C18.2469 1.21875 18.2188 1.20312 18.2188 1.1875C18.2188 1.16875 18.1844 1.15625 18.1438 1.15625C18.1 1.15625 18.0562 1.14062 18.0469 1.125C18.0375 1.10625 18 1.09375 17.9656 1.09375C17.9344 1.09375 17.9062 1.07812 17.9062 1.0625C17.9062 1.04375 17.8781 1.03125 17.8438 1.03125C17.8094 1.03125 17.7812 1.01562 17.7812 1C17.7812 0.98125 17.7531 0.96875 17.7188 0.96875C17.6844 0.96875 17.6562 0.953125 17.6562 0.9375C17.6562 0.91875 17.6281 0.90625 17.5938 0.90625C17.5594 0.90625 17.5312 0.890625 17.5312 0.875C17.5312 0.85625 17.4969 0.84375 17.4563 0.84375C17.4125 0.84375 17.3687 0.828125 17.3594 0.8125C17.35 0.79375 17.3125 0.78125 17.2781 0.78125C17.2469 0.78125 17.2188 0.765625 17.2188 0.75C17.2188 0.73125 17.1906 0.71875 17.1562 0.71875C17.1219 0.71875 17.0938 0.703125 17.0938 0.6875C17.0938 0.66875 17.0656 0.65625 17.0312 0.65625C16.9969 0.65625 16.9688 0.640625 16.9688 0.625C16.9688 0.60625 16.9406 0.59375 16.9094 0.59375C16.875 0.59375 16.8438 0.578125 16.8375 0.55625C16.825 0.51875 16.3594 0.490625 16.2281 0.51875ZM16.5938 2.6875C16.5938 2.70312 16.6219 2.71875 16.6562 2.71875C16.6906 2.71875 16.7188 2.73125 16.7188 2.75C16.7188 2.76562 16.7406 2.78125 16.7656 2.78125C16.7906 2.78125 16.8438 2.79688 16.8844 2.81875C17.0312 2.89375 17.0625 2.90625 17.1094 2.90625C17.1344 2.90625 17.1562 2.91875 17.1562 2.9375C17.1562 2.95312 17.1844 2.96875 17.2188 2.96875C17.2531 2.96875 17.2812 2.98125 17.2812 3C17.2812 3.01562 17.3094 3.03125 17.3438 3.03125C17.3781 3.03125 17.4062 3.04375 17.4062 3.0625C17.4062 3.07812 17.4281 3.09375 17.4531 3.09375C17.5 3.09375 17.5312 3.10625 17.6781 3.18125C17.7188 3.20312 17.7719 3.21875 17.7969 3.21875C17.8219 3.21875 17.8438 3.23125 17.8438 3.25C17.8438 3.26562 17.8719 3.28125 17.9062 3.28125C17.9406 3.28125 17.9688 3.29375 17.9688 3.3125C17.9688 3.32812 17.9969 3.34375 18.0312 3.34375C18.0656 3.34375 18.0938 3.35625 18.0938 3.375C18.0938 3.39062 18.1156 3.40625 18.1406 3.40625C18.1656 3.40625 18.2156 3.41875 18.25 3.4375C18.2844 3.45312 18.3406 3.48125 18.375 3.5C18.4094 3.51562 18.4594 3.53125 18.4844 3.53125C18.5094 3.53125 18.5312 3.54375 18.5312 3.5625C18.5312 3.57812 18.5594 3.59375 18.5938 3.59375C18.6281 3.59375 18.6562 3.60625 18.6562 3.625C18.6562 3.64062 18.6844 3.65625 18.7188 3.65625C18.7531 3.65625 18.7812 3.66875 18.7812 3.6875C18.7812 3.70312 18.8031 3.71875 18.8281 3.71875C18.8531 3.71875 18.9031 3.73125 18.9375 3.75C18.9719 3.76562 19.0281 3.79375 19.0625 3.8125C19.0969 3.82812 19.1469 3.84375 19.1719 3.84375C19.1969 3.84375 19.2188 3.85625 19.2188 3.875C19.2188 3.89062 19.2469 3.90625 19.2812 3.90625C19.3156 3.90625 19.3438 3.91875 19.3438 3.9375C19.3438 3.95312 19.3719 3.96875 19.4062 3.96875C19.4406 3.96875 19.4688 3.98125 19.4688 4C19.4688 4.01562 19.4906 4.03125 19.5156 4.03125C19.5625 4.03125 19.5938 4.04375 19.7406 4.11875C19.7812 4.14062 19.8344 4.15625 19.8594 4.15625C19.8844 4.15625 19.9062 4.16875 19.9062 4.1875C19.9062 4.20312 19.9344 4.21875 19.9688 4.21875C20.0031 4.21875 20.0312 4.23125 20.0312 4.25C20.0312 4.26562 20.0594 4.28125 20.0938 4.28125C20.1281 4.28125 20.1562 4.29375 20.1562 4.3125C20.1562 4.32812 20.1781 4.34375 20.2031 4.34375C20.2281 4.34375 20.2812 4.35938 20.3219 4.38125C20.4688 4.45625 20.5 4.46875 20.5469 4.46875C20.5719 4.46875 20.5938 4.48125 20.5938 4.5C20.5938 4.51562 20.6219 4.53125 20.6562 4.53125C20.6906 4.53125 20.7188 4.54375 20.7188 4.5625C20.7188 4.57812 20.7469 4.59375 20.7812 4.59375C20.8156 4.59375 20.8438 4.60625 20.8438 4.625C20.8438 4.64062 20.8656 4.65625 20.8906 4.65625C20.9156 4.65625 20.9656 4.66875 21 4.6875C21.0344 4.70312 21.0906 4.73125 21.125 4.75C21.1594 4.76562 21.2094 4.78125 21.2344 4.78125C21.2594 4.78125 21.2812 4.79375 21.2812 4.8125C21.2812 4.82812 21.3094 4.84375 21.3438 4.84375C21.3781 4.84375 21.4062 4.85625 21.4062 4.875C21.4062 4.89062 21.4344 4.90625 21.4688 4.90625C21.5031 4.90625 21.5312 4.91875 21.5312 4.9375C21.5312 4.95312 21.5594 4.96875 21.5938 4.96875C21.6281 4.96875 21.6562 4.98125 21.6562 5C21.6562 5.01562 21.6906 5.03125 21.7313 5.03125C21.775 5.03125 21.8188 5.04375 21.8281 5.0625C21.8375 5.07812 21.875 5.09375 21.9094 5.09375C21.9406 5.09375 21.9688 5.10625 21.9688 5.125C21.9688 5.14062 21.9969 5.15625 22.0312 5.15625C22.0656 5.15625 22.0938 5.16875 22.0938 5.1875C22.0938 5.20312 22.1219 5.21875 22.1562 5.21875C22.1906 5.21875 22.2188 5.23125 22.2188 5.25C22.2188 5.26562 22.2469 5.28125 22.2812 5.28125C22.3156 5.28125 22.3438 5.29375 22.3438 5.3125C22.3438 5.32812 22.3781 5.34375 22.4188 5.34375C22.4625 5.34375 22.5063 5.35625 22.5156 5.375C22.525 5.39062 22.5625 5.40625 22.5969 5.40625C22.6281 5.40625 22.6562 5.41875 22.6562 5.4375C22.6562 5.45312 22.6844 5.46875 22.7188 5.46875C22.7531 5.46875 22.7812 5.48125 22.7812 5.5C22.7812 5.51562 22.8094 5.53125 22.8438 5.53125C22.8781 5.53125 22.9062 5.54375 22.9062 5.5625C22.9062 5.57812 22.9344 5.59375 22.9688 5.59375C23.0031 5.59375 23.0312 5.60625 23.0312 5.625C23.0312 5.64062 23.0656 5.65625 23.1063 5.65625C23.15 5.65625 23.1938 5.66875 23.2031 5.6875C23.2125 5.70312 23.25 5.71875 23.2844 5.71875C23.3156 5.71875 23.3438 5.73125 23.3438 5.75C23.3438 5.76562 23.3719 5.78125 23.4062 5.78125C23.4406 5.78125 23.4688 5.79375 23.4688 5.8125C23.4688 5.82812 23.4969 5.84375 23.5312 5.84375C23.5656 5.84375 23.5938 5.85625 23.5938 5.875C23.5938 5.89062 23.6219 5.90625 23.6562 5.90625C23.6906 5.90625 23.7188 5.91875 23.7188 5.9375C23.7188 5.95312 23.7531 5.96875 23.7938 5.96875C23.8375 5.96875 23.8813 5.98125 23.8906 6C23.9 6.01562 23.9375 6.03125 23.9719 6.03125C24.0031 6.03125 24.0312 6.04375 24.0312 6.0625C24.0312 6.07812 24.0594 6.09375 24.0938 6.09375C24.1281 6.09375 24.1562 6.10625 24.1562 6.125C24.1562 6.14062 24.1844 6.15625 24.2188 6.15625C24.2531 6.15625 24.2812 6.16875 24.2812 6.1875C24.2812 6.20312 24.3094 6.21875 24.3438 6.21875C24.3781 6.21875 24.4062 6.23125 24.4062 6.25C24.4062 6.26562 24.4406 6.28125 24.4813 6.28125C24.525 6.28125 24.5688 6.29375 24.5781 6.3125C24.5875 6.32812 24.625 6.34375 24.6594 6.34375C24.6906 6.34375 24.7188 6.35625 24.7188 6.375C24.7188 6.39062 24.7469 6.40625 24.7812 6.40625C24.8156 6.40625 24.8438 6.41875 24.8438 6.4375C24.8438 6.45312 24.8719 6.46875 24.9062 6.46875C24.9406 6.46875 24.9688 6.48125 24.9688 6.5C24.9688 6.51562 24.9969 6.53125 25.0312 6.53125C25.0656 6.53125 25.0938 6.54375 25.0938 6.5625C25.0938 6.57812 25.1281 6.59375 25.1688 6.59375C25.2125 6.59375 25.2563 6.60625 25.2656 6.625C25.275 6.64062 25.3125 6.65625 25.3469 6.65625C25.3781 6.65625 25.4062 6.66875 25.4062 6.6875C25.4062 6.70312 25.4344 6.71875 25.4688 6.71875C25.5031 6.71875 25.5312 6.73125 25.5312 6.75C25.5312 6.76562 25.5594 6.78125 25.5938 6.78125C25.6281 6.78125 25.6562 6.79375 25.6562 6.8125C25.6562 6.82812 25.6844 6.84375 25.7188 6.84375C25.7531 6.84375 25.7812 6.85625 25.7812 6.875C25.7812 6.89062 25.8156 6.90625 25.8563 6.90625C25.9 6.90625 25.9438 6.91875 25.9531 6.9375C25.9625 6.95312 26 6.96875 26.0344 6.96875C26.0656 6.96875 26.0938 6.98125 26.0938 7C26.0938 7.01562 26.1219 7.03125 26.1562 7.03125C26.1906 7.03125 26.2188 7.04375 26.2188 7.0625C26.2188 7.07812 26.2469 7.09375 26.2812 7.09375C26.3156 7.09375 26.3438 7.10625 26.3438 7.125C26.3438 7.14062 26.3719 7.15625 26.4062 7.15625C26.4406 7.15625 26.4688 7.16875 26.4688 7.1875C26.4688 7.20312 26.5031 7.21875 26.5438 7.21875C26.5875 7.21875 26.6313 7.23125 26.6406 7.25C26.65 7.26562 26.6875 7.28125 26.7219 7.28125C26.7531 7.28125 26.7812 7.29375 26.7812 7.3125C26.7812 7.32812 26.8094 7.34375 26.8438 7.34375C26.8781 7.34375 26.9062 7.35625 26.9062 7.375C26.9062 7.39062 26.9344 7.40625 26.9688 7.40625C27.0031 7.40625 27.0312 7.41875 27.0312 7.4375C27.0312 7.45312 27.0594 7.46875 27.0938 7.46875C27.1281 7.46875 27.1562 7.48125 27.1562 7.5C27.1562 7.51562 27.1906 7.53125 27.2313 7.53125C27.275 7.53125 27.3188 7.54375 27.3281 7.5625C27.3375 7.57812 27.375 7.59375 27.4094 7.59375C27.4406 7.59375 27.4688 7.60625 27.4688 7.625C27.4688 7.64062 27.4969 7.65625 27.5312 7.65625C27.5656 7.65625 27.5938 7.66875 27.5938 7.6875C27.5938 7.70312 27.6219 7.71875 27.6562 7.71875C27.6906 7.71875 27.7188 7.73125 27.7188 7.75C27.7188 7.76562 27.7469 7.78125 27.7812 7.78125C27.8156 7.78125 27.8438 7.79375 27.8438 7.8125C27.8438 7.82812 27.8719 7.84375 27.9031 7.84375C27.9375 7.84375 27.975 7.85625 27.9844 7.875C27.9937 7.89062 28.0375 7.90625 28.0813 7.90625C28.1219 7.90625 28.1562 7.91875 28.1562 7.9375C28.1562 7.95312 28.1844 7.96875 28.2188 7.96875C28.2531 7.96875 28.2812 7.98125 28.2812 8C28.2812 8.01562 28.3094 8.03125 28.3438 8.03125C28.3781 8.03125 28.4062 8.04375 28.4062 8.0625C28.4062 8.07812 28.4344 8.09375 28.4688 8.09375C28.5031 8.09375 28.5312 8.10625 28.5312 8.125C28.5312 8.14062 28.5594 8.15625 28.5906 8.15625C28.625 8.15625 28.6625 8.16875 28.6719 8.1875C28.6812 8.20312 28.725 8.21875 28.7688 8.21875C28.8094 8.21875 28.8438 8.23125 28.8438 8.25C28.8438 8.26562 28.8719 8.28125 28.9062 8.28125C28.9406 8.28125 28.9688 8.29375 28.9688 8.3125C28.9688 8.32812 28.9969 8.34375 29.0312 8.34375C29.0656 8.34375 29.0938 8.35625 29.0938 8.375C29.0938 8.39062 29.1219 8.40625 29.1562 8.40625C29.1906 8.40625 29.2188 8.41875 29.2188 8.4375C29.2188 8.45312 29.2469 8.46875 29.2781 8.46875C29.3125 8.46875 29.35 8.48125 29.3594 8.5C29.3687 8.51562 29.4125 8.53125 29.4563 8.53125C29.4969 8.53125 29.5312 8.54375 29.5312 8.5625C29.5312 8.57812 29.5594 8.59375 29.5938 8.59375C29.6281 8.59375 29.6562 8.60625 29.6562 8.625C29.6562 8.64062 29.6844 8.65625 29.7188 8.65625C29.7531 8.65625 29.7812 8.66875 29.7812 8.6875C29.7812 8.70312 29.8094 8.71875 29.8438 8.71875C29.8781 8.71875 29.9062 8.73125 29.9062 8.75C29.9062 8.76562 29.9344 8.78125 29.9656 8.78125C30 8.78125 30.0375 8.79375 30.0469 8.8125C30.0562 8.82812 30.1 8.84375 30.1438 8.84375C30.1844 8.84375 30.2188 8.85625 30.2188 8.875C30.2188 8.89062 30.2469 8.90625 30.2812 8.90625C30.3156 8.90625 30.3438 8.91875 30.3438 8.9375C30.3438 8.95312 30.3719 8.96875 30.4062 8.96875C30.4406 8.96875 30.4688 8.98125 30.4688 9C30.4688 9.01562 30.4969 9.03125 30.5312 9.03125C30.5938 9.03125 30.5938 9.05312 30.5938 19.8125V30.5938H26.9062V28.7812H28.7812V19.2812H27.5C26.2406 19.2812 26.2188 19.2812 26.2188 19.2188C26.2188 19.1844 26.2062 19.1562 26.1875 19.1562C26.1719 19.1562 26.1562 19.1281 26.1562 19.0938C26.1562 19.0594 26.1437 19.0312 26.125 19.0312C26.1094 19.0312 26.0938 19.0031 26.0938 18.9688C26.0938 18.9344 26.0812 18.9062 26.0625 18.9062C26.0469 18.9062 26.0312 18.8781 26.0312 18.8438C26.0312 18.8094 26.0187 18.7812 26 18.7812C25.9844 18.7812 25.9688 18.7531 25.9688 18.7188C25.9688 18.6844 25.9562 18.6562 25.9375 18.6562C25.9219 18.6562 25.9062 18.6281 25.9062 18.5938C25.9062 18.5594 25.8937 18.5312 25.875 18.5312C25.8594 18.5312 25.8438 18.5031 25.8438 18.4688C25.8438 18.4344 25.8312 18.4062 25.8125 18.4062C25.7969 18.4062 25.7812 18.3781 25.7812 18.3438C25.7812 18.3094 25.7687 18.2812 25.75 18.2812C25.7344 18.2812 25.7188 18.2531 25.7188 18.2188C25.7188 18.1844 25.7062 18.1562 25.6875 18.1562C25.6719 18.1562 25.6562 18.1281 25.6562 18.0938C25.6562 18.0594 25.6437 18.0312 25.625 18.0312C25.6094 18.0312 25.5938 18.0031 25.5938 17.9688C25.5938 17.9344 25.5812 17.9062 25.5625 17.9062C25.5469 17.9062 25.5312 17.8781 25.5312 17.8438C25.5312 17.8094 25.5187 17.7812 25.5 17.7812C25.4844 17.7812 25.4688 17.7531 25.4688 17.7188C25.4688 17.6844 25.4562 17.6562 25.4375 17.6562C25.4219 17.6562 25.4062 17.6281 25.4062 17.5938C25.4062 17.5594 25.3937 17.5312 25.375 17.5312C25.3594 17.5312 25.3438 17.5031 25.3438 17.4688C25.3438 17.4344 25.3312 17.4062 25.3125 17.4062C25.2969 17.4062 25.2812 17.3781 25.2812 17.3438C25.2812 17.3094 25.2687 17.2812 25.25 17.2812C25.2344 17.2812 25.2188 17.2531 25.2188 17.2188C25.2188 17.1844 25.2062 17.1562 25.1875 17.1562C25.1719 17.1562 25.1562 17.1281 25.1562 17.0938C25.1562 17.0594 25.1437 17.0312 25.125 17.0312C25.1094 17.0312 25.0938 17.0031 25.0938 16.9688C25.0938 16.9344 25.0812 16.9062 25.0625 16.9062C25.0469 16.9062 25.0312 16.8781 25.0312 16.8438C25.0312 16.8094 25.0187 16.7812 25 16.7812C24.9844 16.7812 24.9688 16.7531 24.9688 16.7188C24.9688 16.6844 24.9562 16.6562 24.9375 16.6562C24.9219 16.6562 24.9062 16.6281 24.9062 16.5938C24.9062 16.5594 24.8937 16.5312 24.875 16.5312C24.8594 16.5312 24.8438 16.5031 24.8438 16.4688C24.8438 16.4344 24.8312 16.4062 24.8125 16.4062C24.7969 16.4062 24.7812 16.3781 24.7812 16.3438C24.7812 16.3094 24.7687 16.2812 24.75 16.2812C24.7344 16.2812 24.7188 16.2531 24.7188 16.2188C24.7188 16.1844 24.7062 16.1562 24.6875 16.1562C24.6719 16.1562 24.6562 16.1281 24.6562 16.0938C24.6562 16.0594 24.6437 16.0312 24.625 16.0312C24.6094 16.0312 24.5938 16.0031 24.5938 15.9688C24.5938 15.9344 24.5812 15.9062 24.5625 15.9062C24.5469 15.9062 24.5312 15.8781 24.5312 15.8438C24.5312 15.8094 24.5187 15.7812 24.5 15.7812C24.4844 15.7812 24.4688 15.7531 24.4688 15.7188C24.4688 15.6844 24.4562 15.6562 24.4375 15.6562C24.4219 15.6562 24.4062 15.6281 24.4062 15.5938C24.4062 15.5594 24.3937 15.5312 24.375 15.5312C24.3594 15.5312 24.3438 15.5031 24.3438 15.4688C24.3438 15.4344 24.3312 15.4062 24.3125 15.4062C24.2969 15.4062 24.2812 15.3781 24.2812 15.3438C24.2812 15.3094 24.2687 15.2812 24.25 15.2812C24.2344 15.2812 24.2188 15.2531 24.2188 15.2188C24.2188 15.1844 24.2062 15.1562 24.1875 15.1562C24.1719 15.1562 24.1562 15.1281 24.1562 15.0938C24.1562 15.0594 24.1437 15.0312 24.125 15.0312C24.1094 15.0312 24.0938 15.0031 24.0938 14.9688C24.0938 14.9344 24.0812 14.9062 24.0625 14.9062C24.0469 14.9062 24.0312 14.8781 24.0312 14.8438C24.0312 14.8094 24.0187 14.7812 24 14.7812C23.9844 14.7812 23.9688 14.7531 23.9688 14.7188C23.9688 14.6844 23.9562 14.6562 23.9375 14.6562C23.9219 14.6562 23.9062 14.6281 23.9062 14.5938C23.9062 14.5594 23.8937 14.5312 23.875 14.5312C23.8594 14.5312 23.8438 14.5031 23.8438 14.4688C23.8438 14.4344 23.8312 14.4062 23.8125 14.4062C23.7969 14.4062 23.7812 14.3781 23.7812 14.3438C23.7812 14.3094 23.7687 14.2812 23.75 14.2812C23.7344 14.2812 23.7188 14.2531 23.7188 14.2188C23.7188 14.1844 23.7062 14.1562 23.6875 14.1562C23.6719 14.1562 23.6562 14.1281 23.6562 14.0938C23.6562 14.0594 23.6437 14.0312 23.625 14.0312C23.6094 14.0312 23.5938 14.0031 23.5938 13.9688C23.5938 13.9344 23.5812 13.9062 23.5625 13.9062C23.5469 13.9062 23.5312 13.8781 23.5312 13.8438C23.5312 13.8094 23.5187 13.7812 23.5 13.7812C23.4844 13.7812 23.4688 13.7531 23.4688 13.7188C23.4688 13.6844 23.4562 13.6562 23.4375 13.6562C23.4219 13.6562 23.4062 13.6281 23.4062 13.5938C23.4062 13.5594 23.3937 13.5312 23.375 13.5312C23.3594 13.5312 23.3438 13.5031 23.3438 13.4688C23.3438 13.4344 23.3312 13.4062 23.3125 13.4062C23.2969 13.4062 23.2812 13.3781 23.2812 13.3438C23.2812 13.3094 23.2687 13.2812 23.25 13.2812C23.2344 13.2812 23.2188 13.2531 23.2188 13.2188C23.2188 13.1844 23.2062 13.1562 23.1875 13.1562C23.1719 13.1562 23.1562 13.1281 23.1562 13.0938C23.1562 13.0312 23.1344 13.0312 16.5 13.0312C9.86563 13.0312 9.84375 13.0312 9.84375 13.0938C9.84375 13.1281 9.83125 13.1562 9.8125 13.1562C9.79688 13.1562 9.78125 13.1844 9.78125 13.2188C9.78125 13.2531 9.76875 13.2812 9.75 13.2812C9.73438 13.2812 9.71875 13.3094 9.71875 13.3438C9.71875 13.3781 9.70625 13.4062 9.6875 13.4062C9.67188 13.4062 9.65625 13.4344 9.65625 13.4688C9.65625 13.5031 9.64375 13.5312 9.625 13.5312C9.60938 13.5312 9.59375 13.5594 9.59375 13.5938C9.59375 13.6281 9.58125 13.6562 9.5625 13.6562C9.54688 13.6562 9.53125 13.6844 9.53125 13.7188C9.53125 13.7531 9.51875 13.7812 9.5 13.7812C9.48438 13.7812 9.46875 13.8094 9.46875 13.8438C9.46875 13.8781 9.45625 13.9062 9.4375 13.9062C9.42188 13.9062 9.40625 13.9344 9.40625 13.9688C9.40625 14.0031 9.39375 14.0312 9.375 14.0312C9.35938 14.0312 9.34375 14.0594 9.34375 14.0938C9.34375 14.1281 9.33125 14.1562 9.3125 14.1562C9.29688 14.1562 9.28125 14.1844 9.28125 14.2188C9.28125 14.2531 9.26875 14.2812 9.25 14.2812C9.23438 14.2812 9.21875 14.3094 9.21875 14.3438C9.21875 14.3781 9.20625 14.4062 9.1875 14.4062C9.17188 14.4062 9.15625 14.4344 9.15625 14.4688C9.15625 14.5031 9.14375 14.5312 9.125 14.5312C9.10938 14.5312 9.09375 14.5594 9.09375 14.5938C9.09375 14.6281 9.08125 14.6562 9.0625 14.6562C9.04688 14.6562 9.03125 14.6844 9.03125 14.7188C9.03125 14.7531 9.01875 14.7812 9 14.7812C8.98438 14.7812 8.96875 14.8094 8.96875 14.8438C8.96875 14.8781 8.95625 14.9062 8.9375 14.9062C8.92188 14.9062 8.90625 14.9344 8.90625 14.9688C8.90625 15.0031 8.89375 15.0312 8.875 15.0312C8.85938 15.0312 8.84375 15.0594 8.84375 15.0938C8.84375 15.1281 8.83125 15.1562 8.8125 15.1562C8.79688 15.1562 8.78125 15.1844 8.78125 15.2188C8.78125 15.2531 8.76875 15.2812 8.75 15.2812C8.73438 15.2812 8.71875 15.3094 8.71875 15.3438C8.71875 15.3781 8.70625 15.4062 8.6875 15.4062C8.67188 15.4062 8.65625 15.4344 8.65625 15.4688C8.65625 15.5031 8.64375 15.5312 8.625 15.5312C8.60938 15.5312 8.59375 15.5594 8.59375 15.5938C8.59375 15.6281 8.58125 15.6562 8.5625 15.6562C8.54688 15.6562 8.53125 15.6844 8.53125 15.7188C8.53125 15.7531 8.51875 15.7812 8.5 15.7812C8.48438 15.7812 8.46875 15.8094 8.46875 15.8438C8.46875 15.8781 8.45625 15.9062 8.4375 15.9062C8.42188 15.9062 8.40625 15.9344 8.40625 15.9688C8.40625 16.0031 8.39375 16.0312 8.375 16.0312C8.35938 16.0312 8.34375 16.0594 8.34375 16.0938C8.34375 16.1281 8.33125 16.1562 8.3125 16.1562C8.29688 16.1562 8.28125 16.1844 8.28125 16.2188C8.28125 16.2531 8.26875 16.2812 8.25 16.2812C8.23438 16.2812 8.21875 16.3094 8.21875 16.3438C8.21875 16.3781 8.20625 16.4062 8.1875 16.4062C8.17188 16.4062 8.15625 16.4344 8.15625 16.4688C8.15625 16.5031 8.14375 16.5312 8.125 16.5312C8.10938 16.5312 8.09375 16.5594 8.09375 16.5938C8.09375 16.6281 8.08125 16.6562 8.0625 16.6562C8.04688 16.6562 8.03125 16.6844 8.03125 16.7188C8.03125 16.7531 8.01875 16.7812 8 16.7812C7.98438 16.7812 7.96875 16.8094 7.96875 16.8438C7.96875 16.8781 7.95625 16.9062 7.9375 16.9062C7.92188 16.9062 7.90625 16.9344 7.90625 16.9688C7.90625 17.0031 7.89375 17.0312 7.875 17.0312C7.85938 17.0312 7.84375 17.0594 7.84375 17.0938C7.84375 17.1281 7.83125 17.1562 7.8125 17.1562C7.79688 17.1562 7.78125 17.1844 7.78125 17.2188C7.78125 17.2531 7.76875 17.2812 7.75 17.2812C7.73438 17.2812 7.71875 17.3094 7.71875 17.3438C7.71875 17.3781 7.70625 17.4062 7.6875 17.4062C7.67188 17.4062 7.65625 17.4344 7.65625 17.4688C7.65625 17.5031 7.64375 17.5312 7.625 17.5312C7.60938 17.5312 7.59375 17.5594 7.59375 17.5938C7.59375 17.6281 7.58125 17.6562 7.5625 17.6562C7.54688 17.6562 7.53125 17.6844 7.53125 17.7188C7.53125 17.7531 7.51875 17.7812 7.5 17.7812C7.48438 17.7812 7.46875 17.8094 7.46875 17.8438C7.46875 17.8781 7.45625 17.9062 7.4375 17.9062C7.42188 17.9062 7.40625 17.9344 7.40625 17.9688C7.40625 18.0031 7.39375 18.0312 7.375 18.0312C7.35938 18.0312 7.34375 18.0594 7.34375 18.0938C7.34375 18.1281 7.33125 18.1562 7.3125 18.1562C7.29688 18.1562 7.28125 18.1844 7.28125 18.2188C7.28125 18.2531 7.26875 18.2812 7.25 18.2812C7.23438 18.2812 7.21875 18.3094 7.21875 18.3438C7.21875 18.3781 7.20625 18.4062 7.1875 18.4062C7.17188 18.4062 7.15625 18.4344 7.15625 18.4688C7.15625 18.5031 7.14375 18.5312 7.125 18.5312C7.10938 18.5312 7.09375 18.5594 7.09375 18.5938C7.09375 18.6281 7.08125 18.6562 7.0625 18.6562C7.04688 18.6562 7.03125 18.6844 7.03125 18.7188C7.03125 18.7531 7.01875 18.7812 7 18.7812C6.98438 18.7812 6.96875 18.8094 6.96875 18.8438C6.96875 18.8781 6.95625 18.9062 6.9375 18.9062C6.92188 18.9062 6.90625 18.9344 6.90625 18.9688C6.90625 19.0031 6.89375 19.0312 6.875 19.0312C6.85938 19.0312 6.84375 19.0594 6.84375 19.0938C6.84375 19.1281 6.83125 19.1562 6.8125 19.1562C6.79688 19.1562 6.78125 19.1844 6.78125 19.2188C6.78125 19.2812 6.75938 19.2812 5.5 19.2812H4.21875V28.7812H6.09375V30.5938H2.40625V19.8125C2.40625 9.05312 2.40625 9.03125 2.46875 9.03125C2.50312 9.03125 2.53125 9.01562 2.53125 9C2.53125 8.98125 2.55938 8.96875 2.59375 8.96875C2.62812 8.96875 2.65625 8.95312 2.65625 8.9375C2.65625 8.91875 2.68438 8.90625 2.71875 8.90625C2.75312 8.90625 2.78125 8.89062 2.78125 8.875C2.78125 8.85625 2.81562 8.84375 2.85625 8.84375C2.9 8.84375 2.94375 8.82812 2.95312 8.8125C2.9625 8.79375 3 8.78125 3.03437 8.78125C3.06562 8.78125 3.09375 8.76562 3.09375 8.75C3.09375 8.73125 3.12188 8.71875 3.15625 8.71875C3.19062 8.71875 3.21875 8.70312 3.21875 8.6875C3.21875 8.66875 3.24688 8.65625 3.28125 8.65625C3.31562 8.65625 3.34375 8.64062 3.34375 8.625C3.34375 8.60625 3.37188 8.59375 3.40625 8.59375C3.44062 8.59375 3.46875 8.57812 3.46875 8.5625C3.46875 8.54375 3.50312 8.53125 3.54375 8.53125C3.5875 8.53125 3.63125 8.51562 3.64062 8.5C3.65 8.48125 3.6875 8.46875 3.72187 8.46875C3.75312 8.46875 3.78125 8.45312 3.78125 8.4375C3.78125 8.41875 3.80938 8.40625 3.84375 8.40625C3.87812 8.40625 3.90625 8.39062 3.90625 8.375C3.90625 8.35625 3.93438 8.34375 3.96875 8.34375C4.00312 8.34375 4.03125 8.32812 4.03125 8.3125C4.03125 8.29375 4.05938 8.28125 4.09375 8.28125C4.12812 8.28125 4.15625 8.26562 4.15625 8.25C4.15625 8.23125 4.19062 8.21875 4.23125 8.21875C4.275 8.21875 4.31875 8.20312 4.32812 8.1875C4.3375 8.16875 4.375 8.15625 4.40937 8.15625C4.44062 8.15625 4.46875 8.14062 4.46875 8.125C4.46875 8.10625 4.49688 8.09375 4.53125 8.09375C4.56563 8.09375 4.59375 8.07812 4.59375 8.0625C4.59375 8.04375 4.62187 8.03125 4.65625 8.03125C4.69063 8.03125 4.71875 8.01562 4.71875 8C4.71875 7.98125 4.74687 7.96875 4.78125 7.96875C4.81563 7.96875 4.84375 7.95312 4.84375 7.9375C4.84375 7.91875 4.87813 7.90625 4.91875 7.90625C4.9625 7.90625 5.00625 7.89062 5.01562 7.875C5.025 7.85625 5.0625 7.84375 5.09688 7.84375C5.12813 7.84375 5.15625 7.82812 5.15625 7.8125C5.15625 7.79375 5.18437 7.78125 5.21875 7.78125C5.25313 7.78125 5.28125 7.76562 5.28125 7.75C5.28125 7.73125 5.30937 7.71875 5.34375 7.71875C5.37813 7.71875 5.40625 7.70312 5.40625 7.6875C5.40625 7.66875 5.43437 7.65625 5.46875 7.65625C5.50313 7.65625 5.53125 7.64062 5.53125 7.625C5.53125 7.60625 5.55938 7.59375 5.59063 7.59375C5.625 7.59375 5.6625 7.57812 5.67188 7.5625C5.68125 7.54375 5.725 7.53125 5.76875 7.53125C5.80938 7.53125 5.84375 7.51562 5.84375 7.5C5.84375 7.48125 5.87187 7.46875 5.90625 7.46875C5.94063 7.46875 5.96875 7.45312 5.96875 7.4375C5.96875 7.41875 5.99687 7.40625 6.03125 7.40625C6.06563 7.40625 6.09375 7.39062 6.09375 7.375C6.09375 7.35625 6.12187 7.34375 6.15625 7.34375C6.19063 7.34375 6.21875 7.32812 6.21875 7.3125C6.21875 7.29375 6.24688 7.28125 6.27813 7.28125C6.3125 7.28125 6.35 7.26562 6.35938 7.25C6.36875 7.23125 6.4125 7.21875 6.45625 7.21875C6.49688 7.21875 6.53125 7.20312 6.53125 7.1875C6.53125 7.16875 6.55937 7.15625 6.59375 7.15625C6.62813 7.15625 6.65625 7.14062 6.65625 7.125C6.65625 7.10625 6.68437 7.09375 6.71875 7.09375C6.75313 7.09375 6.78125 7.07812 6.78125 7.0625C6.78125 7.04375 6.80937 7.03125 6.84375 7.03125C6.87813 7.03125 6.90625 7.01562 6.90625 7C6.90625 6.98125 6.93438 6.96875 6.96563 6.96875C7 6.96875 7.0375 6.95312 7.04688 6.9375C7.05625 6.91875 7.1 6.90625 7.14375 6.90625C7.18438 6.90625 7.21875 6.89062 7.21875 6.875C7.21875 6.85625 7.24687 6.84375 7.28125 6.84375C7.31563 6.84375 7.34375 6.82812 7.34375 6.8125C7.34375 6.79375 7.37187 6.78125 7.40625 6.78125C7.44063 6.78125 7.46875 6.76562 7.46875 6.75C7.46875 6.73125 7.49687 6.71875 7.53125 6.71875C7.56563 6.71875 7.59375 6.70312 7.59375 6.6875C7.59375 6.66875 7.62188 6.65625 7.65313 6.65625C7.6875 6.65625 7.725 6.64062 7.73438 6.625C7.74375 6.60625 7.7875 6.59375 7.83125 6.59375C7.87188 6.59375 7.90625 6.57812 7.90625 6.5625C7.90625 6.54375 7.93437 6.53125 7.96875 6.53125C8.00313 6.53125 8.03125 6.51562 8.03125 6.5C8.03125 6.48125 8.05937 6.46875 8.09375 6.46875C8.12813 6.46875 8.15625 6.45312 8.15625 6.4375C8.15625 6.41875 8.18437 6.40625 8.21875 6.40625C8.25313 6.40625 8.28125 6.39062 8.28125 6.375C8.28125 6.35625 8.30938 6.34375 8.34063 6.34375C8.375 6.34375 8.4125 6.32812 8.42188 6.3125C8.43125 6.29375 8.475 6.28125 8.51875 6.28125C8.55937 6.28125 8.59375 6.26562 8.59375 6.25C8.59375 6.23125 8.62187 6.21875 8.65625 6.21875C8.69063 6.21875 8.71875 6.20312 8.71875 6.1875C8.71875 6.16875 8.74687 6.15625 8.78125 6.15625C8.81563 6.15625 8.84375 6.14062 8.84375 6.125C8.84375 6.10625 8.87187 6.09375 8.90625 6.09375C8.94063 6.09375 8.96875 6.07812 8.96875 6.0625C8.96875 6.04375 8.99687 6.03125 9.02812 6.03125C9.0625 6.03125 9.1 6.01562 9.10938 6C9.11875 5.98125 9.1625 5.96875 9.20625 5.96875C9.24687 5.96875 9.28125 5.95312 9.28125 5.9375C9.28125 5.91875 9.30937 5.90625 9.34375 5.90625C9.37813 5.90625 9.40625 5.89062 9.40625 5.875C9.40625 5.85625 9.43437 5.84375 9.46875 5.84375C9.50313 5.84375 9.53125 5.82812 9.53125 5.8125C9.53125 5.79375 9.55937 5.78125 9.59375 5.78125C9.62813 5.78125 9.65625 5.76562 9.65625 5.75C9.65625 5.73125 9.68437 5.71875 9.71562 5.71875C9.75 5.71875 9.7875 5.70312 9.79688 5.6875C9.80625 5.66875 9.85 5.65625 9.89375 5.65625C9.93437 5.65625 9.96875 5.64062 9.96875 5.625C9.96875 5.60625 9.99687 5.59375 10.0312 5.59375C10.0656 5.59375 10.0938 5.57812 10.0938 5.5625C10.0938 5.54375 10.1219 5.53125 10.1562 5.53125C10.1906 5.53125 10.2188 5.51562 10.2188 5.5C10.2188 5.48125 10.2469 5.46875 10.2812 5.46875C10.3156 5.46875 10.3438 5.45312 10.3438 5.4375C10.3438 5.41875 10.3719 5.40625 10.4031 5.40625C10.4375 5.40625 10.475 5.39062 10.4844 5.375C10.4937 5.35625 10.5375 5.34375 10.5813 5.34375C10.6219 5.34375 10.6562 5.32812 10.6562 5.3125C10.6562 5.29375 10.6844 5.28125 10.7188 5.28125C10.7531 5.28125 10.7812 5.26562 10.7812 5.25C10.7812 5.23125 10.8094 5.21875 10.8438 5.21875C10.8781 5.21875 10.9062 5.20312 10.9062 5.1875C10.9062 5.16875 10.9344 5.15625 10.9688 5.15625C11.0031 5.15625 11.0312 5.14062 11.0312 5.125C11.0312 5.10625 11.0594 5.09375 11.0906 5.09375C11.125 5.09375 11.1625 5.07812 11.1719 5.0625C11.1812 5.04375 11.225 5.03125 11.2688 5.03125C11.3094 5.03125 11.3438 5.01562 11.3438 5C11.3438 4.98125 11.3719 4.96875 11.4062 4.96875C11.4406 4.96875 11.4688 4.95312 11.4688 4.9375C11.4688 4.91875 11.4969 4.90625 11.5312 4.90625C11.5656 4.90625 11.5938 4.89062 11.5938 4.875C11.5938 4.85625 11.6219 4.84375 11.6562 4.84375C11.6906 4.84375 11.7188 4.82812 11.7188 4.8125C11.7188 4.79375 11.7406 4.78125 11.7656 4.78125C11.7906 4.78125 11.8406 4.76562 11.875 4.75C11.9094 4.73125 11.9656 4.70312 12 4.6875C12.0344 4.66875 12.0844 4.65625 12.1094 4.65625C12.1344 4.65625 12.1562 4.64062 12.1562 4.625C12.1562 4.60625 12.1844 4.59375 12.2188 4.59375C12.2531 4.59375 12.2812 4.57812 12.2812 4.5625C12.2812 4.54375 12.3094 4.53125 12.3438 4.53125C12.3781 4.53125 12.4062 4.51562 12.4062 4.5C12.4062 4.48125 12.4281 4.46875 12.4531 4.46875C12.4781 4.46875 12.5313 4.45312 12.5719 4.43125C12.7188 4.35625 12.75 4.34375 12.7969 4.34375C12.8219 4.34375 12.8438 4.32812 12.8438 4.3125C12.8438 4.29375 12.8719 4.28125 12.9062 4.28125C12.9406 4.28125 12.9688 4.26562 12.9688 4.25C12.9688 4.23125 12.9969 4.21875 13.0312 4.21875C13.0656 4.21875 13.0938 4.20312 13.0938 4.1875C13.0938 4.16875 13.1156 4.15625 13.1406 4.15625C13.1656 4.15625 13.2156 4.14062 13.25 4.125C13.2844 4.10625 13.3406 4.07812 13.375 4.0625C13.4094 4.04375 13.4594 4.03125 13.4844 4.03125C13.5094 4.03125 13.5312 4.01562 13.5312 4C13.5312 3.98125 13.5594 3.96875 13.5938 3.96875C13.6281 3.96875 13.6562 3.95312 13.6562 3.9375C13.6562 3.91875 13.6844 3.90625 13.7188 3.90625C13.7531 3.90625 13.7812 3.89062 13.7812 3.875C13.7812 3.85625 13.8031 3.84375 13.8281 3.84375C13.8531 3.84375 13.9031 3.82812 13.9375 3.8125C13.9719 3.79375 14.0281 3.76562 14.0625 3.75C14.0969 3.73125 14.1469 3.71875 14.1719 3.71875C14.1969 3.71875 14.2188 3.70312 14.2188 3.6875C14.2188 3.66875 14.2469 3.65625 14.2812 3.65625C14.3156 3.65625 14.3438 3.64062 14.3438 3.625C14.3438 3.60625 14.3719 3.59375 14.4062 3.59375C14.4406 3.59375 14.4688 3.57812 14.4688 3.5625C14.4688 3.54375 14.4906 3.53125 14.5156 3.53125C14.5406 3.53125 14.5906 3.51562 14.625 3.5C14.6594 3.48125 14.7156 3.45312 14.75 3.4375C14.7844 3.41875 14.8344 3.40625 14.8594 3.40625C14.8844 3.40625 14.9062 3.39062 14.9062 3.375C14.9062 3.35625 14.9344 3.34375 14.9688 3.34375C15.0031 3.34375 15.0312 3.32812 15.0312 3.3125C15.0312 3.29375 15.0594 3.28125 15.0938 3.28125C15.1281 3.28125 15.1562 3.26562 15.1562 3.25C15.1562 3.23125 15.1781 3.21875 15.2031 3.21875C15.2281 3.21875 15.2781 3.20312 15.3125 3.1875C15.3469 3.16875 15.4031 3.14062 15.4375 3.125C15.4719 3.10625 15.5219 3.09375 15.5469 3.09375C15.5719 3.09375 15.5938 3.07812 15.5938 3.0625C15.5938 3.04375 15.6219 3.03125 15.6562 3.03125C15.6906 3.03125 15.7188 3.01562 15.7188 3C15.7188 2.98125 15.7469 2.96875 15.7812 2.96875C15.8156 2.96875 15.8438 2.95312 15.8438 2.9375C15.8438 2.91875 15.8656 2.90625 15.8906 2.90625C15.9156 2.90625 15.9656 2.89062 16 2.875C16.0344 2.85625 16.0906 2.82812 16.125 2.8125C16.1594 2.79375 16.2094 2.78125 16.2344 2.78125C16.2594 2.78125 16.2812 2.76562 16.2812 2.75C16.2812 2.73125 16.3094 2.71875 16.3438 2.71875C16.3781 2.71875 16.4062 2.70312 16.4062 2.6875C16.4062 2.66875 16.45 2.65625 16.5 2.65625C16.5531 2.65625 16.5938 2.66875 16.5938 2.6875ZM21.8625 15.075C21.8875 15.1 21.9062 15.1438 21.9062 15.1687C21.9062 15.1969 21.9219 15.2188 21.9375 15.2188C21.9562 15.2188 21.9688 15.2469 21.9688 15.2812C21.9688 15.3156 21.9844 15.3438 22 15.3438C22.0187 15.3438 22.0312 15.3719 22.0312 15.4062C22.0312 15.4406 22.0469 15.4688 22.0625 15.4688C22.0812 15.4688 22.0938 15.4969 22.0938 15.5312C22.0938 15.5656 22.1094 15.5938 22.125 15.5938C22.1437 15.5938 22.1562 15.6219 22.1562 15.6562C22.1562 15.6906 22.1719 15.7188 22.1875 15.7188C22.2062 15.7188 22.2188 15.7469 22.2188 15.7812C22.2188 15.8156 22.2344 15.8438 22.25 15.8438C22.2687 15.8438 22.2812 15.8719 22.2812 15.9062C22.2812 15.9406 22.2969 15.9688 22.3125 15.9688C22.3312 15.9688 22.3438 15.9969 22.3438 16.0312C22.3438 16.0656 22.3594 16.0938 22.375 16.0938C22.3937 16.0938 22.4062 16.1219 22.4062 16.1562C22.4062 16.1906 22.4219 16.2188 22.4375 16.2188C22.4562 16.2188 22.4688 16.2469 22.4688 16.2812C22.4688 16.3156 22.4844 16.3438 22.5 16.3438C22.5187 16.3438 22.5312 16.3719 22.5312 16.4062C22.5312 16.4406 22.5469 16.4688 22.5625 16.4688C22.5812 16.4688 22.5938 16.4969 22.5938 16.5312C22.5938 16.5656 22.6094 16.5938 22.625 16.5938C22.6437 16.5938 22.6562 16.6219 22.6562 16.6562C22.6562 16.6906 22.6719 16.7188 22.6875 16.7188C22.7062 16.7188 22.7188 16.7469 22.7188 16.7812C22.7188 16.8156 22.7344 16.8438 22.75 16.8438C22.7687 16.8438 22.7812 16.8719 22.7812 16.9062C22.7812 16.9406 22.7969 16.9688 22.8125 16.9688C22.8312 16.9688 22.8438 16.9969 22.8438 17.0312C22.8438 17.0656 22.8594 17.0938 22.875 17.0938C22.8937 17.0938 22.9062 17.1219 22.9062 17.1562C22.9062 17.1906 22.9219 17.2188 22.9375 17.2188C22.9562 17.2188 22.9688 17.2469 22.9688 17.2812C22.9688 17.3156 22.9844 17.3438 23 17.3438C23.0187 17.3438 23.0312 17.3719 23.0312 17.4062C23.0312 17.4406 23.0469 17.4688 23.0625 17.4688C23.0812 17.4688 23.0938 17.4969 23.0938 17.5312C23.0938 17.5656 23.1094 17.5938 23.125 17.5938C23.1437 17.5938 23.1562 17.6219 23.1562 17.6562C23.1562 17.6906 23.1719 17.7188 23.1875 17.7188C23.2062 17.7188 23.2188 17.7469 23.2188 17.7812C23.2188 17.8156 23.2344 17.8438 23.25 17.8438C23.2687 17.8438 23.2812 17.8719 23.2812 17.9062C23.2812 17.9406 23.2969 17.9688 23.3125 17.9688C23.3312 17.9688 23.3438 17.9969 23.3438 18.0312C23.3438 18.0656 23.3594 18.0938 23.375 18.0938C23.3937 18.0938 23.4062 18.1219 23.4062 18.1562C23.4062 18.1906 23.4219 18.2188 23.4375 18.2188C23.4562 18.2188 23.4688 18.2469 23.4688 18.2812C23.4688 18.3156 23.4844 18.3438 23.5 18.3438C23.5187 18.3438 23.5312 18.3719 23.5312 18.4062C23.5312 18.4406 23.5469 18.4688 23.5625 18.4688C23.5812 18.4688 23.5938 18.4969 23.5938 18.5312C23.5938 18.5656 23.6094 18.5938 23.625 18.5938C23.6437 18.5938 23.6562 18.6219 23.6562 18.6562C23.6562 18.6906 23.6719 18.7188 23.6875 18.7188C23.7062 18.7188 23.7188 18.7469 23.7188 18.7812C23.7188 18.8156 23.7344 18.8438 23.75 18.8438C23.7687 18.8438 23.7812 18.8719 23.7812 18.9062C23.7812 18.9406 23.7969 18.9688 23.8125 18.9688C23.8312 18.9688 23.8438 18.9969 23.8438 19.0312C23.8438 19.0656 23.8594 19.0938 23.875 19.0938C23.8937 19.0938 23.9062 19.1219 23.9062 19.1562C23.9062 19.1906 23.9219 19.2188 23.9375 19.2188C23.9562 19.2188 23.9688 19.2313 23.9688 19.25C23.9688 19.2719 21.4594 19.2812 16.5 19.2812C11.5406 19.2812 9.03125 19.2719 9.03125 19.25C9.03125 19.2313 9.04688 19.2188 9.0625 19.2188C9.08125 19.2188 9.09375 19.1906 9.09375 19.1562C9.09375 19.1219 9.10938 19.0938 9.125 19.0938C9.14375 19.0938 9.15625 19.0656 9.15625 19.0312C9.15625 18.9969 9.17188 18.9688 9.1875 18.9688C9.20625 18.9688 9.21875 18.9406 9.21875 18.9062C9.21875 18.8719 9.23438 18.8438 9.25 18.8438C9.26875 18.8438 9.28125 18.8156 9.28125 18.7812C9.28125 18.7469 9.29688 18.7188 9.3125 18.7188C9.33125 18.7188 9.34375 18.6906 9.34375 18.6562C9.34375 18.6219 9.35938 18.5938 9.375 18.5938C9.39375 18.5938 9.40625 18.5656 9.40625 18.5312C9.40625 18.4969 9.42188 18.4688 9.4375 18.4688C9.45625 18.4688 9.46875 18.4406 9.46875 18.4062C9.46875 18.3719 9.48438 18.3438 9.5 18.3438C9.51875 18.3438 9.53125 18.3156 9.53125 18.2812C9.53125 18.2469 9.54688 18.2188 9.5625 18.2188C9.58125 18.2188 9.59375 18.1906 9.59375 18.1562C9.59375 18.1219 9.60938 18.0938 9.625 18.0938C9.64375 18.0938 9.65625 18.0656 9.65625 18.0312C9.65625 17.9969 9.67188 17.9688 9.6875 17.9688C9.70625 17.9688 9.71875 17.9406 9.71875 17.9062C9.71875 17.8719 9.73438 17.8438 9.75 17.8438C9.76875 17.8438 9.78125 17.8156 9.78125 17.7812C9.78125 17.7469 9.79688 17.7188 9.8125 17.7188C9.83125 17.7188 9.84375 17.6906 9.84375 17.6562C9.84375 17.6219 9.85938 17.5938 9.875 17.5938C9.89375 17.5938 9.90625 17.5656 9.90625 17.5312C9.90625 17.4969 9.92188 17.4688 9.9375 17.4688C9.95625 17.4688 9.96875 17.4406 9.96875 17.4062C9.96875 17.3719 9.98438 17.3438 10 17.3438C10.0188 17.3438 10.0312 17.3156 10.0312 17.2812C10.0312 17.2469 10.0469 17.2188 10.0625 17.2188C10.0813 17.2188 10.0938 17.1906 10.0938 17.1562C10.0938 17.1219 10.1094 17.0938 10.125 17.0938C10.1438 17.0938 10.1562 17.0656 10.1562 17.0312C10.1562 16.9969 10.1719 16.9688 10.1875 16.9688C10.2063 16.9688 10.2188 16.9406 10.2188 16.9062C10.2188 16.8719 10.2344 16.8438 10.25 16.8438C10.2688 16.8438 10.2812 16.8156 10.2812 16.7812C10.2812 16.7469 10.2969 16.7188 10.3125 16.7188C10.3313 16.7188 10.3438 16.6906 10.3438 16.6562C10.3438 16.6219 10.3594 16.5938 10.375 16.5938C10.3938 16.5938 10.4062 16.5656 10.4062 16.5312C10.4062 16.4969 10.4219 16.4688 10.4375 16.4688C10.4563 16.4688 10.4688 16.4406 10.4688 16.4062C10.4688 16.3719 10.4844 16.3438 10.5 16.3438C10.5188 16.3438 10.5312 16.3156 10.5312 16.2812C10.5312 16.2469 10.5469 16.2188 10.5625 16.2188C10.5813 16.2188 10.5938 16.1906 10.5938 16.1562C10.5938 16.1219 10.6094 16.0938 10.625 16.0938C10.6438 16.0938 10.6562 16.0656 10.6562 16.0312C10.6562 15.9969 10.6719 15.9688 10.6875 15.9688C10.7063 15.9688 10.7188 15.9406 10.7188 15.9062C10.7188 15.8719 10.7344 15.8438 10.75 15.8438C10.7688 15.8438 10.7812 15.8156 10.7812 15.7812C10.7812 15.7469 10.7969 15.7188 10.8125 15.7188C10.8313 15.7188 10.8438 15.6906 10.8438 15.6562C10.8438 15.6219 10.8594 15.5938 10.875 15.5938C10.8938 15.5938 10.9062 15.5656 10.9062 15.5312C10.9062 15.4969 10.9219 15.4688 10.9375 15.4688C10.9563 15.4688 10.9688 15.4406 10.9688 15.4062C10.9688 15.3719 10.9844 15.3438 11 15.3438C11.0188 15.3438 11.0312 15.3156 11.0312 15.2812C11.0312 15.2469 11.0469 15.2188 11.0625 15.2188C11.0813 15.2188 11.0938 15.1969 11.0938 15.1719C11.0938 15.0281 10.8344 15.0344 16.4938 15.0312C21.0656 15.0312 21.8219 15.0375 21.8625 15.075ZM26.7812 26.7812H6.21875V21.2812H26.7812V26.7812ZM9.84375 30.5938H8.09375V28.7812H9.84375V30.5938ZM21.1562 30.5938H11.8438V28.7812H21.1562V30.5938ZM24.9062 30.5938H23.1562V28.7812H24.9062V30.5938Z" fill="#172023"/>
<path d="M7.96875 25.0312H10.5938L10.5875 24.0375L10.5781 23.0469L9.275 23.0375L7.96875 23.0312V25.0312Z" fill="#172023"/>
<path d="M22.4281 23.0531C22.4156 23.0625 22.4062 23.5125 22.4062 24.0531V25.0312H25.0312V23.0312H23.7406C23.0281 23.0312 22.4375 23.0406 22.4281 23.0531Z" fill="#172023"/>
</svg>
