<svg width="32" height="33" viewBox="0 0 32 33" fill="none" xmlns="http://www.w3.org/2000/svg">
<path d="M7.68735 4.30421C7.76123 4.30407 7.83511 4.30393 7.91122 4.30378C8.11492 4.30345 8.31861 4.30341 8.5223 4.30348C8.74253 4.30349 8.96276 4.30315 9.18299 4.30285C9.61397 4.30233 10.0449 4.30216 10.4759 4.30212C10.8265 4.3021 11.177 4.30197 11.5276 4.30177C12.5228 4.30122 13.5181 4.30093 14.5133 4.30098C14.5669 4.30098 14.6205 4.30098 14.6757 4.30098C14.7294 4.30099 14.783 4.30099 14.8383 4.30099C15.7074 4.30102 16.5765 4.30042 17.4457 4.29954C18.3394 4.29864 19.2331 4.29821 20.1268 4.29826C20.6281 4.29828 21.1293 4.29811 21.6305 4.29744C22.0573 4.29687 22.4842 4.29674 22.911 4.29716C23.1284 4.29736 23.3459 4.29737 23.5633 4.29682C25.2804 4.2933 26.7538 4.41691 28.125 5.56257C28.1667 5.59511 28.2083 5.62766 28.2512 5.6612C28.7764 6.08797 29.1472 6.63946 29.457 7.23444C29.4766 7.27081 29.4962 7.30718 29.5164 7.34465C30.0152 8.3521 29.9717 9.42256 29.9628 10.5174C29.9613 10.7459 29.9611 10.9745 29.9608 11.203C29.9601 11.6342 29.958 12.0653 29.9555 12.4965C29.9527 12.988 29.9513 13.4796 29.9501 13.9711C29.9475 14.9808 29.9429 15.9904 29.9375 17.0001C30.6181 17.0001 31.2987 17.0001 32 17.0001C32 20.0526 32 23.1051 32 26.2501C31.2162 26.2501 30.4325 26.2501 29.625 26.2501C29.625 27.0544 29.625 27.8588 29.625 28.6876C28.9856 28.6876 28.3463 28.6876 27.6875 28.6876C27.6875 27.8832 27.6875 27.0788 27.6875 26.2501C19.9738 26.2501 12.26 26.2501 4.3125 26.2501C4.3125 27.0544 4.3125 27.8588 4.3125 28.6876C3.67313 28.6876 3.03375 28.6876 2.375 28.6876C2.375 27.8832 2.375 27.0788 2.375 26.2501C1.59125 26.2501 0.8075 26.2501 0 26.2501C0 23.1976 0 20.1451 0 17.0001C0.680625 17.0001 1.36125 17.0001 2.0625 17.0001C2.06054 16.633 2.06054 16.633 2.05853 16.2586C2.05438 15.4474 2.05161 14.6361 2.04955 13.8249C2.04826 13.3333 2.04651 12.8418 2.04364 12.3503C2.04113 11.9214 2.03953 11.4926 2.03898 11.0637C2.03865 10.837 2.03791 10.6103 2.03607 10.3837C2.0191 8.20626 2.0191 8.20626 2.55078 7.22272C2.5831 7.16067 2.5831 7.16067 2.61607 7.09736C2.79401 6.76473 3.00149 6.47157 3.25 6.18757C3.28239 6.14632 3.31478 6.10507 3.34814 6.06257C4.17213 5.04353 5.49266 4.46262 6.77413 4.32551C7.07828 4.30141 7.38241 4.30378 7.68735 4.30421ZM4.6875 7.50983C3.87139 8.48071 3.91797 9.70602 3.92969 10.9024C3.93032 11.0156 3.93089 11.1287 3.9314 11.2419C3.93275 11.5155 3.9349 11.789 3.9375 12.0626C3.96961 12.0378 4.00171 12.013 4.03479 11.9874C5.21775 11.0848 6.41514 11.024 7.84961 11.0294C8.00973 11.0292 8.16986 11.029 8.32998 11.0286C8.66407 11.0283 8.99815 11.0288 9.33224 11.03C9.71568 11.0313 10.0991 11.0309 10.4825 11.0295C10.855 11.0282 11.2275 11.0284 11.6 11.0291C11.7569 11.0293 11.9137 11.0291 12.0706 11.0285C13.4687 11.0244 14.5728 11.1418 15.6755 12.0792C15.8009 12.1784 15.9171 12.2477 16.0625 12.3126C16.1104 12.266 16.1104 12.266 16.1592 12.2186C17.0403 11.3952 18.0085 11.0546 19.198 11.0515C19.2677 11.0511 19.3375 11.0507 19.4094 11.0503C19.64 11.049 19.8705 11.0483 20.1011 11.0477C20.1802 11.0474 20.2592 11.0472 20.3407 11.0469C20.7165 11.0457 21.0924 11.0448 21.4682 11.0443C21.8994 11.0437 22.3305 11.0421 22.7617 11.0395C23.1372 11.0374 23.5126 11.0367 23.8881 11.0364C24.0468 11.0361 24.2054 11.0354 24.364 11.0342C25.788 11.0244 26.9045 11.1679 28.0625 12.0626C28.0656 11.7326 28.0679 11.4026 28.0694 11.0727C28.07 10.9608 28.0708 10.849 28.0719 10.7372C28.0838 9.49559 28.058 8.35132 27.1875 7.37507C27.1549 7.33664 27.1222 7.29821 27.0886 7.25861C26.5317 6.64747 25.7485 6.32956 24.9375 6.25007C24.6957 6.2409 24.4541 6.24109 24.2122 6.24129C24.1394 6.2411 24.0667 6.24092 23.9917 6.24073C23.7906 6.24028 23.5895 6.24011 23.3883 6.24006C23.1711 6.23995 22.9538 6.23947 22.7366 6.23905C22.2619 6.23821 21.7872 6.23783 21.3125 6.23755C21.0158 6.23738 20.719 6.23712 20.4223 6.23683C19.5999 6.23607 18.7775 6.23543 17.9551 6.23522C17.9025 6.2352 17.8499 6.23519 17.7957 6.23518C17.743 6.23516 17.6903 6.23515 17.636 6.23513C17.5292 6.23511 17.4223 6.23508 17.3155 6.23505C17.2361 6.23503 17.2361 6.23503 17.155 6.23501C16.2972 6.23476 15.4394 6.23367 14.5816 6.23222C13.6997 6.23073 12.8179 6.22995 11.936 6.22988C11.4413 6.22983 10.9467 6.22947 10.452 6.22833C10.0307 6.22736 9.60934 6.22705 9.18799 6.22756C8.97332 6.22781 8.75867 6.22776 8.544 6.22687C6.99724 6.22159 5.7964 6.3143 4.6875 7.50983ZM5 13.7501C4.34601 14.7769 4.625 15.6409 4.625 17.0001C8.06938 17.0001 11.5138 17.0001 15.0625 17.0001C15.1926 15.1395 15.1926 15.1395 14.4375 13.5001C13.8683 13.0502 13.3346 12.9091 12.617 12.9123C12.5497 12.9119 12.4825 12.9115 12.4132 12.911C12.1923 12.9099 11.9714 12.9101 11.7505 12.9105C11.596 12.9102 11.4415 12.9098 11.287 12.9095C10.9637 12.9089 10.6404 12.9091 10.3171 12.9097C9.90402 12.9104 9.49096 12.9091 9.07788 12.9073C8.75895 12.9062 8.44003 12.9062 8.1211 12.9065C7.96886 12.9066 7.81661 12.9062 7.66437 12.9054C7.45096 12.9045 7.23761 12.9051 7.0242 12.9062C6.9621 12.9056 6.9 12.905 6.83602 12.9044C6.07975 12.9123 5.49522 13.1763 5 13.7501ZM17.3904 13.6986C16.7028 14.6843 16.9375 15.8108 16.9375 17.0001C20.3819 17.0001 23.8263 17.0001 27.375 17.0001C27.5311 15.0187 27.5311 15.0187 26.7195 13.4481C26.3385 13.1193 25.8994 12.931 25.3963 12.9284C25.3381 12.9279 25.2798 12.9275 25.2198 12.927C25.1563 12.9268 25.0928 12.9267 25.0275 12.9265C24.9602 12.9261 24.893 12.9257 24.8238 12.9253C24.6012 12.924 24.3786 12.9233 24.156 12.9227C24.0799 12.9224 24.0037 12.9222 23.9253 12.9219C23.5221 12.9206 23.1189 12.9197 22.7157 12.9191C22.3001 12.9185 21.8846 12.9163 21.4691 12.9138C21.1488 12.9122 20.8285 12.9116 20.5083 12.9114C20.3551 12.9111 20.202 12.9104 20.0489 12.9092C19.834 12.9077 19.6191 12.9078 19.4042 12.9082C19.3416 12.9074 19.279 12.9066 19.2145 12.9058C18.5145 12.9109 17.8398 13.141 17.3904 13.6986ZM1.875 18.9376C1.875 20.7113 1.875 22.4851 1.875 24.3126C11.1975 24.3126 20.52 24.3126 30.125 24.3126C30.125 22.5388 30.125 20.7651 30.125 18.9376C20.8025 18.9376 11.48 18.9376 1.875 18.9376Z" fill="#172023"/>
</svg>
