<svg width="40" height="40" viewBox="0 0 40 40" fill="none" xmlns="http://www.w3.org/2000/svg">
<g clip-path="url(#clip0_23122_21594)">
<path d="M7.08447 14.6875H38.2313V37.7094H7.08447V14.6875Z" fill="white"/>
<path d="M0.46875 19.9727V39.5039H39.5312V0.441406H0.46875V19.9727ZM31.9469 18.4102C32.8825 18.6273 33.7328 19.1166 34.3906 19.8164C34.7527 20.1935 35.0675 20.6132 35.3281 21.0664C35.3281 21.1164 33.6406 22.257 32.6125 22.8945C32.575 22.9195 32.425 22.757 32.2594 22.5102C32.0717 22.1863 31.805 21.9153 31.4842 21.7224C31.1635 21.5295 30.799 21.421 30.425 21.407C29.2406 21.3258 28.4781 21.9477 28.4844 22.9695C28.4749 23.2239 28.5331 23.4763 28.6531 23.7008C28.9125 24.2414 29.3969 24.5633 30.9156 25.2195C33.7125 26.4227 34.9094 27.2164 35.6531 28.3445C36.4844 29.5945 36.6688 31.6133 36.1063 33.107C35.4813 34.732 33.95 35.8352 31.7844 36.2008C30.7953 36.3141 29.7959 36.3036 28.8094 36.1695C27.2974 35.9203 25.9046 35.1944 24.8344 34.0977C24.475 33.7008 23.775 32.6664 23.8188 32.5914C23.9326 32.5064 24.0527 32.4301 24.1781 32.3633L25.625 31.5633L26.7469 30.9133L26.9812 31.2602C27.3769 31.8259 27.8803 32.308 28.4625 32.6789C29.7125 33.3352 31.4187 33.2445 32.2625 32.4852C32.5458 32.2069 32.7225 31.8381 32.7619 31.443C32.8013 31.0478 32.7009 30.6514 32.4781 30.3227C32.1656 29.8883 31.5406 29.5227 29.7937 28.7602C27.7781 27.8914 26.9094 27.3539 26.1156 26.4977C25.6203 25.9325 25.2544 25.2659 25.0437 24.5445C24.8867 23.7203 24.8635 22.8761 24.975 22.0445C25.3906 20.0977 26.85 18.7383 28.9812 18.3352C29.9683 18.2132 30.968 18.2406 31.9469 18.4164V18.4102ZM22.7781 20.0477V21.6477H17.7062V36.0945H14.1094V21.6445H9.025V20.082C9.00905 19.5432 9.02157 19.0039 9.0625 18.4664C9.0875 18.4383 12.1875 18.4383 15.9375 18.4383H22.7594L22.7781 20.0477Z" fill="#007ACC"/>
</g>
<defs>
<clipPath id="clip0_23122_21594">
<rect width="40" height="40" fill="white"/>
</clipPath>
</defs>
</svg>
