<svg width="41" height="40" viewBox="0 0 41 40" fill="none" xmlns="http://www.w3.org/2000/svg">
<path fill-rule="evenodd" clip-rule="evenodd" d="M20.1942 8.4375C14.8604 8.4375 11.5277 11.0883 10.1937 16.39C12.1939 13.7392 14.5273 12.7453 17.1938 13.4076C18.7152 13.7854 19.8031 14.8827 21.0063 16.0976C22.9673 18.076 25.2373 20.3655 30.194 20.3655C35.5271 20.3655 38.8606 17.7146 40.1938 12.4138C38.1944 15.0646 35.861 16.0585 33.1945 15.3954C31.6723 15.0176 30.5844 13.9202 29.3812 12.7061C27.4202 10.7262 25.151 8.4375 20.1942 8.4375ZM10.1937 20.3655C4.86063 20.3655 1.5271 23.0163 0.193848 28.318C2.19412 25.6671 4.52751 24.6733 7.19324 25.3356C8.71539 25.7134 9.80332 26.8107 11.0065 28.0256C12.9675 30.004 15.2367 32.2935 20.1942 32.2935C25.5273 32.2935 28.8608 29.6434 30.194 24.3417C28.1938 26.9926 25.8604 27.9864 23.1939 27.3241C21.6725 26.9455 20.5846 25.8482 19.3814 24.6341C17.4203 22.6558 15.1504 20.3655 10.1937 20.3655Z" fill="#38BDF8"/>
</svg>
