<svg xmlns="http://www.w3.org/2000/svg" width="140" height="40" fill="none"><path fill="#172023" fill-rule="evenodd" d="M19.937 6.845a.125.125 0 0 1 .126 0l13.658 7.947a.125.125 0 0 1 .062.108v18.99a.125.125 0 0 1-.125.124H21.25V22a3.875 3.875 0 0 0-3.875-3.875H6.217V14.9c0-.044.024-.085.062-.108l13.658-7.947Zm2.012-3.241a3.875 3.875 0 0 0-3.898 0L4.393 11.55a3.875 3.875 0 0 0-1.926 3.35V20c0 .48.184.94.513 1.289l15.033 15.889c.354.374.847.586 1.362.586h14.283a3.875 3.875 0 0 0 3.875-3.875V14.9c0-1.38-.734-2.655-1.926-3.35L21.949 3.605Z" clip-rule="evenodd"/><path fill="#172023" d="M62.8 28V11.5h3.15V28H62.8Zm-10.85 0V11.5h3.15V28h-3.15Zm1.775-7.075v-2.6H64.05v2.6H53.725Zm21.245 7.4c-1.283 0-2.416-.258-3.4-.775-.983-.533-1.758-1.308-2.324-2.325-.55-1.033-.825-2.3-.825-3.8 0-1.533.283-2.8.85-3.8.583-1.017 1.366-1.775 2.35-2.275.983-.5 2.091-.75 3.325-.75 1.283 0 2.416.258 3.4.775.983.517 1.758 1.292 2.325 2.325.566 1.017.85 2.283.85 3.8 0 1.533-.284 2.808-.85 3.825-.567 1.017-1.35 1.775-2.35 2.275-.984.483-2.1.725-3.35.725Zm.126-2.4c.7 0 1.291-.158 1.775-.475.483-.333.85-.825 1.1-1.475.266-.65.4-1.425.4-2.325 0-.95-.142-1.758-.425-2.425-.267-.683-.659-1.208-1.175-1.575-.5-.367-1.134-.55-1.9-.55-.667 0-1.25.167-1.75.5-.5.317-.884.792-1.15 1.425-.25.633-.376 1.417-.376 2.35 0 1.467.309 2.592.925 3.375.634.783 1.492 1.175 2.576 1.175ZM83.856 28V14.925h2.575l-.075 4h.45c.233-.967.533-1.767.9-2.4.383-.65.85-1.133 1.4-1.45.55-.317 1.183-.475 1.9-.475.8 0 1.458.183 1.975.55.517.367.908.875 1.175 1.525.283.633.458 1.375.525 2.225h.4c.217-.967.525-1.767.925-2.4.417-.633.917-1.108 1.5-1.425a4.165 4.165 0 0 1 1.975-.475c.7 0 1.317.142 1.85.425.533.283.975.7 1.325 1.25.367.533.633 1.208.8 2.025.183.817.275 1.758.275 2.825V28h-3.175v-6.475c0-.933-.083-1.708-.25-2.325-.15-.617-.392-1.075-.725-1.375-.317-.317-.733-.475-1.25-.475a2.23 2.23 0 0 0-1.525.575c-.433.383-.775.925-1.025 1.625-.25.683-.4 1.467-.45 2.35V28h-3.1v-6.325c0-.967-.083-1.767-.25-2.4-.167-.65-.417-1.133-.75-1.45-.333-.317-.758-.475-1.275-.475-.6 0-1.117.2-1.55.6-.417.4-.75.95-1 1.65-.233.7-.367 1.483-.4 2.35V28h-3.15Zm28.618.325c-1.05 0-1.992-.15-2.825-.45-.817-.3-1.509-.733-2.075-1.3a5.875 5.875 0 0 1-1.3-2.1c-.3-.817-.45-1.742-.45-2.775s.141-1.983.425-2.85c.3-.867.725-1.617 1.275-2.25a5.68 5.68 0 0 1 2-1.475c.8-.35 1.708-.525 2.725-.525.95 0 1.8.158 2.55.475.75.317 1.383.792 1.9 1.425.516.617.9 1.392 1.15 2.325.25.917.333 1.983.25 3.2l-10.225.075v-1.825l8.4-.075-1.1 1.025c.1-.95.025-1.725-.225-2.325-.25-.617-.609-1.067-1.075-1.35-.467-.3-1-.45-1.6-.45-.684 0-1.284.183-1.8.55-.517.35-.917.867-1.2 1.55-.267.667-.4 1.483-.4 2.45 0 1.45.316 2.533.95 3.25.65.717 1.533 1.075 2.65 1.075.5 0 .916-.058 1.25-.175.35-.133.641-.3.875-.5a2.55 2.55 0 0 0 .55-.725c.15-.267.266-.55.35-.85l2.75.625a5.19 5.19 0 0 1-.65 1.65c-.3.483-.692.9-1.175 1.25-.467.35-1.025.617-1.675.8-.65.183-1.409.275-2.275.275Zm8.004-.325V10.25h3.1V28h-3.1Zm10.869 4.475c-.667 0-1.342-.067-2.025-.2a8.129 8.129 0 0 1-1.925-.625 4.55 4.55 0 0 1-1.475-1.05l1.075-2.6c.483.55 1.108.967 1.875 1.25a6.657 6.657 0 0 0 2.325.425c.916 0 1.675-.192 2.275-.575.6-.367 1.058-.942 1.375-1.725.316-.783.491-1.758.525-2.925l.175-2.375h-.525c-.167 1.133-.442 2.058-.825 2.775-.384.7-.867 1.217-1.45 1.55-.567.317-1.234.475-2 .475-.95 0-1.75-.242-2.4-.725-.65-.483-1.142-1.2-1.475-2.15-.317-.95-.475-2.125-.475-3.525v-5.55h3.175v4.825c0 1.567.191 2.708.575 3.425.383.7.966 1.05 1.75 1.05.416 0 .8-.108 1.15-.325a2.77 2.77 0 0 0 .875-.975c.25-.433.441-.967.575-1.6.15-.633.233-1.358.25-2.175v-4.225h3.175v9.65c0 1.05-.092 2-.275 2.85-.167.833-.425 1.558-.775 2.175a5.407 5.407 0 0 1-1.325 1.6 4.894 4.894 0 0 1-1.825.95c-.7.217-1.492.325-2.375.325Z"/></svg>