<svg xmlns="http://www.w3.org/2000/svg" width="32" height="32" fill="none"><g fill="#172023" clip-path="url(#a)"><path d="m18.375.187.16.037c1.596.372 3.124 1.055 4.403 2.088l.165.128c2.275 1.784 3.746 4.458 4.147 7.31l.018.124c.059.452.06.905.06 1.36v.13a11.172 11.172 0 0 1-2.808 7.429c-1.194 1.344-1.832 2.978-1.846 4.777l-.005.404-.006.63a96.5 96.5 0 0 1-.008.614v.188c-.013.704-.198 1.263-.592 1.844l-.11.168a2.43 2.43 0 0 1-1.203.707l.003.119c.026 1.175.02 2.213-.831 3.123-.479.453-.988.642-1.637.644l-.163.001-.536.003H17.4l-.971.003c-.334.001-.667.003-1 .006l-.772.002-.368.002c-.904.008-1.532-.036-2.211-.69-.68-.728-.84-1.55-.833-2.518l.001-.202c0-.165.002-.329.003-.493l-.197-.049c-.615-.177-1.063-.656-1.365-1.201-.193-.404-.32-.787-.323-1.237l-.002-.176-.001-.188a682.268 682.268 0 0 0-.012-1.028c-.018-2.077-.465-3.835-1.864-5.423a11.326 11.326 0 0 1-2.814-7.495v-.13c.005-3.085 1.276-5.846 3.41-8.05C9.615 1.65 11.544.657 13.625.188l.13-.032c1.423-.334 3.202-.316 4.62.031ZM11.5 3.062l-.2.108a8.65 8.65 0 0 0-2.487 2.08l-.146.176a9.478 9.478 0 0 0-1.042 1.636l-.06.116c-1.08 2.079-1.249 4.583-.567 6.814.461 1.441 1.18 2.573 2.147 3.732 1.193 1.436 1.755 3.003 2.105 4.838h9.5L21 21.25a9.842 9.842 0 0 1 2-3.688c1.742-2.058 2.579-4.528 2.361-7.232a9.545 9.545 0 0 0-.923-3.143l-.104-.212c-.47-.914-1.1-1.697-1.834-2.413l-.092-.103c-1.131-1.22-2.762-1.928-4.345-2.334l-.233-.061c-2.147-.468-4.422-.04-6.33.998ZM11.313 24.5c-.089 1.08-.089 1.08.187 1.563.338.33.725.285 1.17.282a173.22 173.22 0 0 0 .897.001h.687l1.154-.001h1.332c.382.002.764.002 1.146.001h.683c.254.001.508 0 .762-.001l.228.001c.518-.003.518-.003.941-.284.276-.482.276-.482.188-1.562h-9.375Zm1.875 3.75c-.066 1.038-.066 1.038.187 1.625.201.2.248.21.518.214h.134l.143.001c.156.002.313.002.469.002l.325.001h.682c.291 0 .583.002.874.005.224.001.448.002.672.001l.322.002c.15.002.3.001.45 0l.135.002c.219-.003.32-.024.485-.172.32-.562.229-1.008.229-1.681h-5.625Z"/><path d="M16.125 7.938c.553.293 1.09.612 1.625.937-.035.288-.16.504-.309.748l-.075.126-.241.4-.157.26-.296.493-.735 1.223 3.626.063a3.055 3.055 0 0 1-.328.724l-.126.204-.067.108-.36.586-.076.124c-.28.457-.552.918-.825 1.379a226.87 226.87 0 0 1-1.556 2.585 74.41 74.41 0 0 0-.288.477c-.381-.057-.661-.256-.984-.457l-.184-.11-.174-.108-.16-.098c-.123-.102-.123-.102-.184-.217-.002-.205.088-.321.197-.494l.066-.107.213-.339c.479-.766.938-1.541 1.398-2.32h-3.688c.104-.258.219-.483.36-.719l.07-.119a169.865 169.865 0 0 1 .392-.656c.38-.636.764-1.27 1.15-1.903.246-.404.489-.808.73-1.215l.082-.14.4-.677.144-.245.067-.114c.088-.15.17-.276.293-.4Z"/></g><defs><clipPath id="a"><path fill="#fff" d="M0 0h32v32H0z"/></clipPath></defs></svg>