<svg xmlns="http://www.w3.org/2000/svg" width="32" height="32" fill="none">
  <g fill="#FFF" clip-path="url(#a)">
    <path d="M0 13.688c1.871 0 3.189.045 4.875.562 2.404.73 4.623.802 7.025.05q.409-.127.819-.25l.143-.044c.966-.285 1.962-.35 2.964-.343q.26.001.523-.001c.987-.001 1.97.086 2.917.385l.16.048q.255.076.512.155c2.404.73 4.623.802 7.025.05 1.748-.546 3.095-.613 5.037-.613V32H0V13.687Zm15.332 1.89-.128.005c-.875.052-1.71.25-2.54.523-2.836.925-5.7.887-8.53-.045-.732-.24-1.483-.436-2.259-.436V17.5l.75.098c.778.11 1.51.297 2.259.533 2.38.748 4.637.789 7.016.045q.409-.128.819-.25l.143-.045c.966-.285 1.962-.35 2.964-.343q.26.001.523-.001c.987-.001 1.97.086 2.917.385l.16.048q.255.076.512.155c2.551.774 4.813.756 7.343-.05.94-.297 1.866-.445 2.844-.575v-1.875c-.655.044-.655.044-1.281.156l-.13.031c-.375.094-.741.213-1.109.332-2.797.898-5.628.833-8.408-.083a9.4 9.4 0 0 0-2.6-.483l-.164-.006q-.55-.018-1.101.006m0 3.813-.128.005c-.875.051-1.71.25-2.54.523-2.836.925-5.7.886-8.53-.046-.732-.239-1.483-.436-2.259-.436v1.875l.75.098c.778.11 1.51.297 2.259.534 2.38.748 4.637.788 7.016.044q.409-.127.819-.25l.143-.045c.966-.285 1.962-.35 2.964-.342l.523-.002c.987 0 1.97.087 2.917.385l.16.048.512.155c2.551.774 4.813.756 7.343-.05.94-.296 1.866-.444 2.844-.575v-1.875c-.655.044-.655.044-1.281.157l-.13.03c-.375.095-.741.213-1.109.332-2.797.898-5.628.833-8.408-.083a9.4 9.4 0 0 0-2.6-.482l-.164-.007q-.55-.018-1.101.007m0 3.812-.128.005c-.875.052-1.71.25-2.54.523-2.836.925-5.7.887-8.53-.045-.732-.24-1.483-.436-2.259-.436v1.875l.75.098c.778.11 1.51.297 2.259.533 2.38.748 4.637.789 7.016.045q.409-.128.819-.25l.143-.045c.966-.285 1.962-.35 2.964-.343q.26.001.523-.001c.987-.001 1.97.086 2.917.385l.16.048q.255.076.512.155c2.551.774 4.813.756 7.343-.05.94-.297 1.866-.445 2.844-.575V23.25c-.655.044-.655.044-1.281.156l-.13.031c-.375.094-.741.213-1.109.332-2.797.898-5.628.833-8.408-.083a9.4 9.4 0 0 0-2.6-.483l-.164-.006q-.55-.018-1.101.006m0 3.813-.128.005c-.875.051-1.71.25-2.54.523-2.836.925-5.7.886-8.53-.046-.732-.239-1.483-.436-2.259-.436v3.063h28.25v-3.063c-.655.044-.655.044-1.281.157l-.13.03c-.375.095-.741.213-1.109.332-2.797.898-5.628.833-8.408-.083a9.4 9.4 0 0 0-2.6-.482l-.164-.007q-.55-.017-1.101.007M30.786.415c.592.435 1.06 1.04 1.214 1.772.081.876.01 1.644-.523 2.372-.454.531-1.075 1.011-1.795 1.078-.909.033-1.652-.034-2.374-.65-.509-.476-.924-1.104-.95-1.819-.026-.928.111-1.656.767-2.356.939-.991 2.53-1.118 3.661-.397M28.383 2.32c-.106.27-.112.52-.07.805.135.275.274.45.562.562.315.043.552.036.84-.105.21-.19.328-.316.367-.603.017-.357-.021-.58-.27-.854-.24-.212-.477-.22-.785-.21-.291.043-.455.191-.644.405M0 5.625c.874 0 .874 0 1.258.133l.128.043c.595.206 1.028.523 1.475.964.142.136.142.136.389.11.097-.078.097-.078.184-.188.549-.574 1.293-.913 2.066-1.062h.75v1.938l-.688.125c-.571.235-.965.572-1.25 1.125-.126.304-.144.53-.187.874h-2L2 9c-.23-.573-.569-.972-1.124-1.25C.593 7.656.294 7.616 0 7.562zM8.5 0c.874 0 .874 0 1.258.133l.128.043c.595.206 1.028.523 1.475.964.142.136.142.136.389.11.097-.078.097-.078.184-.188C12.483.489 13.227.15 14 0h.75v1.938l-.688.125c-.571.235-.965.572-1.25 1.124-.126.305-.144.53-.187.876h-2l-.125-.688c-.23-.573-.569-.972-1.124-1.25-.283-.094-.582-.134-.876-.188z"/>
  </g>
  <defs>
    <clipPath id="a">
      <path fill="#fff" d="M0 0h32v32H0z"/>
    </clipPath>
  </defs>
</svg>
