<svg xmlns="http://www.w3.org/2000/svg" width="32" height="32" fill="none">
  <g fill="#fff" clip-path="url(#a)">
    <path d="m12.426 9.357.258-.001a159 159 0 0 1 1.133-.003l1.528-.001q.71 0 1.417-.003l1.222-.003.728-.001h.685l.367-.002a4.6 4.6 0 0 1 3.11 1.22l.145.125c.775.722 1.345 1.768 1.43 2.834q.007.234.005.47l.002.774v.428l.003 1.886.002 2.404v.261q0 1.05.003 2.097L24.465 24l.002 1.21a206 206 0 0 1 0 1.554c.008 1.41-.24 2.592-1.218 3.674l-.126.143c-.731.785-1.797 1.363-2.877 1.431a30 30 0 0 1-.673.006l-.258.002h-.697l-.437.002-1.527.001q-.71 0-1.417.003-.611.003-1.223.003l-.727.001q-.343.003-.686 0l-.366.002a4.6 4.6 0 0 1-3.111-1.22l-.144-.126c-.775-.721-1.345-1.767-1.43-2.833a14 14 0 0 1-.005-.47l-.001-.18-.002-1.022a436 436 0 0 1-.002-1.886l-.002-2.404v-.261q0-1.05-.003-2.097l-.002-2.158-.002-1.21a205 205 0 0 1-.001-1.554c-.007-1.41.24-2.592 1.219-3.674l.126-.143c.943-1.013 2.188-1.438 3.55-1.437ZM10.14 12.3c-.593.71-.713 1.547-.711 2.442v.69l-.002 1.41v.646l-.001 2.252-.002 2.094-.002 2.877v1.381c-.004 1.232.048 2.29.945 3.217.777.727 1.708.825 2.724.825l1.376.002 2.157.002 1.59.002h.662l.194.001c1.055-.004 1.906-.2 2.676-.946.679-.725.827-1.606.825-2.563v-.689l.001-.38v-1.03l.001-.646.003-4.346.002-2.877v-1.381c.004-1.231-.049-2.29-.945-3.217-.787-.735-1.704-.825-2.732-.825l-.895-.002h-1.48l-1.153-.002-1.588-.002c-2.012-.014-2.012-.014-3.644 1.066ZM15.96-.016h.145c.711.001 1.39.03 2.082.204l.13.031c1.678.415 3.111 1.304 4.37 2.469-.283.34-.583.654-.898.964l-.14.139-.337.334-.083-.072c-1.652-1.426-3.579-2.233-5.793-2.098-1.82.156-3.377.92-4.686 2.17-.34-.283-.654-.584-.965-.898l-.138-.14-.335-.337c1.812-1.821 4.08-2.764 6.65-2.766Z"/>
    <path d="M19.19 4.648a12 12 0 0 1 .487.36c.104.085.104.085.26.242 0 .25 0 .25-.114.393l-.159.155-.17.168-.181.175-.181.177-.445.432a2.4 2.4 0 0 1-.476-.3 3.48 3.48 0 0 0-2.191-.731h-.182c-.914.024-1.762.36-2.4 1.031-.224-.095-.365-.225-.535-.397l-.16-.161-.165-.169-.168-.17-.41-.416c.308-.676 1.276-1.107 1.938-1.375 1.737-.62 3.712-.446 5.252.586m-.377 15.102h1.875v1.875h-1.875zm-3.75 0h1.874v1.875h-1.875zm-3.75 0h1.874v1.875h-1.874z"/>
  </g>
  <defs>
    <clipPath id="a">
      <path fill="#fff" d="M0 0h32v32H0z"/>
    </clipPath>
  </defs>
</svg>
