<svg width="821" height="985" viewBox="0 0 821 985" fill="none" xmlns="http://www.w3.org/2000/svg">
<path d="M819.966 505.744V505.746V1011.48C819.966 1022.52 815.578 1033.12 807.768 1040.93C799.958 1048.74 789.366 1053.12 778.321 1053.12H-148.855C-159.9 1053.12 -170.492 1048.74 -178.302 1040.93C-186.112 1033.12 -190.499 1022.52 -190.499 1011.48L-190.499 505.746L-190.499 505.744C-190.539 494.729 -188.388 483.816 -184.171 473.64C-179.955 463.463 -173.758 454.227 -165.94 446.467L-165.939 446.465L255.505 25.0216C271.217 9.32018 292.52 0.5 314.733 0.5C336.946 0.5 358.249 9.32018 373.961 25.0217L795.405 446.465L795.406 446.467C803.224 454.227 809.421 463.463 813.638 473.64C817.854 483.816 820.005 494.729 819.966 505.744Z" stroke="url(#paint0_linear_84_1656)"/>
<defs>
<linearGradient id="paint0_linear_84_1656" x1="314.733" y1="0" x2="314.733" y2="1014" gradientUnits="userSpaceOnUse">
<stop stop-color="#07BE8A" stop-opacity="0.1"/>
<stop offset="1" stop-color="white"/>
</linearGradient>
</defs>
</svg>
